<?xml version="1.0" standalone="no"?>
<!DOCTYPE svg PUBLIC "-//W3C//DTD SVG 1.1//EN" "http://www.w3.org/Graphics/SVG/1.1/DTD/svg11.dtd" >
<svg xmlns="http://www.w3.org/2000/svg" xmlns:xlink="http://www.w3.org/1999/xlink" version="1.1">
<metadata>
Created by FontForge 20161116 at Sat Apr 20 08:15:42 2013
 By Jimmy Wärting
Copyright 2010, 2012 Adobe Systems Incorporated. All Rights Reserved.
</metadata>
<defs>
<font id="SourceSansPro-Black" horiz-adv-x="0" >
  <font-face 
    font-family="Source Sans Pro Black"
    font-weight="900"
    font-stretch="normal"
    units-per-em="1000"
    panose-1="2 11 8 3 3 4 3 2 2 4"
    ascent="750"
    descent="-250"
    x-height="500"
    cap-height="650"
    bbox="-246 -407 1248 984"
    underline-thickness="50"
    underline-position="-100"
    unicode-range="U+000D-FEFF"
  />
<missing-glyph horiz-adv-x="704" 
d="M76 660h552v-660h-552v660zM270 340l-82 168v-336zM516 172v336l-82 -168zM416 104l-26 56l-36 96h-4l-36 -96l-26 -56h128zM354 424l40 96l18 36h-120l18 -36l40 -96h4z" />
    <glyph glyph-name="f_f" unicode="ff" horiz-adv-x="688" 
d="M690 564q-12 5 -25 7.5t-25 2.5q-24 0 -38 -13.5t-14 -48.5v-12h84v-134h-84v-366h-172v366h-156v-366h-172v366h-66v128l66 5v7q0 38 10.5 73t34.5 61.5t62.5 42t94.5 15.5q35 0 63 -5.5t45 -12.5l-30 -126q-11 5 -23 7.5t-33 2.5t-36.5 -13t-15.5 -43v-8h156v6
q0 40 10 76.5t33.5 64.5t61 44.5t93.5 16.5q35 0 62 -6t44 -12z" />
    <glyph glyph-name="f_t" unicode="ft" horiz-adv-x="724" 
d="M706 6q-20 -6 -48 -12t-70 -6q-49 0 -83.5 14.5t-57 41.5t-33 64.5t-10.5 83.5v174h-144v-366h-172v366h-66v128l66 5v7q0 40 10 76.5t33.5 64.5t61 44.5t93.5 16.5q35 0 62 -6t44 -12l-30 -126q-12 5 -25 7.5t-25 2.5q-24 0 -38 -13.5t-14 -48.5v-12h154l20 130h142
v-130h114v-134h-114v-171q0 -42 18 -57.5t42 -15.5q12 0 23.5 2.5t20.5 5.5z" />
    <glyph glyph-name=".notdef" horiz-adv-x="704" 
d="M76 660h552v-660h-552v660zM270 340l-82 168v-336zM516 172v336l-82 -168zM416 104l-26 56l-36 96h-4l-36 -96l-26 -56h128zM354 424l40 96l18 36h-120l18 -36l40 -96h4z" />
    <glyph glyph-name="NULL" 
 />
    <glyph glyph-name="NULL" 
 />
    <glyph glyph-name="CR" unicode="&#xd;" horiz-adv-x="210" 
 />
    <glyph glyph-name="space" unicode=" " horiz-adv-x="210" 
 />
    <glyph glyph-name="A" unicode="A" horiz-adv-x="584" 
d="M349 271l-11 45q-12 47 -24 102t-24 104h-4q-11 -50 -22.5 -104.5t-23.5 -101.5l-11 -45h120zM380 138h-182l-32 -138h-176l198 650h208l198 -650h-182z" />
    <glyph glyph-name="B" unicode="B" horiz-adv-x="612" 
d="M72 650h234q51 0 96 -7.5t78 -25.5t52.5 -49.5t19.5 -79.5q0 -21 -6 -42.5t-19.5 -41t-34 -34.5t-48.5 -22v-4q69 -14 103.5 -50.5t34.5 -101.5q0 -50 -20.5 -86.5t-55 -60t-81.5 -34.5t-99 -11h-254v650zM302 394q42 0 62 19t20 49t-20 43t-62 13h-58v-124h58zM314 132
q100 0 100 74q0 36 -24.5 52t-75.5 16h-70v-142h70z" />
    <glyph glyph-name="C" unicode="C" horiz-adv-x="586" 
d="M44 320q0 82 26 145.5t70 107t101.5 66.5t120.5 23q62 0 112.5 -25.5t85.5 -60.5l-94 -106q-24 21 -47 32.5t-55 11.5q-29 0 -55.5 -13t-46 -37t-31 -59t-11.5 -79q0 -92 38.5 -141t101.5 -49q38 0 65.5 14.5t48.5 37.5l94 -104q-42 -48 -96 -72t-114 -24
q-64 0 -121 20.5t-100 62t-68 104t-25 145.5z" />
    <glyph glyph-name="D" unicode="D" horiz-adv-x="642" 
d="M72 650h192q74 0 135.5 -18t105.5 -57t68.5 -100t24.5 -147t-24 -148t-67.5 -102t-103 -59t-129.5 -19h-202v650zM254 138q35 0 66 8.5t53.5 29.5t35.5 58t13 94t-13 93t-35.5 56t-53.5 27.5t-66 7.5h-10v-374h10z" />
    <glyph glyph-name="E" unicode="E" horiz-adv-x="556" 
d="M72 650h420v-144h-248v-102h212v-144h-212v-116h258v-144h-430v650z" />
    <glyph glyph-name="F" unicode="F" horiz-adv-x="536" 
d="M72 650h424v-144h-252v-124h216v-144h-216v-238h-172v650z" />
    <glyph glyph-name="G" unicode="G" horiz-adv-x="646" 
d="M44 320q0 82 26 145.5t71 107t104.5 66.5t126.5 23q69 0 121 -25.5t87 -60.5l-94 -106q-24 21 -48.5 32.5t-63.5 11.5q-33 0 -61 -13t-49 -37t-32.5 -59t-11.5 -79q0 -92 41 -141t129 -49q14 0 27.5 3t22.5 9v90h-96v140h248v-310q-36 -33 -95.5 -56.5t-128.5 -23.5
q-67 0 -126 20.5t-103 62t-69.5 104t-25.5 145.5z" />
    <glyph glyph-name="H" unicode="H" horiz-adv-x="682" 
d="M72 650h172v-242h194v242h172v-650h-172v258h-194v-258h-172v650z" />
    <glyph glyph-name="I" unicode="I" horiz-adv-x="316" 
d="M72 650h172v-650h-172v650z" />
    <glyph glyph-name="J" unicode="J" horiz-adv-x="520" 
d="M126 198q17 -32 39 -47t43 -15q17 0 30.5 4.5t22.5 16.5t14 32t5 51v410h172v-424q0 -49 -13.5 -92t-40.5 -75.5t-68.5 -51.5t-97.5 -19q-80 0 -133 30t-89 93z" />
    <glyph glyph-name="K" unicode="K" horiz-adv-x="628" 
d="M72 650h172v-242h4l164 242h188l-194 -264l232 -386h-188l-144 250l-62 -88v-162h-172v650z" />
    <glyph glyph-name="L" unicode="L" horiz-adv-x="530" 
d="M72 650h172v-506h246v-144h-418v650z" />
    <glyph glyph-name="M" unicode="M" horiz-adv-x="776" 
d="M72 650h178l102 -270l36 -106h4l36 106l98 270h178v-650h-160v192q0 25 2.5 55t5.5 61.5t7 61.5t7 54h-4l-54 -152l-90 -219h-64l-90 219l-52 152h-4q3 -24 7 -54t7 -61.5t5.5 -61.5t2.5 -55v-192h-158v650z" />
    <glyph glyph-name="N" unicode="N" horiz-adv-x="672" 
d="M72 650h176l144 -290l62 -146h4q-3 26 -7 57t-7 63.5t-5.5 65t-2.5 62.5v188h164v-650h-176l-144 291l-62 145h-4q6 -56 14 -122t8 -126v-188h-164v650z" />
    <glyph glyph-name="O" unicode="O" horiz-adv-x="692" 
d="M346 -12q-68 0 -123.5 23t-95 66.5t-61.5 107t-22 143.5t22 142.5t61.5 105t95 64.5t123.5 22q67 0 123 -22t95.5 -65t61.5 -105t22 -142t-22 -143.5t-61.5 -107t-95.5 -66.5t-123 -23zM346 136q59 0 92.5 51.5t33.5 140.5t-33.5 137.5t-92.5 48.5t-92.5 -48.5
t-33.5 -137.5t33.5 -140.5t92.5 -51.5z" />
    <glyph glyph-name="P" unicode="P" horiz-adv-x="618" 
d="M72 650h252q52 0 99.5 -10.5t83 -36t56.5 -67t21 -102.5q0 -60 -21.5 -103t-57.5 -70.5t-83 -41t-98 -13.5h-80v-206h-172v650zM316 342q51 0 75.5 24t24.5 68t-26 62t-74 18h-72v-172h72z" />
    <glyph glyph-name="Q" unicode="Q" horiz-adv-x="692" 
d="M346 514q-59 0 -92.5 -48.5t-33.5 -137.5q0 -97 33.5 -148.5t92.5 -51.5t92.5 51.5t33.5 148.5q0 89 -33.5 137.5t-92.5 48.5zM690 -160q-20 -11 -51 -17.5t-73 -6.5q-55 0 -101.5 13t-84 37t-65.5 57.5t-47 73.5q-51 12 -92.5 39.5t-70.5 69.5t-45 98t-16 124
q0 80 22 142.5t61.5 105t95 64.5t123.5 22q67 0 123 -22t95.5 -65t61.5 -105t22 -142q0 -128 -53.5 -211t-145.5 -113q23 -31 61.5 -41.5t75.5 -10.5q21 0 40 3.5t34 8.5z" />
    <glyph glyph-name="R" unicode="R" horiz-adv-x="630" 
d="M244 354h62q104 0 104 86q0 42 -26.5 58t-77.5 16h-62v-160zM422 0l-112 218h-66v-218h-172v650h246q52 0 99.5 -10t83 -34t56.5 -64.5t21 -101.5q0 -70 -28.5 -116t-76.5 -72l141 -252h-192z" />
    <glyph glyph-name="S" unicode="S" horiz-adv-x="564" 
d="M130 199q35 -28 75.5 -45.5t76.5 -17.5q39 0 56.5 12t17.5 34q0 12 -6 20t-17.5 15t-27.5 13.5t-37 14.5l-81 34q-26 10 -50 26.5t-42 39t-28.5 51.5t-10.5 64q0 42 18 78.5t50 64t76.5 43.5t97.5 16q56 0 113.5 -21t102.5 -66l-86 -108q-33 23 -63.5 35t-66.5 12
q-32 0 -50 -11t-18 -33q0 -23 25.5 -35.5t70.5 -29.5l79 -31q61 -24 94 -67t33 -111q0 -41 -17 -79t-49.5 -66.5t-79.5 -45.5t-108 -17q-62 0 -127.5 22.5t-118.5 70.5z" />
    <glyph glyph-name="T" unicode="T" horiz-adv-x="564" 
d="M196 506h-172v144h516v-144h-172v-506h-172v506z" />
    <glyph glyph-name="U" unicode="U" horiz-adv-x="672" 
d="M68 650h172v-356q0 -87 23.5 -122.5t74.5 -35.5t75.5 35.5t24.5 122.5v356h166v-336q0 -167 -65 -246.5t-201 -79.5q-137 0 -203.5 79.5t-66.5 246.5v336z" />
    <glyph glyph-name="V" unicode="V" horiz-adv-x="572" 
d="M-10 650h182l68 -284q14 -52 24 -102.5t24 -103.5h4q14 53 24.5 103.5t23.5 102.5l66 284h176l-192 -650h-208z" />
    <glyph glyph-name="W" unicode="W" horiz-adv-x="824" 
d="M10 650h176l36 -284q5 -51 11 -102t11 -102h4l18 102l18 102l62 284h144l62 -284q9 -49 18 -100.5t18 -103.5h4q5 52 11 103t11 101l36 284h164l-108 -650h-218l-50 258q-8 38 -13.5 77t-10.5 75h-4q-5 -36 -10.5 -75t-13.5 -77l-48 -258h-214z" />
    <glyph glyph-name="X" unicode="X" horiz-adv-x="588" 
d="M186 334l-166 316h192l44 -106q11 -23 21.5 -49.5t24.5 -58.5h4q11 32 21 58.5t19 49.5l38 106h184l-166 -324l176 -326h-192l-52 116q-12 26 -23 52t-23 56h-4q-11 -30 -21 -56t-21 -52l-48 -116h-184z" />
    <glyph glyph-name="Y" unicode="Y" horiz-adv-x="544" 
d="M186 224l-196 426h184l48 -136q12 -37 24 -72t25 -73h4q13 38 25.5 73t25.5 72l48 136h180l-196 -426v-224h-172v224z" />
    <glyph glyph-name="Z" unicode="Z" horiz-adv-x="542" 
d="M32 104l266 402h-240v144h452v-104l-266 -402h268v-144h-480v104z" />
    <glyph glyph-name="a" unicode="a" horiz-adv-x="542" 
d="M42 142q0 78 64 122.5t208 59.5q-6 52 -70 52q-27 0 -57 -10.5t-69 -31.5l-60 112q53 32 107 49t113 17q97 0 152.5 -55.5t55.5 -178.5v-278h-140l-12 48h-4q-30 -27 -63.5 -43.5t-74.5 -16.5q-35 0 -63 12.5t-47.5 33.5t-29.5 49t-10 59zM206 156q0 -36 46 -36
q21 0 34.5 9.5t27.5 24.5v68q-62 -9 -85 -27t-23 -39z" />
    <glyph glyph-name="b" unicode="b" horiz-adv-x="580" 
d="M58 696h172v-162l-4 -72q26 24 58 37t65 13q44 0 80 -18t61.5 -51t39.5 -80t14 -104q0 -65 -17.5 -115.5t-46.5 -85t-66.5 -52.5t-77.5 -18q-33 0 -65 16.5t-61 49.5h-4l-14 -54h-134v696zM230 152q15 -14 31 -19t33 -5q30 0 52 28t22 100q0 62 -17.5 89t-52.5 27
q-20 0 -35.5 -8t-32.5 -28v-184z" />
    <glyph glyph-name="c" unicode="c" horiz-adv-x="472" 
d="M32 250q0 62 22 111t59 82.5t85.5 51t101.5 17.5q45 0 82.5 -15t63.5 -41l-78 -106q-17 14 -30.5 19t-27.5 5q-48 0 -75 -33.5t-27 -90.5t27.5 -90.5t68.5 -33.5q24 0 43.5 10t36.5 22l68 -108q-38 -33 -83.5 -47.5t-84.5 -14.5q-53 0 -99 17.5t-80 51t-53.5 82.5
t-19.5 111z" />
    <glyph glyph-name="d" unicode="d" horiz-adv-x="580" 
d="M36 250q0 61 17.5 110t46 82.5t65.5 51.5t75 18q41 0 67 -13.5t49 -36.5l-6 72v162h172v-696h-140l-12 46h-4q-26 -26 -59.5 -42t-66.5 -16q-47 0 -84.5 18t-64 52t-41 82.5t-14.5 109.5zM212 252q0 -68 19.5 -96t54.5 -28q20 0 35 7.5t29 28.5v184q-15 14 -33 19t-35 5
q-27 0 -48.5 -27t-21.5 -93z" />
    <glyph glyph-name="e" unicode="e" horiz-adv-x="526" 
d="M32 250q0 61 20.5 109.5t54 82.5t76.5 52t89 18q55 0 96 -19t68 -52t40.5 -77t13.5 -94q0 -23 -2.5 -41t-4.5 -27h-285q12 -48 43 -66t73 -18q26 0 50.5 7.5t51.5 22.5l56 -102q-41 -29 -90.5 -43.5t-91.5 -14.5q-55 0 -102 17.5t-81.5 51t-54.5 82.5t-20 111zM344 306
q0 32 -14.5 54t-53.5 22q-29 0 -50.5 -17t-29.5 -59h148z" />
    <glyph glyph-name="f" unicode="f" horiz-adv-x="360" 
d="M362 564q-12 5 -25 7.5t-25 2.5q-24 0 -38 -13.5t-14 -48.5v-12h84v-134h-84v-366h-172v366h-66v128l66 5v7q0 40 10 76.5t33.5 64.5t61 44.5t93.5 16.5q35 0 62 -6t44 -12z" />
    <glyph glyph-name="g" unicode="g" horiz-adv-x="546" 
d="M170 -54q0 -24 27 -35t71 -11q42 0 70 12.5t28 33.5q0 20 -17.5 25t-49.5 5h-39q-30 0 -45.5 1.5t-26.5 4.5q-9 -9 -13.5 -17t-4.5 -19zM30 -82q0 59 70 96v4q-20 14 -33 34t-13 52q0 26 15 51t41 43v4q-27 18 -47.5 51t-20.5 77q0 46 18 80.5t48 57t68.5 33.5t79.5 11
q44 0 80 -12h186v-124h-72q3 -9 5.5 -23t2.5 -29q0 -44 -16 -75.5t-43 -51.5t-64 -29.5t-79 -9.5q-25 0 -56 7q-8 -7 -10 -12.5t-2 -16.5q0 -17 16 -23.5t54 -6.5h75q94 0 145.5 -30.5t51.5 -99.5q0 -41 -20.5 -74.5t-58 -57.5t-91 -37t-120.5 -13q-43 0 -81 6.5t-66.5 21.5
t-45.5 38.5t-17 57.5zM256 260q24 0 39 17t15 53q0 35 -15 51.5t-39 16.5t-39 -16.5t-15 -51.5q0 -36 15 -53t39 -17z" />
    <glyph glyph-name="h" unicode="h" horiz-adv-x="582" 
d="M58 696h172v-162l-8 -86q26 23 62.5 43.5t87.5 20.5q82 0 119 -55.5t37 -148.5v-308h-172v286q0 48 -12 64t-38 16q-24 0 -40 -10t-36 -28v-328h-172v696z" />
    <glyph glyph-name="i" unicode="i" horiz-adv-x="288" 
d="M144 562q-42 0 -69 24t-27 62t27 62t69 24t69 -24t27 -62t-27 -62t-69 -24zM58 500h172v-500h-172v500z" />
    <glyph glyph-name="j" unicode="j" horiz-adv-x="290" 
d="M60 500h172v-474q0 -42 -9 -80.5t-31.5 -68.5t-60 -47.5t-93.5 -17.5q-35 0 -56 4t-38 10l30 126q11 -3 19 -4.5t17 -1.5q27 0 38.5 16.5t11.5 57.5v480zM146 562q-42 0 -69 24t-27 62t27 62t69 24t69 -24t27 -62t-27 -62t-69 -24z" />
    <glyph glyph-name="k" unicode="k" horiz-adv-x="568" 
d="M58 696h168v-370h4l138 174h186l-178 -208l188 -292h-186l-100 178l-52 -58v-120h-168v696z" />
    <glyph glyph-name="l" unicode="l" horiz-adv-x="298" 
d="M58 696h172v-526q0 -26 9.5 -35t18.5 -9h8.5t9.5 2l20 -126q-14 -6 -34.5 -10t-49.5 -4q-44 0 -73.5 13.5t-47.5 38.5t-25.5 59.5t-7.5 76.5v520z" />
    <glyph glyph-name="m" unicode="m" horiz-adv-x="868" 
d="M58 500h140l12 -61h4q30 29 64.5 51t85.5 22t84.5 -20.5t53.5 -59.5q31 32 67 56t87 24q82 0 120 -55.5t38 -148.5v-308h-172v286q0 48 -12 64t-38 16q-32 0 -70 -38v-328h-172v286q0 48 -12 64t-38 16q-32 0 -70 -38v-328h-172v500z" />
    <glyph glyph-name="n" unicode="n" horiz-adv-x="582" 
d="M58 500h140l12 -60h4q30 29 68.5 50.5t89.5 21.5q82 0 119 -55.5t37 -148.5v-308h-172v286q0 48 -12 64t-38 16q-24 0 -40 -10t-36 -28v-328h-172v500z" />
    <glyph glyph-name="o" unicode="o" horiz-adv-x="560" 
d="M32 250q0 62 20.5 111t55 82.5t79.5 51t93 17.5t92.5 -17.5t79 -51t55.5 -82.5t21 -111t-21 -111t-55.5 -82.5t-79 -51t-92.5 -17.5t-93 17.5t-79.5 51t-55 82.5t-20.5 111zM208 250q0 -57 16.5 -90.5t55.5 -33.5t55.5 33.5t16.5 90.5t-16.5 90.5t-55.5 33.5t-55.5 -33.5
t-16.5 -90.5z" />
    <glyph glyph-name="p" unicode="p" horiz-adv-x="580" 
d="M230 -38v-138h-172v676h140l12 -46h4q28 26 63 42t73 16q44 0 80 -18t61.5 -51t39 -80t13.5 -105q0 -65 -17.5 -115t-46.5 -84.5t-66.5 -52.5t-77.5 -18q-62 0 -112 50zM230 152q15 -14 31 -19t33 -5q30 0 52 28t22 100q0 62 -17.5 89t-52.5 27q-20 0 -35.5 -8t-32.5 -28
v-184z" />
    <glyph glyph-name="q" unicode="q" horiz-adv-x="580" 
d="M36 250q0 61 17.5 110t46 82.5t65.5 51.5t75 18q40 0 70.5 -14.5t59.5 -47.5h4l14 50h134v-676h-172v143l6 71q-23 -23 -54.5 -36.5t-61.5 -13.5q-47 0 -84.5 18t-64 52t-41 82.5t-14.5 109.5zM212 252q0 -68 19.5 -96t54.5 -28q20 0 35 7.5t29 28.5v184q-15 14 -33 19
t-35 5q-27 0 -48.5 -27t-21.5 -93z" />
    <glyph glyph-name="r" unicode="r" horiz-adv-x="418" 
d="M58 500h140l12 -86h4q28 51 66.5 74.5t75.5 23.5q23 0 37 -2.5t25 -7.5l-28 -148q-14 3 -26.5 5.5t-29.5 2.5q-27 0 -56.5 -18.5t-47.5 -65.5v-278h-172v500z" />
    <glyph glyph-name="s" unicode="s" horiz-adv-x="452" 
d="M94 164q68 -50 122 -50q27 0 38.5 7.5t11.5 22.5q0 10 -8 17.5t-21.5 14t-30.5 12.5t-36 14q-22 9 -44.5 21.5t-40.5 30.5t-29.5 41.5t-11.5 54.5q0 37 14.5 67t40.5 51t62.5 32.5t80.5 11.5q62 0 106.5 -20.5t77.5 -45.5l-76 -102q-27 20 -53 31t-49 11q-44 0 -44 -28
q0 -10 7.5 -17t20.5 -13t30 -11.5t36 -12.5q22 -8 45 -20t41.5 -29.5t30 -42t11.5 -58.5q0 -35 -14 -65.5t-41 -53t-67 -35t-92 -12.5q-48 0 -101.5 19t-92.5 51z" />
    <glyph glyph-name="t" unicode="t" horiz-adv-x="400" 
d="M80 366h-66v128l76 6l20 130h142v-130h114v-134h-114v-171q0 -42 18 -57.5t42 -15.5q12 0 23.5 2.5t20.5 5.5l26 -124q-20 -6 -48 -12t-70 -6q-49 0 -83.5 14.5t-57 41.5t-33 64.5t-10.5 83.5v174z" />
    <glyph glyph-name="u" unicode="u" horiz-adv-x="578" 
d="M54 500h172v-286q0 -48 12 -64t38 -16q24 0 39.5 10t32.5 34v322h172v-500h-140l-12 66h-4q-30 -36 -66.5 -57t-87.5 -21q-41 0 -70.5 14.5t-48.5 41t-28 64t-9 84.5v308z" />
    <glyph glyph-name="v" unicode="v" horiz-adv-x="544" 
d="M12 500h172l54 -218q18 -75 36 -156h4q18 81 36 156l54 218h164l-158 -500h-198z" />
    <glyph glyph-name="w" unicode="w" horiz-adv-x="798" 
d="M24 500h170l38 -210q6 -38 10 -75.5t10 -76.5h4q6 39 12.5 77.5t15.5 74.5l46 210h146l48 -210q9 -38 15.5 -75.5t14.5 -76.5h4q6 39 10 76.5t10 75.5l38 210h158l-114 -500h-200l-36 174l-12 70t-12 77h-4l-11 -77t-11 -70l-34 -174h-196z" />
    <glyph glyph-name="x" unicode="x" horiz-adv-x="540" 
d="M164 260l-142 240h184l36 -70q10 -21 20 -43t20 -43h4q7 21 15 43t15 43l24 70h178l-142 -260l150 -240h-184l-40 70q-11 21 -22 43t-22 43h-4q-8 -21 -17 -42.5t-17 -43.5l-28 -70h-178z" />
    <glyph glyph-name="y" unicode="y" horiz-adv-x="542" 
d="M86 -48q7 -2 15.5 -4t16.5 -2q35 0 52.5 13.5t25.5 36.5l6 22l-190 482h172l60 -192q11 -35 19 -69.5t17 -72.5h4q8 36 15.5 71t16.5 71l50 192h164l-168 -492q-20 -51 -40.5 -88t-47.5 -61t-61.5 -35.5t-80.5 -11.5q-26 0 -42.5 2.5t-33.5 7.5l30 130v0z" />
    <glyph glyph-name="z" unicode="z" horiz-adv-x="474" 
d="M40 92l190 274h-168v134h382v-92l-190 -274h196v-134h-410v92z" />
    <glyph glyph-name="Agrave" unicode="&#xc0;" horiz-adv-x="584" 
d="M349 271l-11 45q-12 47 -24 102t-24 104h-4q-11 -50 -22.5 -104.5t-23.5 -101.5l-11 -45h120zM380 138h-182l-32 -138h-176l198 650h208l198 -650h-182zM114 824h180l78 -124h-136z" />
    <glyph glyph-name="Aacute" unicode="&#xc1;" horiz-adv-x="584" 
d="M349 271l-11 45q-12 47 -24 102t-24 104h-4q-11 -50 -22.5 -104.5t-23.5 -101.5l-11 -45h120zM380 138h-182l-32 -138h-176l198 650h208l198 -650h-182zM340 700h-136l78 124h180z" />
    <glyph glyph-name="Acircumflex" unicode="&#xc2;" horiz-adv-x="584" 
d="M349 271l-11 45q-12 47 -24 102t-24 104h-4q-11 -50 -22.5 -104.5t-23.5 -101.5l-11 -45h120zM380 138h-182l-32 -138h-176l198 650h208l198 -650h-182zM108 700l96 124h168l96 -124h-130l-48 58h-4l-48 -58h-130z" />
    <glyph glyph-name="Atilde" unicode="&#xc3;" horiz-adv-x="584" 
d="M349 271l-11 45q-12 47 -24 102t-24 104h-4q-11 -50 -22.5 -104.5t-23.5 -101.5l-11 -45h120zM380 138h-182l-32 -138h-176l198 650h208l198 -650h-182zM352 700q-20 0 -37.5 6.5t-32.5 14.5t-27.5 14.5t-22.5 6.5q-12 0 -22 -9t-16 -33h-86q9 76 42 111t74 35
q20 0 37.5 -6.5t32.5 -14.5t27 -14.5t23 -6.5q12 0 22 9t16 33h86q-5 -38 -16 -65.5t-26.5 -45.5t-34.5 -26.5t-39 -8.5z" />
    <glyph glyph-name="Adieresis" unicode="&#xc4;" horiz-adv-x="584" 
d="M349 271l-11 45q-12 47 -24 102t-24 104h-4q-11 -50 -22.5 -104.5t-23.5 -101.5l-11 -45h120zM380 138h-182l-32 -138h-176l198 650h208l198 -650h-182zM184 694q-35 0 -56.5 22.5t-21.5 55.5t21.5 55.5t56.5 22.5t56.5 -22.5t21.5 -55.5t-21.5 -55.5t-56.5 -22.5z
M392 694q-35 0 -56.5 22.5t-21.5 55.5t21.5 55.5t56.5 22.5t56.5 -22.5t21.5 -55.5t-21.5 -55.5t-56.5 -22.5z" />
    <glyph glyph-name="Amacron" unicode="&#x100;" horiz-adv-x="584" 
d="M349 271l-11 45q-12 47 -24 102t-24 104h-4q-11 -50 -22.5 -104.5t-23.5 -101.5l-11 -45h120zM380 138h-182l-32 -138h-176l198 650h208l198 -650h-182zM140 824h296v-108h-296v108z" />
    <glyph glyph-name="Abreve" unicode="&#x102;" horiz-adv-x="584" 
d="M349 271l-11 45q-12 47 -24 102t-24 104h-4q-11 -50 -22.5 -104.5t-23.5 -101.5l-11 -45h120zM380 138h-182l-32 -138h-176l198 650h208l198 -650h-182zM288 700q-68 0 -102 32.5t-40 91.5h92q5 -18 16 -29t34 -11t34 11t16 29h92q-6 -59 -40 -91.5t-102 -32.5z" />
    <glyph glyph-name="Aring" unicode="&#xc5;" horiz-adv-x="584" 
d="M349 271l-11 45q-12 47 -24 102t-24 104h-4q-11 -50 -22.5 -104.5t-23.5 -101.5l-11 -45h120zM380 138h-182l-32 -138h-176l198 650h208l198 -650h-182zM288 696q-54 0 -87 27.5t-33 74.5t33 74.5t87 27.5t87 -27.5t33 -74.5t-33 -74.5t-87 -27.5zM288 758q16 0 27 11
t11 29t-11 29t-27 11t-27 -11t-11 -29t11 -29t27 -11z" />
    <glyph glyph-name="uni01CD" unicode="&#x1cd;" horiz-adv-x="584" 
d="M349 271l-11 45q-12 47 -24 102t-24 104h-4q-11 -50 -22.5 -104.5t-23.5 -101.5l-11 -45h120zM380 138h-182l-32 -138h-176l198 650h208l198 -650h-182zM468 824l-96 -124h-168l-96 124h130l48 -58h4l48 58h130z" />
    <glyph glyph-name="uni1EA0" unicode="&#x1ea0;" horiz-adv-x="584" 
d="M349 271l-11 45q-12 47 -24 102t-24 104h-4q-11 -50 -22.5 -104.5t-23.5 -101.5l-11 -45h120zM380 138h-182l-32 -138h-176l198 650h208l198 -650h-182zM288 -234q-41 0 -66.5 24t-25.5 62t25.5 62t66.5 24t66.5 -24t25.5 -62t-25.5 -62t-66.5 -24z" />
    <glyph glyph-name="uni1EA2" unicode="&#x1ea2;" horiz-adv-x="584" 
d="M349 271l-11 45q-12 47 -24 102t-24 104h-4q-11 -50 -22.5 -104.5t-23.5 -101.5l-11 -45h120zM380 138h-182l-32 -138h-176l198 650h208l198 -650h-182zM238 754q17 2 28.5 7t11.5 17t-17 19.5t-61 10.5l20 84q52 -2 86.5 -9.5t55.5 -20t29.5 -29.5t8.5 -37
q0 -27 -12 -46.5t-32.5 -33t-47.5 -20.5t-58 -8z" />
    <glyph glyph-name="uni1EA4" unicode="&#x1ea4;" horiz-adv-x="584" 
d="M349 271l-11 45q-12 47 -24 102t-24 104h-4q-11 -50 -22.5 -104.5t-23.5 -101.5l-11 -45h120zM380 138h-182l-32 -138h-176l198 650h208l198 -650h-182zM477 894h130l-102 -124h-96zM214 818h148l96 -118h-120l-48 52h-4l-48 -52h-120z" />
    <glyph glyph-name="uni1EA6" unicode="&#x1ea6;" horiz-adv-x="584" 
d="M349 271l-11 45q-12 47 -24 102t-24 104h-4q-11 -50 -22.5 -104.5t-23.5 -101.5l-11 -45h120zM380 138h-182l-32 -138h-176l198 650h208l198 -650h-182zM547 770h-96l-102 124h130zM214 818h148l96 -118h-120l-48 52h-4l-48 -52h-120z" />
    <glyph glyph-name="uni1EA8" unicode="&#x1ea8;" horiz-adv-x="584" 
d="M349 271l-11 45q-12 47 -24 102t-24 104h-4q-11 -50 -22.5 -104.5t-23.5 -101.5l-11 -45h120zM380 138h-182l-32 -138h-176l198 650h208l198 -650h-182zM422 800q12 2 20 7t8 17t-13 19.5t-51 10.5l16 68q46 -2 76 -9t48 -18t25 -26t7 -31q0 -47 -35.5 -67t-88.5 -23z
M214 818h148l96 -118h-120l-48 52h-4l-48 -52h-120z" />
    <glyph glyph-name="uni1EAA" unicode="&#x1eaa;" horiz-adv-x="584" 
d="M349 271l-11 45q-12 47 -24 102t-24 104h-4q-11 -50 -22.5 -104.5t-23.5 -101.5l-11 -45h120zM380 138h-182l-32 -138h-176l198 650h208l198 -650h-182zM214 818h148l96 -118h-120l-48 52h-4l-48 -52h-120zM132 854q8 66 36.5 94t61.5 28q18 0 33 -5.5t27.5 -12.5
t23.5 -12.5t21 -5.5q12 0 21 8t14 28h74q-8 -66 -36.5 -94t-61.5 -28q-18 0 -33 5.5t-28 12.5t-23.5 12.5t-20.5 5.5q-12 0 -21 -8t-14 -28h-74z" />
    <glyph glyph-name="uni1EAC" unicode="&#x1eac;" horiz-adv-x="584" 
d="M349 271l-11 45q-12 47 -24 102t-24 104h-4q-11 -50 -22.5 -104.5t-23.5 -101.5l-11 -45h120zM380 138h-182l-32 -138h-176l198 650h208l198 -650h-182zM108 700l96 124h168l96 -124h-130l-48 58h-4l-48 -58h-130zM288 -234q-41 0 -66.5 24t-25.5 62t25.5 62t66.5 24
t66.5 -24t25.5 -62t-25.5 -62t-66.5 -24z" />
    <glyph glyph-name="uni1EAE" unicode="&#x1eae;" horiz-adv-x="584" 
d="M349 271l-11 45q-12 47 -24 102t-24 104h-4q-11 -50 -22.5 -104.5t-23.5 -101.5l-11 -45h120zM380 138h-182l-32 -138h-176l198 650h208l198 -650h-182zM301 934h126l-102 -124h-84zM288 700q-68 0 -102 32.5t-40 91.5h76q6 -23 20 -36.5t46 -13.5t46 13.5t20 36.5h76
q-6 -59 -40 -91.5t-102 -32.5z" />
    <glyph glyph-name="uni1EB0" unicode="&#x1eb0;" horiz-adv-x="584" 
d="M349 271l-11 45q-12 47 -24 102t-24 104h-4q-11 -50 -22.5 -104.5t-23.5 -101.5l-11 -45h120zM380 138h-182l-32 -138h-176l198 650h208l198 -650h-182zM335 810h-84l-102 124h126zM288 700q-68 0 -102 32.5t-40 91.5h76q6 -23 20 -36.5t46 -13.5t46 13.5t20 36.5h76
q-6 -59 -40 -91.5t-102 -32.5z" />
    <glyph glyph-name="uni1EB2" unicode="&#x1eb2;" horiz-adv-x="584" 
d="M349 271l-11 45q-12 47 -24 102t-24 104h-4q-11 -50 -22.5 -104.5t-23.5 -101.5l-11 -45h120zM380 138h-182l-32 -138h-176l198 650h208l198 -650h-182zM240 860q12 2 20 7t8 17t-13 19.5t-51 10.5l16 68q46 -2 76 -9t48 -18t25 -26t7 -31q0 -47 -35.5 -67t-88.5 -23z
M288 700q-68 0 -102 32.5t-40 91.5h76q6 -23 20 -36.5t46 -13.5t46 13.5t20 36.5h76q-6 -59 -40 -91.5t-102 -32.5z" />
    <glyph glyph-name="uni1EB4" unicode="&#x1eb4;" horiz-adv-x="584" 
d="M349 271l-11 45q-12 47 -24 102t-24 104h-4q-11 -50 -22.5 -104.5t-23.5 -101.5l-11 -45h120zM380 138h-182l-32 -138h-176l198 650h208l198 -650h-182zM288 700q-68 0 -102 32.5t-40 91.5h76q6 -23 20 -36.5t46 -13.5t46 13.5t20 36.5h76q-6 -59 -40 -91.5t-102 -32.5z
M132 854q8 66 36.5 94t61.5 28q18 0 33 -5.5t27.5 -12.5t23.5 -12.5t21 -5.5q12 0 21 8t14 28h74q-8 -66 -36.5 -94t-61.5 -28q-18 0 -33 5.5t-28 12.5t-23.5 12.5t-20.5 5.5q-12 0 -21 -8t-14 -28h-74z" />
    <glyph glyph-name="uni1EB6" unicode="&#x1eb6;" horiz-adv-x="584" 
d="M349 271l-11 45q-12 47 -24 102t-24 104h-4q-11 -50 -22.5 -104.5t-23.5 -101.5l-11 -45h120zM380 138h-182l-32 -138h-176l198 650h208l198 -650h-182zM288 700q-68 0 -102 32.5t-40 91.5h92q5 -18 16 -29t34 -11t34 11t16 29h92q-6 -59 -40 -91.5t-102 -32.5zM288 -234
q-41 0 -66.5 24t-25.5 62t25.5 62t66.5 24t66.5 -24t25.5 -62t-25.5 -62t-66.5 -24z" />
    <glyph glyph-name="Aogonek" unicode="&#x104;" horiz-adv-x="584" 
d="M349 271l-11 45q-12 47 -24 102t-24 104h-4q-11 -50 -22.5 -104.5t-23.5 -101.5l-11 -45h120zM612 -190q-21 -17 -53 -27.5t-61 -10.5q-51 0 -86.5 25.5t-35.5 72.5q0 24 8.5 45t21.5 38t27.5 29t26.5 18h-48l-32 138h-182l-32 -138h-176l198 650h208l198 -650
q-22 0 -39.5 -7.5t-29.5 -19.5t-18.5 -27t-6.5 -30q0 -17 10.5 -25.5t25.5 -8.5q11 0 21 4.5t17 9.5z" />
    <glyph glyph-name="AE" unicode="&#xc6;" horiz-adv-x="854" 
d="M380 265v257h-4q-18 -47 -34.5 -91t-33.5 -83l-36 -83h108zM800 144v-144h-420v132h-165l-57 -132h-180l296 650h516v-144h-238v-102h202v-144h-202v-116h248z" />
    <glyph glyph-name="Ccedilla" unicode="&#xc7;" horiz-adv-x="586" 
d="M44 320q0 82 26 145.5t70 107t101.5 66.5t120.5 23q62 0 112.5 -25.5t85.5 -60.5l-94 -106q-24 21 -47 32.5t-55 11.5q-29 0 -55.5 -13t-46 -37t-31 -59t-11.5 -79q0 -92 38.5 -141t101.5 -49q38 0 65.5 14.5t48.5 37.5l94 -104q-42 -48 -96 -72t-114 -24
q-64 0 -121 20.5t-100 62t-68 104t-25 145.5zM306 4h98l-18 -44q26 -9 42 -26.5t16 -49.5q0 -27 -15.5 -46.5t-41.5 -33t-60.5 -20.5t-72.5 -8l-12 66q35 3 57.5 12.5t22.5 29.5q0 11 -10.5 21t-45.5 19z" />
    <glyph glyph-name="Cacute" unicode="&#x106;" horiz-adv-x="586" 
d="M44 320q0 82 26 145.5t70 107t101.5 66.5t120.5 23q62 0 112.5 -25.5t85.5 -60.5l-94 -106q-24 21 -47 32.5t-55 11.5q-29 0 -55.5 -13t-46 -37t-31 -59t-11.5 -79q0 -92 38.5 -141t101.5 -49q38 0 65.5 14.5t48.5 37.5l94 -104q-42 -48 -96 -72t-114 -24
q-64 0 -121 20.5t-100 62t-68 104t-25 145.5zM400 700h-136l78 124h180z" />
    <glyph glyph-name="Ccircumflex" unicode="&#x108;" horiz-adv-x="586" 
d="M44 320q0 82 26 145.5t70 107t101.5 66.5t120.5 23q62 0 112.5 -25.5t85.5 -60.5l-94 -106q-24 21 -47 32.5t-55 11.5q-29 0 -55.5 -13t-46 -37t-31 -59t-11.5 -79q0 -92 38.5 -141t101.5 -49q38 0 65.5 14.5t48.5 37.5l94 -104q-42 -48 -96 -72t-114 -24
q-64 0 -121 20.5t-100 62t-68 104t-25 145.5zM168 700l96 124h168l96 -124h-130l-48 58h-4l-48 -58h-130z" />
    <glyph glyph-name="Ccaron" unicode="&#x10c;" horiz-adv-x="586" 
d="M44 320q0 82 26 145.5t70 107t101.5 66.5t120.5 23q62 0 112.5 -25.5t85.5 -60.5l-94 -106q-24 21 -47 32.5t-55 11.5q-29 0 -55.5 -13t-46 -37t-31 -59t-11.5 -79q0 -92 38.5 -141t101.5 -49q38 0 65.5 14.5t48.5 37.5l94 -104q-42 -48 -96 -72t-114 -24
q-64 0 -121 20.5t-100 62t-68 104t-25 145.5zM528 824l-96 -124h-168l-96 124h130l48 -58h4l48 58h130z" />
    <glyph glyph-name="Cdotaccent" unicode="&#x10a;" horiz-adv-x="586" 
d="M44 320q0 82 26 145.5t70 107t101.5 66.5t120.5 23q62 0 112.5 -25.5t85.5 -60.5l-94 -106q-24 21 -47 32.5t-55 11.5q-29 0 -55.5 -13t-46 -37t-31 -59t-11.5 -79q0 -92 38.5 -141t101.5 -49q38 0 65.5 14.5t48.5 37.5l94 -104q-42 -48 -96 -72t-114 -24
q-64 0 -121 20.5t-100 62t-68 104t-25 145.5zM348 696q-42 0 -69 24t-27 62t27 62t69 24t69 -24t27 -62t-27 -62t-69 -24z" />
    <glyph glyph-name="Dcaron" unicode="&#x10e;" horiz-adv-x="642" 
d="M72 650h192q74 0 135.5 -18t105.5 -57t68.5 -100t24.5 -147t-24 -148t-67.5 -102t-103 -59t-129.5 -19h-202v650zM254 138q35 0 66 8.5t53.5 29.5t35.5 58t13 94t-13 93t-35.5 56t-53.5 27.5t-66 7.5h-10v-374h10zM502 824l-96 -124h-168l-96 124h130l48 -58h4l48 58h130
z" />
    <glyph glyph-name="uni1E0C" unicode="&#x1e0c;" horiz-adv-x="642" 
d="M72 650h192q74 0 135.5 -18t105.5 -57t68.5 -100t24.5 -147t-24 -148t-67.5 -102t-103 -59t-129.5 -19h-202v650zM254 138q35 0 66 8.5t53.5 29.5t35.5 58t13 94t-13 93t-35.5 56t-53.5 27.5t-66 7.5h-10v-374h10zM316 -234q-41 0 -66.5 24t-25.5 62t25.5 62t66.5 24
t66.5 -24t25.5 -62t-25.5 -62t-66.5 -24z" />
    <glyph glyph-name="uni1E0E" unicode="&#x1e0e;" horiz-adv-x="642" 
d="M72 650h192q74 0 135.5 -18t105.5 -57t68.5 -100t24.5 -147t-24 -148t-67.5 -102t-103 -59t-129.5 -19h-202v650zM254 138q35 0 66 8.5t53.5 29.5t35.5 58t13 94t-13 93t-35.5 56t-53.5 27.5t-66 7.5h-10v-374h10zM460 -196h-288v108h288v-108z" />
    <glyph glyph-name="Dcroat" unicode="&#x110;" horiz-adv-x="668" 
d="M280 138q35 0 66 8.5t53.5 29.5t35.5 58t13 94t-13 93t-35.5 56t-53.5 27.5t-66 7.5h-10v-138h116v-80h-116v-156h10zM290 650q74 0 135.5 -18t105.5 -57t68.5 -100t24.5 -147t-24 -148t-67.5 -102t-103 -59t-129.5 -19h-202v294h-74v74l74 6v276h192z" />
    <glyph glyph-name="Egrave" unicode="&#xc8;" horiz-adv-x="556" 
d="M72 650h420v-144h-248v-102h212v-144h-212v-116h258v-144h-430v650zM116 824h180l78 -124h-136z" />
    <glyph glyph-name="Eacute" unicode="&#xc9;" horiz-adv-x="556" 
d="M72 650h420v-144h-248v-102h212v-144h-212v-116h258v-144h-430v650zM342 700h-136l78 124h180z" />
    <glyph glyph-name="Ecircumflex" unicode="&#xca;" horiz-adv-x="556" 
d="M72 650h420v-144h-248v-102h212v-144h-212v-116h258v-144h-430v650zM110 700l96 124h168l96 -124h-130l-48 58h-4l-48 -58h-130z" />
    <glyph glyph-name="Ecaron" unicode="&#x11a;" horiz-adv-x="556" 
d="M72 650h420v-144h-248v-102h212v-144h-212v-116h258v-144h-430v650zM470 824l-96 -124h-168l-96 124h130l48 -58h4l48 58h130z" />
    <glyph glyph-name="Edieresis" unicode="&#xcb;" horiz-adv-x="556" 
d="M72 650h420v-144h-248v-102h212v-144h-212v-116h258v-144h-430v650zM186 694q-35 0 -56.5 22.5t-21.5 55.5t21.5 55.5t56.5 22.5t56.5 -22.5t21.5 -55.5t-21.5 -55.5t-56.5 -22.5zM394 694q-35 0 -56.5 22.5t-21.5 55.5t21.5 55.5t56.5 22.5t56.5 -22.5t21.5 -55.5
t-21.5 -55.5t-56.5 -22.5z" />
    <glyph glyph-name="Emacron" unicode="&#x112;" horiz-adv-x="556" 
d="M72 650h420v-144h-248v-102h212v-144h-212v-116h258v-144h-430v650zM142 824h296v-108h-296v108z" />
    <glyph glyph-name="Ebreve" unicode="&#x114;" horiz-adv-x="556" 
d="M72 650h420v-144h-248v-102h212v-144h-212v-116h258v-144h-430v650zM290 700q-68 0 -102 32.5t-40 91.5h92q5 -18 16 -29t34 -11t34 11t16 29h92q-6 -59 -40 -91.5t-102 -32.5z" />
    <glyph glyph-name="Edotaccent" unicode="&#x116;" horiz-adv-x="556" 
d="M72 650h420v-144h-248v-102h212v-144h-212v-116h258v-144h-430v650zM290 696q-42 0 -69 24t-27 62t27 62t69 24t69 -24t27 -62t-27 -62t-69 -24z" />
    <glyph glyph-name="uni1EB8" unicode="&#x1eb8;" horiz-adv-x="556" 
d="M72 650h420v-144h-248v-102h212v-144h-212v-116h258v-144h-430v650zM294 -234q-41 0 -66.5 24t-25.5 62t25.5 62t66.5 24t66.5 -24t25.5 -62t-25.5 -62t-66.5 -24z" />
    <glyph glyph-name="uni1EBA" unicode="&#x1eba;" horiz-adv-x="556" 
d="M72 650h420v-144h-248v-102h212v-144h-212v-116h258v-144h-430v650zM240 754q17 2 28.5 7t11.5 17t-17 19.5t-61 10.5l20 84q52 -2 86.5 -9.5t55.5 -20t29.5 -29.5t8.5 -37q0 -27 -12 -46.5t-32.5 -33t-47.5 -20.5t-58 -8z" />
    <glyph glyph-name="uni1EBC" unicode="&#x1ebc;" horiz-adv-x="556" 
d="M72 650h420v-144h-248v-102h212v-144h-212v-116h258v-144h-430v650zM354 700q-20 0 -37.5 6.5t-32.5 14.5t-27.5 14.5t-22.5 6.5q-12 0 -22 -9t-16 -33h-86q9 76 42 111t74 35q20 0 37.5 -6.5t32.5 -14.5t27 -14.5t23 -6.5q12 0 22 9t16 33h86q-5 -38 -16 -65.5
t-26.5 -45.5t-34.5 -26.5t-39 -8.5z" />
    <glyph glyph-name="uni1EBE" unicode="&#x1ebe;" horiz-adv-x="556" 
d="M72 650h420v-144h-248v-102h212v-144h-212v-116h258v-144h-430v650zM479 894h130l-102 -124h-96zM216 818h148l96 -118h-120l-48 52h-4l-48 -52h-120z" />
    <glyph glyph-name="uni1EC0" unicode="&#x1ec0;" horiz-adv-x="556" 
d="M72 650h420v-144h-248v-102h212v-144h-212v-116h258v-144h-430v650zM549 770h-96l-102 124h130zM216 818h148l96 -118h-120l-48 52h-4l-48 -52h-120z" />
    <glyph glyph-name="uni1EC2" unicode="&#x1ec2;" horiz-adv-x="556" 
d="M72 650h420v-144h-248v-102h212v-144h-212v-116h258v-144h-430v650zM424 800q12 2 20 7t8 17t-13 19.5t-51 10.5l16 68q46 -2 76 -9t48 -18t25 -26t7 -31q0 -47 -35.5 -67t-88.5 -23zM216 818h148l96 -118h-120l-48 52h-4l-48 -52h-120z" />
    <glyph glyph-name="uni1EC4" unicode="&#x1ec4;" horiz-adv-x="556" 
d="M72 650h420v-144h-248v-102h212v-144h-212v-116h258v-144h-430v650zM216 818h148l96 -118h-120l-48 52h-4l-48 -52h-120zM134 854q8 66 36.5 94t61.5 28q18 0 33 -5.5t27.5 -12.5t23.5 -12.5t21 -5.5q12 0 21 8t14 28h74q-8 -66 -36.5 -94t-61.5 -28q-18 0 -33 5.5
t-28 12.5t-23.5 12.5t-20.5 5.5q-12 0 -21 -8t-14 -28h-74z" />
    <glyph glyph-name="uni1EC6" unicode="&#x1ec6;" horiz-adv-x="556" 
d="M72 650h420v-144h-248v-102h212v-144h-212v-116h258v-144h-430v650zM110 700l96 124h168l96 -124h-130l-48 58h-4l-48 -58h-130zM294 -234q-41 0 -66.5 24t-25.5 62t25.5 62t66.5 24t66.5 -24t25.5 -62t-25.5 -62t-66.5 -24z" />
    <glyph glyph-name="Eogonek" unicode="&#x118;" horiz-adv-x="556" 
d="M72 650h420v-144h-248v-102h212v-144h-212v-116h258v-144h-6q-17 0 -32.5 -7.5t-27 -19.5t-18 -27t-6.5 -30q0 -18 12.5 -26t27.5 -8q9 0 18 4.5t16 9.5l38 -86q-21 -17 -53 -27.5t-61 -10.5q-51 0 -86.5 25.5t-35.5 72.5q0 24 8 44.5t20 37t26 28.5t26 20h-296v650z" />
    <glyph glyph-name="Gcircumflex" unicode="&#x11c;" horiz-adv-x="646" 
d="M44 320q0 82 26 145.5t71 107t104.5 66.5t126.5 23q69 0 121 -25.5t87 -60.5l-94 -106q-24 21 -48.5 32.5t-63.5 11.5q-33 0 -61 -13t-49 -37t-32.5 -59t-11.5 -79q0 -92 41 -141t129 -49q14 0 27.5 3t22.5 9v90h-96v140h248v-310q-36 -33 -95.5 -56.5t-128.5 -23.5
q-67 0 -126 20.5t-103 62t-69.5 104t-25.5 145.5zM192 700l96 124h168l96 -124h-130l-48 58h-4l-48 -58h-130z" />
    <glyph glyph-name="Gbreve" unicode="&#x11e;" horiz-adv-x="646" 
d="M44 320q0 82 26 145.5t71 107t104.5 66.5t126.5 23q69 0 121 -25.5t87 -60.5l-94 -106q-24 21 -48.5 32.5t-63.5 11.5q-33 0 -61 -13t-49 -37t-32.5 -59t-11.5 -79q0 -92 41 -141t129 -49q14 0 27.5 3t22.5 9v90h-96v140h248v-310q-36 -33 -95.5 -56.5t-128.5 -23.5
q-67 0 -126 20.5t-103 62t-69.5 104t-25.5 145.5zM372 700q-68 0 -102 32.5t-40 91.5h92q5 -18 16 -29t34 -11t34 11t16 29h92q-6 -59 -40 -91.5t-102 -32.5z" />
    <glyph glyph-name="Gdotaccent" unicode="&#x120;" horiz-adv-x="646" 
d="M44 320q0 82 26 145.5t71 107t104.5 66.5t126.5 23q69 0 121 -25.5t87 -60.5l-94 -106q-24 21 -48.5 32.5t-63.5 11.5q-33 0 -61 -13t-49 -37t-32.5 -59t-11.5 -79q0 -92 41 -141t129 -49q14 0 27.5 3t22.5 9v90h-96v140h248v-310q-36 -33 -95.5 -56.5t-128.5 -23.5
q-67 0 -126 20.5t-103 62t-69.5 104t-25.5 145.5zM372 696q-42 0 -69 24t-27 62t27 62t69 24t69 -24t27 -62t-27 -62t-69 -24z" />
    <glyph glyph-name="uni0122" unicode="&#x122;" horiz-adv-x="646" 
d="M44 320q0 82 26 145.5t71 107t104.5 66.5t126.5 23q69 0 121 -25.5t87 -60.5l-94 -106q-24 21 -48.5 32.5t-63.5 11.5q-33 0 -61 -13t-49 -37t-32.5 -59t-11.5 -79q0 -92 41 -141t129 -49q14 0 27.5 3t22.5 9v90h-96v140h248v-310q-36 -33 -95.5 -56.5t-128.5 -23.5
q-67 0 -126 20.5t-103 62t-69.5 104t-25.5 145.5zM330 -40q73 -6 101.5 -26.5t28.5 -59.5q0 -27 -15.5 -46.5t-41.5 -33t-60.5 -20.5t-72.5 -8l-12 66q35 3 57.5 10t22.5 24q0 12 -8.5 20t-31.5 14l32 60v0z" />
    <glyph glyph-name="Gcaron" unicode="&#x1e6;" horiz-adv-x="646" 
d="M44 320q0 82 26 145.5t71 107t104.5 66.5t126.5 23q69 0 121 -25.5t87 -60.5l-94 -106q-24 21 -48.5 32.5t-63.5 11.5q-33 0 -61 -13t-49 -37t-32.5 -59t-11.5 -79q0 -92 41 -141t129 -49q14 0 27.5 3t22.5 9v90h-96v140h248v-310q-36 -33 -95.5 -56.5t-128.5 -23.5
q-67 0 -126 20.5t-103 62t-69.5 104t-25.5 145.5zM552 824l-96 -124h-168l-96 124h130l48 -58h4l48 58h130z" />
    <glyph glyph-name="uni1E20" unicode="&#x1e20;" horiz-adv-x="646" 
d="M44 320q0 82 26 145.5t71 107t104.5 66.5t126.5 23q69 0 121 -25.5t87 -60.5l-94 -106q-24 21 -48.5 32.5t-63.5 11.5q-33 0 -61 -13t-49 -37t-32.5 -59t-11.5 -79q0 -92 41 -141t129 -49q14 0 27.5 3t22.5 9v90h-96v140h248v-310q-36 -33 -95.5 -56.5t-128.5 -23.5
q-67 0 -126 20.5t-103 62t-69.5 104t-25.5 145.5zM224 824h296v-108h-296v108z" />
    <glyph glyph-name="uni00470303" horiz-adv-x="646" 
d="M44 320q0 82 26 145.5t71 107t104.5 66.5t126.5 23q69 0 121 -25.5t87 -60.5l-94 -106q-24 21 -48.5 32.5t-63.5 11.5q-33 0 -61 -13t-49 -37t-32.5 -59t-11.5 -79q0 -92 41 -141t129 -49q14 0 27.5 3t22.5 9v90h-96v140h248v-310q-36 -33 -95.5 -56.5t-128.5 -23.5
q-67 0 -126 20.5t-103 62t-69.5 104t-25.5 145.5zM436 700q-20 0 -37.5 6.5t-32.5 14.5t-27.5 14.5t-22.5 6.5q-12 0 -22 -9t-16 -33h-86q9 76 42 111t74 35q20 0 37.5 -6.5t32.5 -14.5t27 -14.5t23 -6.5q12 0 22 9t16 33h86q-5 -38 -16 -65.5t-26.5 -45.5t-34.5 -26.5
t-39 -8.5z" />
    <glyph glyph-name="Hcircumflex" unicode="&#x124;" horiz-adv-x="682" 
d="M72 650h172v-242h194v242h172v-650h-172v258h-194v-258h-172v650zM160 700l96 124h168l96 -124h-130l-48 58h-4l-48 -58h-130z" />
    <glyph glyph-name="uni1E24" unicode="&#x1e24;" horiz-adv-x="682" 
d="M72 650h172v-242h194v242h172v-650h-172v258h-194v-258h-172v650zM340 -234q-41 0 -66.5 24t-25.5 62t25.5 62t66.5 24t66.5 -24t25.5 -62t-25.5 -62t-66.5 -24z" />
    <glyph glyph-name="uni1E2A" unicode="&#x1e2a;" horiz-adv-x="682" 
d="M72 650h172v-242h194v242h172v-650h-172v258h-194v-258h-172v650zM340 -212q-36 0 -62.5 11.5t-44.5 31t-27 46t-10 55.5h94q3 -23 15 -37.5t35 -14.5t35 14.5t15 37.5h94q-1 -29 -10 -55.5t-27 -46t-44.5 -31t-62.5 -11.5z" />
    <glyph glyph-name="Hbar" unicode="&#x126;" horiz-adv-x="722" 
d="M458 484h-194v-76h194v76zM700 484h-70v-484h-172v258h-194v-258h-172v484h-70v74l70 6v86h172v-86h194v86h172v-86h70v-80z" />
    <glyph glyph-name="Igrave" unicode="&#xcc;" horiz-adv-x="316" 
d="M72 650h172v-650h-172v650zM-16 824h180l78 -124h-136z" />
    <glyph glyph-name="Iacute" unicode="&#xcd;" horiz-adv-x="316" 
d="M72 650h172v-650h-172v650zM210 700h-136l78 124h180z" />
    <glyph glyph-name="Icircumflex" unicode="&#xce;" horiz-adv-x="316" 
d="M72 650h172v-650h-172v650zM-22 700l96 124h168l96 -124h-130l-48 58h-4l-48 -58h-130z" />
    <glyph glyph-name="Itilde" unicode="&#x128;" horiz-adv-x="316" 
d="M72 650h172v-650h-172v650zM222 700q-20 0 -37.5 6.5t-32.5 14.5t-27.5 14.5t-22.5 6.5q-12 0 -22 -9t-16 -33h-86q9 76 42 111t74 35q20 0 37.5 -6.5t32.5 -14.5t27 -14.5t23 -6.5q12 0 22 9t16 33h86q-5 -38 -16 -65.5t-26.5 -45.5t-34.5 -26.5t-39 -8.5z" />
    <glyph glyph-name="Idieresis" unicode="&#xcf;" horiz-adv-x="316" 
d="M72 650h172v-650h-172v650zM54 694q-35 0 -56.5 22.5t-21.5 55.5t21.5 55.5t56.5 22.5t56.5 -22.5t21.5 -55.5t-21.5 -55.5t-56.5 -22.5zM262 694q-35 0 -56.5 22.5t-21.5 55.5t21.5 55.5t56.5 22.5t56.5 -22.5t21.5 -55.5t-21.5 -55.5t-56.5 -22.5z" />
    <glyph glyph-name="Imacron" unicode="&#x12a;" horiz-adv-x="316" 
d="M72 650h172v-650h-172v650zM10 824h296v-108h-296v108z" />
    <glyph glyph-name="Idotaccent" unicode="&#x130;" horiz-adv-x="316" 
d="M72 650h172v-650h-172v650zM158 696q-42 0 -69 24t-27 62t27 62t69 24t69 -24t27 -62t-27 -62t-69 -24z" />
    <glyph glyph-name="uni01CF" unicode="&#x1cf;" horiz-adv-x="316" 
d="M72 650h172v-650h-172v650zM338 824l-96 -124h-168l-96 124h130l48 -58h4l48 58h130z" />
    <glyph glyph-name="uni1EC8" unicode="&#x1ec8;" horiz-adv-x="316" 
d="M72 650h172v-650h-172v650zM108 754q17 2 28.5 7t11.5 17t-17 19.5t-61 10.5l20 84q52 -2 86.5 -9.5t55.5 -20t29.5 -29.5t8.5 -37q0 -27 -12 -46.5t-32.5 -33t-47.5 -20.5t-58 -8z" />
    <glyph glyph-name="uni1ECA" unicode="&#x1eca;" horiz-adv-x="316" 
d="M72 650h172v-650h-172v650zM158 -234q-41 0 -66.5 24t-25.5 62t25.5 62t66.5 24t66.5 -24t25.5 -62t-25.5 -62t-66.5 -24z" />
    <glyph glyph-name="Iogonek" unicode="&#x12e;" horiz-adv-x="316" 
d="M72 650h172v-650q-44 -14 -61 -37t-17 -47q0 -18 12.5 -26t26.5 -8q10 0 19.5 4.5t15.5 9.5l38 -86q-21 -17 -53 -27.5t-61 -10.5q-51 0 -86.5 25.5t-35.5 72.5q0 25 8 45.5t20 37t25 28.5t24 19h-47v650z" />
    <glyph glyph-name="Jcircumflex" unicode="&#x134;" horiz-adv-x="520" 
d="M126 198q17 -32 39 -47t43 -15q17 0 30.5 4.5t22.5 16.5t14 32t5 51v410h172v-424q0 -49 -13.5 -92t-40.5 -75.5t-68.5 -51.5t-97.5 -19q-80 0 -133 30t-89 93zM184 700l96 124h168l96 -124h-130l-48 58h-4l-48 -58h-130z" />
    <glyph glyph-name="uni0136" unicode="&#x136;" horiz-adv-x="628" 
d="M72 650h172v-242h4l164 242h188l-194 -264l232 -386h-188l-144 250l-62 -88v-162h-172v650zM296 -40q73 -6 101.5 -26.5t28.5 -59.5q0 -27 -15.5 -46.5t-41.5 -33t-60.5 -20.5t-72.5 -8l-12 66q35 3 57.5 10t22.5 24q0 12 -8.5 20t-31.5 14l32 60v0z" />
    <glyph glyph-name="Lacute" unicode="&#x139;" horiz-adv-x="530" 
d="M72 650h172v-506h246v-144h-418v650zM214 700h-136l78 124h180z" />
    <glyph glyph-name="Lcaron" unicode="&#x13d;" horiz-adv-x="530" 
d="M72 650h172v-506h246v-144h-418v650zM360 509l-6 226h108l-2 -74l-28 -152h-72z" />
    <glyph glyph-name="uni013B" unicode="&#x13b;" horiz-adv-x="530" 
d="M72 650h172v-506h246v-144h-418v650zM253 -40q73 -6 101.5 -26.5t28.5 -59.5q0 -27 -15.5 -46.5t-41.5 -33t-60.5 -20.5t-72.5 -8l-12 66q35 3 57.5 10t22.5 24q0 12 -8.5 20t-31.5 14l32 60v0z" />
    <glyph glyph-name="Ldot" unicode="&#x13f;" horiz-adv-x="530" 
d="M72 650h172v-506h246v-144h-418v650zM323 330q0 44 28 74t72 30t72 -30t28 -74t-28 -74t-72 -30t-72 30t-28 74z" />
    <glyph glyph-name="uni1E36" unicode="&#x1e36;" horiz-adv-x="530" 
d="M72 650h172v-506h246v-144h-418v650zM291 -234q-41 0 -66.5 24t-25.5 62t25.5 62t66.5 24t66.5 -24t25.5 -62t-25.5 -62t-66.5 -24z" />
    <glyph glyph-name="uni1E38" unicode="&#x1e38;" horiz-adv-x="530" 
d="M72 650h172v-506h246v-144h-418v650zM14 824h296v-108h-296v108zM291 -234q-41 0 -66.5 24t-25.5 62t25.5 62t66.5 24t66.5 -24t25.5 -62t-25.5 -62t-66.5 -24z" />
    <glyph glyph-name="uni1E3A" unicode="&#x1e3a;" horiz-adv-x="530" 
d="M72 650h172v-506h246v-144h-418v650zM435 -196h-288v108h288v-108z" />
    <glyph glyph-name="Lslash" unicode="&#x141;" horiz-adv-x="538" 
d="M498 144v-144h-418v198l-70 -42v132l70 42v320h172v-240l168 94v-132l-168 -94v-134h246z" />
    <glyph glyph-name="uni1E42" unicode="&#x1e42;" horiz-adv-x="776" 
d="M72 650h178l102 -270l36 -106h4l36 106l98 270h178v-650h-160v192q0 25 2.5 55t5.5 61.5t7 61.5t7 54h-4l-54 -152l-90 -219h-64l-90 219l-52 152h-4q3 -24 7 -54t7 -61.5t5.5 -61.5t2.5 -55v-192h-158v650zM390 -234q-41 0 -66.5 24t-25.5 62t25.5 62t66.5 24t66.5 -24
t25.5 -62t-25.5 -62t-66.5 -24z" />
    <glyph glyph-name="Nacute" unicode="&#x143;" horiz-adv-x="672" 
d="M72 650h176l144 -290l62 -146h4q-3 26 -7 57t-7 63.5t-5.5 65t-2.5 62.5v188h164v-650h-176l-144 291l-62 145h-4q6 -56 14 -122t8 -126v-188h-164v650zM388 700h-136l78 124h180z" />
    <glyph glyph-name="Ncaron" unicode="&#x147;" horiz-adv-x="672" 
d="M72 650h176l144 -290l62 -146h4q-3 26 -7 57t-7 63.5t-5.5 65t-2.5 62.5v188h164v-650h-176l-144 291l-62 145h-4q6 -56 14 -122t8 -126v-188h-164v650zM516 824l-96 -124h-168l-96 124h130l48 -58h4l48 58h130z" />
    <glyph glyph-name="Ntilde" unicode="&#xd1;" horiz-adv-x="672" 
d="M72 650h176l144 -290l62 -146h4q-3 26 -7 57t-7 63.5t-5.5 65t-2.5 62.5v188h164v-650h-176l-144 291l-62 145h-4q6 -56 14 -122t8 -126v-188h-164v650zM400 700q-20 0 -37.5 6.5t-32.5 14.5t-27.5 14.5t-22.5 6.5q-12 0 -22 -9t-16 -33h-86q9 76 42 111t74 35
q20 0 37.5 -6.5t32.5 -14.5t27 -14.5t23 -6.5q12 0 22 9t16 33h86q-5 -38 -16 -65.5t-26.5 -45.5t-34.5 -26.5t-39 -8.5z" />
    <glyph glyph-name="uni0145" unicode="&#x145;" horiz-adv-x="672" 
d="M72 650h176l144 -290l62 -146h4q-3 26 -7 57t-7 63.5t-5.5 65t-2.5 62.5v188h164v-650h-176l-144 291l-62 145h-4q6 -56 14 -122t8 -126v-188h-164v650zM312 -40q73 -6 101.5 -26.5t28.5 -59.5q0 -27 -15.5 -46.5t-41.5 -33t-60.5 -20.5t-72.5 -8l-12 66q35 3 57.5 10
t22.5 24q0 12 -8.5 20t-31.5 14l32 60v0z" />
    <glyph glyph-name="uni1E44" unicode="&#x1e44;" horiz-adv-x="672" 
d="M72 650h176l144 -290l62 -146h4q-3 26 -7 57t-7 63.5t-5.5 65t-2.5 62.5v188h164v-650h-176l-144 291l-62 145h-4q6 -56 14 -122t8 -126v-188h-164v650zM336 696q-42 0 -69 24t-27 62t27 62t69 24t69 -24t27 -62t-27 -62t-69 -24z" />
    <glyph glyph-name="uni1E46" unicode="&#x1e46;" horiz-adv-x="672" 
d="M72 650h176l144 -290l62 -146h4q-3 26 -7 57t-7 63.5t-5.5 65t-2.5 62.5v188h164v-650h-176l-144 291l-62 145h-4q6 -56 14 -122t8 -126v-188h-164v650zM350 -234q-41 0 -66.5 24t-25.5 62t25.5 62t66.5 24t66.5 -24t25.5 -62t-25.5 -62t-66.5 -24z" />
    <glyph glyph-name="uni1E48" unicode="&#x1e48;" horiz-adv-x="672" 
d="M72 650h176l144 -290l62 -146h4q-3 26 -7 57t-7 63.5t-5.5 65t-2.5 62.5v188h164v-650h-176l-144 291l-62 145h-4q6 -56 14 -122t8 -126v-188h-164v650zM494 -196h-288v108h288v-108z" />
    <glyph glyph-name="Ograve" unicode="&#xd2;" horiz-adv-x="692" 
d="M346 -12q-68 0 -123.5 23t-95 66.5t-61.5 107t-22 143.5t22 142.5t61.5 105t95 64.5t123.5 22q67 0 123 -22t95.5 -65t61.5 -105t22 -142t-22 -143.5t-61.5 -107t-95.5 -66.5t-123 -23zM346 136q59 0 92.5 51.5t33.5 140.5t-33.5 137.5t-92.5 48.5t-92.5 -48.5
t-33.5 -137.5t33.5 -140.5t92.5 -51.5zM172 824h180l78 -124h-136z" />
    <glyph glyph-name="Oacute" unicode="&#xd3;" horiz-adv-x="692" 
d="M346 -12q-68 0 -123.5 23t-95 66.5t-61.5 107t-22 143.5t22 142.5t61.5 105t95 64.5t123.5 22q67 0 123 -22t95.5 -65t61.5 -105t22 -142t-22 -143.5t-61.5 -107t-95.5 -66.5t-123 -23zM346 136q59 0 92.5 51.5t33.5 140.5t-33.5 137.5t-92.5 48.5t-92.5 -48.5
t-33.5 -137.5t33.5 -140.5t92.5 -51.5zM398 700h-136l78 124h180z" />
    <glyph glyph-name="Ocircumflex" unicode="&#xd4;" horiz-adv-x="692" 
d="M346 -12q-68 0 -123.5 23t-95 66.5t-61.5 107t-22 143.5t22 142.5t61.5 105t95 64.5t123.5 22q67 0 123 -22t95.5 -65t61.5 -105t22 -142t-22 -143.5t-61.5 -107t-95.5 -66.5t-123 -23zM346 136q59 0 92.5 51.5t33.5 140.5t-33.5 137.5t-92.5 48.5t-92.5 -48.5
t-33.5 -137.5t33.5 -140.5t92.5 -51.5zM166 700l96 124h168l96 -124h-130l-48 58h-4l-48 -58h-130z" />
    <glyph glyph-name="Otilde" unicode="&#xd5;" horiz-adv-x="692" 
d="M346 -12q-68 0 -123.5 23t-95 66.5t-61.5 107t-22 143.5t22 142.5t61.5 105t95 64.5t123.5 22q67 0 123 -22t95.5 -65t61.5 -105t22 -142t-22 -143.5t-61.5 -107t-95.5 -66.5t-123 -23zM346 136q59 0 92.5 51.5t33.5 140.5t-33.5 137.5t-92.5 48.5t-92.5 -48.5
t-33.5 -137.5t33.5 -140.5t92.5 -51.5zM410 700q-20 0 -37.5 6.5t-32.5 14.5t-27.5 14.5t-22.5 6.5q-12 0 -22 -9t-16 -33h-86q9 76 42 111t74 35q20 0 37.5 -6.5t32.5 -14.5t27 -14.5t23 -6.5q12 0 22 9t16 33h86q-5 -38 -16 -65.5t-26.5 -45.5t-34.5 -26.5t-39 -8.5z" />
    <glyph glyph-name="Odieresis" unicode="&#xd6;" horiz-adv-x="692" 
d="M346 -12q-68 0 -123.5 23t-95 66.5t-61.5 107t-22 143.5t22 142.5t61.5 105t95 64.5t123.5 22q67 0 123 -22t95.5 -65t61.5 -105t22 -142t-22 -143.5t-61.5 -107t-95.5 -66.5t-123 -23zM346 136q59 0 92.5 51.5t33.5 140.5t-33.5 137.5t-92.5 48.5t-92.5 -48.5
t-33.5 -137.5t33.5 -140.5t92.5 -51.5zM242 694q-35 0 -56.5 22.5t-21.5 55.5t21.5 55.5t56.5 22.5t56.5 -22.5t21.5 -55.5t-21.5 -55.5t-56.5 -22.5zM450 694q-35 0 -56.5 22.5t-21.5 55.5t21.5 55.5t56.5 22.5t56.5 -22.5t21.5 -55.5t-21.5 -55.5t-56.5 -22.5z" />
    <glyph glyph-name="Omacron" unicode="&#x14c;" horiz-adv-x="692" 
d="M346 -12q-68 0 -123.5 23t-95 66.5t-61.5 107t-22 143.5t22 142.5t61.5 105t95 64.5t123.5 22q67 0 123 -22t95.5 -65t61.5 -105t22 -142t-22 -143.5t-61.5 -107t-95.5 -66.5t-123 -23zM346 136q59 0 92.5 51.5t33.5 140.5t-33.5 137.5t-92.5 48.5t-92.5 -48.5
t-33.5 -137.5t33.5 -140.5t92.5 -51.5zM198 824h296v-108h-296v108z" />
    <glyph glyph-name="Ohungarumlaut" unicode="&#x150;" horiz-adv-x="692" 
d="M346 -12q-68 0 -123.5 23t-95 66.5t-61.5 107t-22 143.5t22 142.5t61.5 105t95 64.5t123.5 22q67 0 123 -22t95.5 -65t61.5 -105t22 -142t-22 -143.5t-61.5 -107t-95.5 -66.5t-123 -23zM346 136q59 0 92.5 51.5t33.5 140.5t-33.5 137.5t-92.5 48.5t-92.5 -48.5
t-33.5 -137.5t33.5 -140.5t92.5 -51.5zM198 700l62 124h144l-92 -124h-114zM448 824h144l-92 -124h-114z" />
    <glyph glyph-name="uni01D1" unicode="&#x1d1;" horiz-adv-x="692" 
d="M346 -12q-68 0 -123.5 23t-95 66.5t-61.5 107t-22 143.5t22 142.5t61.5 105t95 64.5t123.5 22q67 0 123 -22t95.5 -65t61.5 -105t22 -142t-22 -143.5t-61.5 -107t-95.5 -66.5t-123 -23zM346 136q59 0 92.5 51.5t33.5 140.5t-33.5 137.5t-92.5 48.5t-92.5 -48.5
t-33.5 -137.5t33.5 -140.5t92.5 -51.5zM526 824l-96 -124h-168l-96 124h130l48 -58h4l48 58h130z" />
    <glyph glyph-name="uni1ECC" unicode="&#x1ecc;" horiz-adv-x="692" 
d="M346 -12q-68 0 -123.5 23t-95 66.5t-61.5 107t-22 143.5t22 142.5t61.5 105t95 64.5t123.5 22q67 0 123 -22t95.5 -65t61.5 -105t22 -142t-22 -143.5t-61.5 -107t-95.5 -66.5t-123 -23zM346 136q59 0 92.5 51.5t33.5 140.5t-33.5 137.5t-92.5 48.5t-92.5 -48.5
t-33.5 -137.5t33.5 -140.5t92.5 -51.5zM346 -234q-41 0 -66.5 24t-25.5 62t25.5 62t66.5 24t66.5 -24t25.5 -62t-25.5 -62t-66.5 -24z" />
    <glyph glyph-name="uni1ECE" unicode="&#x1ece;" horiz-adv-x="692" 
d="M346 -12q-68 0 -123.5 23t-95 66.5t-61.5 107t-22 143.5t22 142.5t61.5 105t95 64.5t123.5 22q67 0 123 -22t95.5 -65t61.5 -105t22 -142t-22 -143.5t-61.5 -107t-95.5 -66.5t-123 -23zM346 136q59 0 92.5 51.5t33.5 140.5t-33.5 137.5t-92.5 48.5t-92.5 -48.5
t-33.5 -137.5t33.5 -140.5t92.5 -51.5zM296 754q17 2 28.5 7t11.5 17t-17 19.5t-61 10.5l20 84q52 -2 86.5 -9.5t55.5 -20t29.5 -29.5t8.5 -37q0 -27 -12 -46.5t-32.5 -33t-47.5 -20.5t-58 -8z" />
    <glyph glyph-name="uni1ED0" unicode="&#x1ed0;" horiz-adv-x="692" 
d="M346 -12q-68 0 -123.5 23t-95 66.5t-61.5 107t-22 143.5t22 142.5t61.5 105t95 64.5t123.5 22q67 0 123 -22t95.5 -65t61.5 -105t22 -142t-22 -143.5t-61.5 -107t-95.5 -66.5t-123 -23zM346 136q59 0 92.5 51.5t33.5 140.5t-33.5 137.5t-92.5 48.5t-92.5 -48.5
t-33.5 -137.5t33.5 -140.5t92.5 -51.5zM535 894h130l-102 -124h-96zM272 818h148l96 -118h-120l-48 52h-4l-48 -52h-120z" />
    <glyph glyph-name="uni1ED2" unicode="&#x1ed2;" horiz-adv-x="692" 
d="M346 -12q-68 0 -123.5 23t-95 66.5t-61.5 107t-22 143.5t22 142.5t61.5 105t95 64.5t123.5 22q67 0 123 -22t95.5 -65t61.5 -105t22 -142t-22 -143.5t-61.5 -107t-95.5 -66.5t-123 -23zM346 136q59 0 92.5 51.5t33.5 140.5t-33.5 137.5t-92.5 48.5t-92.5 -48.5
t-33.5 -137.5t33.5 -140.5t92.5 -51.5zM605 770h-96l-102 124h130zM272 818h148l96 -118h-120l-48 52h-4l-48 -52h-120z" />
    <glyph glyph-name="uni1ED4" unicode="&#x1ed4;" horiz-adv-x="692" 
d="M346 -12q-68 0 -123.5 23t-95 66.5t-61.5 107t-22 143.5t22 142.5t61.5 105t95 64.5t123.5 22q67 0 123 -22t95.5 -65t61.5 -105t22 -142t-22 -143.5t-61.5 -107t-95.5 -66.5t-123 -23zM346 136q59 0 92.5 51.5t33.5 140.5t-33.5 137.5t-92.5 48.5t-92.5 -48.5
t-33.5 -137.5t33.5 -140.5t92.5 -51.5zM480 800q12 2 20 7t8 17t-13 19.5t-51 10.5l16 68q46 -2 76 -9t48 -18t25 -26t7 -31q0 -47 -35.5 -67t-88.5 -23zM272 818h148l96 -118h-120l-48 52h-4l-48 -52h-120z" />
    <glyph glyph-name="uni1ED6" unicode="&#x1ed6;" horiz-adv-x="692" 
d="M346 -12q-68 0 -123.5 23t-95 66.5t-61.5 107t-22 143.5t22 142.5t61.5 105t95 64.5t123.5 22q67 0 123 -22t95.5 -65t61.5 -105t22 -142t-22 -143.5t-61.5 -107t-95.5 -66.5t-123 -23zM346 136q59 0 92.5 51.5t33.5 140.5t-33.5 137.5t-92.5 48.5t-92.5 -48.5
t-33.5 -137.5t33.5 -140.5t92.5 -51.5zM272 818h148l96 -118h-120l-48 52h-4l-48 -52h-120zM190 854q8 66 36.5 94t61.5 28q18 0 33 -5.5t27.5 -12.5t23.5 -12.5t21 -5.5q12 0 21 8t14 28h74q-8 -66 -36.5 -94t-61.5 -28q-18 0 -33 5.5t-28 12.5t-23.5 12.5t-20.5 5.5
q-12 0 -21 -8t-14 -28h-74z" />
    <glyph glyph-name="uni1ED8" unicode="&#x1ed8;" horiz-adv-x="692" 
d="M346 -12q-68 0 -123.5 23t-95 66.5t-61.5 107t-22 143.5t22 142.5t61.5 105t95 64.5t123.5 22q67 0 123 -22t95.5 -65t61.5 -105t22 -142t-22 -143.5t-61.5 -107t-95.5 -66.5t-123 -23zM346 136q59 0 92.5 51.5t33.5 140.5t-33.5 137.5t-92.5 48.5t-92.5 -48.5
t-33.5 -137.5t33.5 -140.5t92.5 -51.5zM166 700l96 124h168l96 -124h-130l-48 58h-4l-48 -58h-130zM346 -234q-41 0 -66.5 24t-25.5 62t25.5 62t66.5 24t66.5 -24t25.5 -62t-25.5 -62t-66.5 -24z" />
    <glyph glyph-name="Oslash" unicode="&#xd8;" horiz-adv-x="692" 
d="M287 153q26 -17 59 -17q59 0 92.5 51.5t33.5 140.5q0 26 -3 47zM418 488q-31 26 -72 26q-59 0 -92.5 -48.5t-33.5 -137.5q0 -42 7 -73zM597 532q25 -40 38 -91t13 -113q0 -80 -22 -143.5t-61.5 -107t-95.5 -66.5t-123 -23q-93 0 -160 42l-62 -76l-88 68l69 84
q-29 42 -45 97.5t-16 124.5q0 80 22 142.5t61.5 105t95 64.5t123.5 22q100 0 174 -49l68 83l88 -68z" />
    <glyph glyph-name="OE" unicode="&#x152;" horiz-adv-x="880" 
d="M44 328q0 86 26.5 147t72.5 100t108 57t133 18h432v-144h-236v-102h200v-144h-200v-116h246v-144h-452q-68 0 -128 19t-105 59t-71 102t-26 148zM220 328q0 -58 13.5 -95t37 -58t55.5 -29t68 -8h14v374h-14q-36 0 -68 -7t-55.5 -27t-37 -56t-13.5 -94z" />
    <glyph glyph-name="Ohorn" unicode="&#x1a0;" horiz-adv-x="692" 
d="M346 136q59 0 92.5 51.5t33.5 140.5t-33.5 137.5t-92.5 48.5t-92.5 -48.5t-33.5 -137.5t33.5 -140.5t92.5 -51.5zM640 788q12 -14 22 -36.5t10 -49.5q0 -52 -29.5 -82t-79.5 -44q41 -43 63 -105t22 -143q0 -80 -22 -143.5t-61.5 -107t-95.5 -66.5t-123 -23
q-68 0 -123.5 23t-95 66.5t-61.5 107t-22 143.5t22 142.5t61.5 105t95 64.5t123.5 22q79 0 143 -31q24 8 37.5 19.5t13.5 39.5q0 15 -5.5 27.5t-10.5 20.5z" />
    <glyph glyph-name="uni1EDA" unicode="&#x1eda;" horiz-adv-x="692" 
d="M346 136q59 0 92.5 51.5t33.5 140.5t-33.5 137.5t-92.5 48.5t-92.5 -48.5t-33.5 -137.5t33.5 -140.5t92.5 -51.5zM640 788q12 -14 22 -36.5t10 -49.5q0 -52 -29.5 -82t-79.5 -44q41 -43 63 -105t22 -143q0 -80 -22 -143.5t-61.5 -107t-95.5 -66.5t-123 -23
q-68 0 -123.5 23t-95 66.5t-61.5 107t-22 143.5t22 142.5t61.5 105t95 64.5t123.5 22q79 0 143 -31q24 8 37.5 19.5t13.5 39.5q0 15 -5.5 27.5t-10.5 20.5zM398 700h-136l78 124h180z" />
    <glyph glyph-name="uni1EDC" unicode="&#x1edc;" horiz-adv-x="692" 
d="M346 136q59 0 92.5 51.5t33.5 140.5t-33.5 137.5t-92.5 48.5t-92.5 -48.5t-33.5 -137.5t33.5 -140.5t92.5 -51.5zM640 788q12 -14 22 -36.5t10 -49.5q0 -52 -29.5 -82t-79.5 -44q41 -43 63 -105t22 -143q0 -80 -22 -143.5t-61.5 -107t-95.5 -66.5t-123 -23
q-68 0 -123.5 23t-95 66.5t-61.5 107t-22 143.5t22 142.5t61.5 105t95 64.5t123.5 22q79 0 143 -31q24 8 37.5 19.5t13.5 39.5q0 15 -5.5 27.5t-10.5 20.5zM172 824h180l78 -124h-136z" />
    <glyph glyph-name="uni1EDE" unicode="&#x1ede;" horiz-adv-x="692" 
d="M346 136q59 0 92.5 51.5t33.5 140.5t-33.5 137.5t-92.5 48.5t-92.5 -48.5t-33.5 -137.5t33.5 -140.5t92.5 -51.5zM640 788q12 -14 22 -36.5t10 -49.5q0 -52 -29.5 -82t-79.5 -44q41 -43 63 -105t22 -143q0 -80 -22 -143.5t-61.5 -107t-95.5 -66.5t-123 -23
q-68 0 -123.5 23t-95 66.5t-61.5 107t-22 143.5t22 142.5t61.5 105t95 64.5t123.5 22q79 0 143 -31q24 8 37.5 19.5t13.5 39.5q0 15 -5.5 27.5t-10.5 20.5zM296 754q17 2 28.5 7t11.5 17t-17 19.5t-61 10.5l20 84q52 -2 86.5 -9.5t55.5 -20t29.5 -29.5t8.5 -37
q0 -27 -12 -46.5t-32.5 -33t-47.5 -20.5t-58 -8z" />
    <glyph glyph-name="uni1EE0" unicode="&#x1ee0;" horiz-adv-x="692" 
d="M346 136q59 0 92.5 51.5t33.5 140.5t-33.5 137.5t-92.5 48.5t-92.5 -48.5t-33.5 -137.5t33.5 -140.5t92.5 -51.5zM640 788q12 -14 22 -36.5t10 -49.5q0 -52 -29.5 -82t-79.5 -44q41 -43 63 -105t22 -143q0 -80 -22 -143.5t-61.5 -107t-95.5 -66.5t-123 -23
q-68 0 -123.5 23t-95 66.5t-61.5 107t-22 143.5t22 142.5t61.5 105t95 64.5t123.5 22q79 0 143 -31q24 8 37.5 19.5t13.5 39.5q0 15 -5.5 27.5t-10.5 20.5zM410 700q-20 0 -37.5 6.5t-32.5 14.5t-27.5 14.5t-22.5 6.5q-12 0 -22 -9t-16 -33h-86q9 76 42 111t74 35
q20 0 37.5 -6.5t32.5 -14.5t27 -14.5t23 -6.5q12 0 22 9t16 33h86q-5 -38 -16 -65.5t-26.5 -45.5t-34.5 -26.5t-39 -8.5z" />
    <glyph glyph-name="uni1EE2" unicode="&#x1ee2;" horiz-adv-x="692" 
d="M346 136q59 0 92.5 51.5t33.5 140.5t-33.5 137.5t-92.5 48.5t-92.5 -48.5t-33.5 -137.5t33.5 -140.5t92.5 -51.5zM640 788q12 -14 22 -36.5t10 -49.5q0 -52 -29.5 -82t-79.5 -44q41 -43 63 -105t22 -143q0 -80 -22 -143.5t-61.5 -107t-95.5 -66.5t-123 -23
q-68 0 -123.5 23t-95 66.5t-61.5 107t-22 143.5t22 142.5t61.5 105t95 64.5t123.5 22q79 0 143 -31q24 8 37.5 19.5t13.5 39.5q0 15 -5.5 27.5t-10.5 20.5zM346 -234q-41 0 -66.5 24t-25.5 62t25.5 62t66.5 24t66.5 -24t25.5 -62t-25.5 -62t-66.5 -24z" />
    <glyph glyph-name="uni01EA" unicode="&#x1ea;" horiz-adv-x="692" 
d="M248 -130q0 41 21.5 71.5t42.5 48.5q-62 6 -111.5 31.5t-84 69t-53.5 103t-19 134.5q0 80 22 142.5t61.5 105t95 64.5t123.5 22q67 0 123 -22t95.5 -65t61.5 -105t22 -142q0 -70 -14.5 -122.5t-41.5 -91.5t-65.5 -67.5t-86.5 -50.5q-36 -17 -52 -38.5t-16 -41.5
q0 -18 12.5 -26t27.5 -8q9 0 18 4.5t16 9.5l38 -86q-21 -17 -53 -27.5t-61 -10.5q-51 0 -86.5 25.5t-35.5 72.5zM346 136q59 0 92.5 51.5t33.5 140.5t-33.5 137.5t-92.5 48.5t-92.5 -48.5t-33.5 -137.5t33.5 -140.5t92.5 -51.5z" />
    <glyph glyph-name="Racute" unicode="&#x154;" horiz-adv-x="630" 
d="M244 354h62q104 0 104 86q0 42 -26.5 58t-77.5 16h-62v-160zM422 0l-112 218h-66v-218h-172v650h246q52 0 99.5 -10t83 -34t56.5 -64.5t21 -101.5q0 -70 -28.5 -116t-76.5 -72l141 -252h-192zM368 700h-136l78 124h180z" />
    <glyph glyph-name="Rcaron" unicode="&#x158;" horiz-adv-x="630" 
d="M244 354h62q104 0 104 86q0 42 -26.5 58t-77.5 16h-62v-160zM422 0l-112 218h-66v-218h-172v650h246q52 0 99.5 -10t83 -34t56.5 -64.5t21 -101.5q0 -70 -28.5 -116t-76.5 -72l141 -252h-192zM496 824l-96 -124h-168l-96 124h130l48 -58h4l48 58h130z" />
    <glyph glyph-name="uni0156" unicode="&#x156;" horiz-adv-x="630" 
d="M244 354h62q104 0 104 86q0 42 -26.5 58t-77.5 16h-62v-160zM422 0l-112 218h-66v-218h-172v650h246q52 0 99.5 -10t83 -34t56.5 -64.5t21 -101.5q0 -70 -28.5 -116t-76.5 -72l141 -252h-192zM296 -40q73 -6 101.5 -26.5t28.5 -59.5q0 -27 -15.5 -46.5t-41.5 -33
t-60.5 -20.5t-72.5 -8l-12 66q35 3 57.5 10t22.5 24q0 12 -8.5 20t-31.5 14l32 60v0z" />
    <glyph glyph-name="uni1E5A" unicode="&#x1e5a;" horiz-adv-x="630" 
d="M244 354h62q104 0 104 86q0 42 -26.5 58t-77.5 16h-62v-160zM422 0l-112 218h-66v-218h-172v650h246q52 0 99.5 -10t83 -34t56.5 -64.5t21 -101.5q0 -70 -28.5 -116t-76.5 -72l141 -252h-192zM334 -234q-41 0 -66.5 24t-25.5 62t25.5 62t66.5 24t66.5 -24t25.5 -62
t-25.5 -62t-66.5 -24z" />
    <glyph glyph-name="uni1E5C" unicode="&#x1e5c;" horiz-adv-x="630" 
d="M244 354h62q104 0 104 86q0 42 -26.5 58t-77.5 16h-62v-160zM422 0l-112 218h-66v-218h-172v650h246q52 0 99.5 -10t83 -34t56.5 -64.5t21 -101.5q0 -70 -28.5 -116t-76.5 -72l141 -252h-192zM168 824h296v-108h-296v108zM334 -234q-41 0 -66.5 24t-25.5 62t25.5 62
t66.5 24t66.5 -24t25.5 -62t-25.5 -62t-66.5 -24z" />
    <glyph glyph-name="uni1E5E" unicode="&#x1e5e;" horiz-adv-x="630" 
d="M244 354h62q104 0 104 86q0 42 -26.5 58t-77.5 16h-62v-160zM422 0l-112 218h-66v-218h-172v650h246q52 0 99.5 -10t83 -34t56.5 -64.5t21 -101.5q0 -70 -28.5 -116t-76.5 -72l141 -252h-192zM478 -196h-288v108h288v-108z" />
    <glyph glyph-name="Sacute" unicode="&#x15a;" horiz-adv-x="564" 
d="M130 199q35 -28 75.5 -45.5t76.5 -17.5q39 0 56.5 12t17.5 34q0 12 -6 20t-17.5 15t-27.5 13.5t-37 14.5l-81 34q-26 10 -50 26.5t-42 39t-28.5 51.5t-10.5 64q0 42 18 78.5t50 64t76.5 43.5t97.5 16q56 0 113.5 -21t102.5 -66l-86 -108q-33 23 -63.5 35t-66.5 12
q-32 0 -50 -11t-18 -33q0 -23 25.5 -35.5t70.5 -29.5l79 -31q61 -24 94 -67t33 -111q0 -41 -17 -79t-49.5 -66.5t-79.5 -45.5t-108 -17q-62 0 -127.5 22.5t-118.5 70.5zM348 700h-136l78 124h180z" />
    <glyph glyph-name="Scircumflex" unicode="&#x15c;" horiz-adv-x="564" 
d="M130 199q35 -28 75.5 -45.5t76.5 -17.5q39 0 56.5 12t17.5 34q0 12 -6 20t-17.5 15t-27.5 13.5t-37 14.5l-81 34q-26 10 -50 26.5t-42 39t-28.5 51.5t-10.5 64q0 42 18 78.5t50 64t76.5 43.5t97.5 16q56 0 113.5 -21t102.5 -66l-86 -108q-33 23 -63.5 35t-66.5 12
q-32 0 -50 -11t-18 -33q0 -23 25.5 -35.5t70.5 -29.5l79 -31q61 -24 94 -67t33 -111q0 -41 -17 -79t-49.5 -66.5t-79.5 -45.5t-108 -17q-62 0 -127.5 22.5t-118.5 70.5zM116 700l96 124h168l96 -124h-130l-48 58h-4l-48 -58h-130z" />
    <glyph glyph-name="Scaron" unicode="&#x160;" horiz-adv-x="564" 
d="M130 199q35 -28 75.5 -45.5t76.5 -17.5q39 0 56.5 12t17.5 34q0 12 -6 20t-17.5 15t-27.5 13.5t-37 14.5l-81 34q-26 10 -50 26.5t-42 39t-28.5 51.5t-10.5 64q0 42 18 78.5t50 64t76.5 43.5t97.5 16q56 0 113.5 -21t102.5 -66l-86 -108q-33 23 -63.5 35t-66.5 12
q-32 0 -50 -11t-18 -33q0 -23 25.5 -35.5t70.5 -29.5l79 -31q61 -24 94 -67t33 -111q0 -41 -17 -79t-49.5 -66.5t-79.5 -45.5t-108 -17q-62 0 -127.5 22.5t-118.5 70.5zM476 824l-96 -124h-168l-96 124h130l48 -58h4l48 58h130z" />
    <glyph glyph-name="uni015E" unicode="&#x15e;" horiz-adv-x="564" 
d="M130 199q35 -28 75.5 -45.5t76.5 -17.5q39 0 56.5 12t17.5 34q0 12 -6 20t-17.5 15t-27.5 13.5t-37 14.5l-81 34q-26 10 -50 26.5t-42 39t-28.5 51.5t-10.5 64q0 42 18 78.5t50 64t76.5 43.5t97.5 16q56 0 113.5 -21t102.5 -66l-86 -108q-33 23 -63.5 35t-66.5 12
q-32 0 -50 -11t-18 -33q0 -23 25.5 -35.5t70.5 -29.5l79 -31q61 -24 94 -67t33 -111q0 -41 -17 -79t-49.5 -66.5t-79.5 -45.5t-108 -17q-62 0 -127.5 22.5t-118.5 70.5zM236 4h98l-18 -44q26 -9 42 -26.5t16 -49.5q0 -27 -15.5 -46.5t-41.5 -33t-60.5 -20.5t-72.5 -8l-12 66
q35 3 57.5 12.5t22.5 29.5q0 11 -10.5 21t-45.5 19z" />
    <glyph glyph-name="uni0218" unicode="&#x218;" horiz-adv-x="564" 
d="M130 199q35 -28 75.5 -45.5t76.5 -17.5q39 0 56.5 12t17.5 34q0 12 -6 20t-17.5 15t-27.5 13.5t-37 14.5l-81 34q-26 10 -50 26.5t-42 39t-28.5 51.5t-10.5 64q0 42 18 78.5t50 64t76.5 43.5t97.5 16q56 0 113.5 -21t102.5 -66l-86 -108q-33 23 -63.5 35t-66.5 12
q-32 0 -50 -11t-18 -33q0 -23 25.5 -35.5t70.5 -29.5l79 -31q61 -24 94 -67t33 -111q0 -41 -17 -79t-49.5 -66.5t-79.5 -45.5t-108 -17q-62 0 -127.5 22.5t-118.5 70.5zM244 -40q73 -6 101.5 -26.5t28.5 -59.5q0 -27 -15.5 -46.5t-41.5 -33t-60.5 -20.5t-72.5 -8l-12 66
q35 3 57.5 10t22.5 24q0 12 -8.5 20t-31.5 14l32 60v0z" />
    <glyph glyph-name="uni1E60" unicode="&#x1e60;" horiz-adv-x="564" 
d="M130 199q35 -28 75.5 -45.5t76.5 -17.5q39 0 56.5 12t17.5 34q0 12 -6 20t-17.5 15t-27.5 13.5t-37 14.5l-81 34q-26 10 -50 26.5t-42 39t-28.5 51.5t-10.5 64q0 42 18 78.5t50 64t76.5 43.5t97.5 16q56 0 113.5 -21t102.5 -66l-86 -108q-33 23 -63.5 35t-66.5 12
q-32 0 -50 -11t-18 -33q0 -23 25.5 -35.5t70.5 -29.5l79 -31q61 -24 94 -67t33 -111q0 -41 -17 -79t-49.5 -66.5t-79.5 -45.5t-108 -17q-62 0 -127.5 22.5t-118.5 70.5zM296 696q-42 0 -69 24t-27 62t27 62t69 24t69 -24t27 -62t-27 -62t-69 -24z" />
    <glyph glyph-name="uni1E62" unicode="&#x1e62;" horiz-adv-x="564" 
d="M130 199q35 -28 75.5 -45.5t76.5 -17.5q39 0 56.5 12t17.5 34q0 12 -6 20t-17.5 15t-27.5 13.5t-37 14.5l-81 34q-26 10 -50 26.5t-42 39t-28.5 51.5t-10.5 64q0 42 18 78.5t50 64t76.5 43.5t97.5 16q56 0 113.5 -21t102.5 -66l-86 -108q-33 23 -63.5 35t-66.5 12
q-32 0 -50 -11t-18 -33q0 -23 25.5 -35.5t70.5 -29.5l79 -31q61 -24 94 -67t33 -111q0 -41 -17 -79t-49.5 -66.5t-79.5 -45.5t-108 -17q-62 0 -127.5 22.5t-118.5 70.5zM282 -234q-41 0 -66.5 24t-25.5 62t25.5 62t66.5 24t66.5 -24t25.5 -62t-25.5 -62t-66.5 -24z" />
    <glyph glyph-name="uni1E9E" unicode="&#x1e9e;" horiz-adv-x="720" 
d="M76 406q0 53 16.5 100t51.5 81.5t90 54.5t132 20q52 0 95 -14t76 -39.5t55.5 -61.5t33.5 -79l-96 -110q31 -12 58.5 -27.5t48.5 -36.5t33 -49t12 -65q0 -41 -13 -76t-39 -60.5t-65 -40.5t-91 -15q-68 0 -114.5 22t-73.5 48l88 104q23 -21 42 -28.5t36 -7.5q24 0 39 15
t15 41q0 24 -32.5 45t-102.5 34l-11 99l98 114q-11 20 -35 35t-61 15q-59 0 -86.5 -35.5t-27.5 -104.5v-384h-172v406z" />
    <glyph glyph-name="Tcaron" unicode="&#x164;" horiz-adv-x="564" 
d="M196 506h-172v144h516v-144h-172v-506h-172v506zM462 824l-96 -124h-168l-96 124h130l48 -58h4l48 58h130z" />
    <glyph glyph-name="uni0162" unicode="&#x162;" horiz-adv-x="564" 
d="M196 506h-172v144h516v-144h-172v-506h-172v506zM240 4h98l-18 -44q26 -9 42 -26.5t16 -49.5q0 -27 -15.5 -46.5t-41.5 -33t-60.5 -20.5t-72.5 -8l-12 66q35 3 57.5 12.5t22.5 29.5q0 11 -10.5 21t-45.5 19z" />
    <glyph glyph-name="uni021A" unicode="&#x21a;" horiz-adv-x="564" 
d="M196 506h-172v144h516v-144h-172v-506h-172v506zM244 -40q73 -6 101.5 -26.5t28.5 -59.5q0 -27 -15.5 -46.5t-41.5 -33t-60.5 -20.5t-72.5 -8l-12 66q35 3 57.5 10t22.5 24q0 12 -8.5 20t-31.5 14l32 60v0z" />
    <glyph glyph-name="uni1E6C" unicode="&#x1e6c;" horiz-adv-x="564" 
d="M196 506h-172v144h516v-144h-172v-506h-172v506zM282 -234q-41 0 -66.5 24t-25.5 62t25.5 62t66.5 24t66.5 -24t25.5 -62t-25.5 -62t-66.5 -24z" />
    <glyph glyph-name="uni1E6E" unicode="&#x1e6e;" horiz-adv-x="564" 
d="M196 506h-172v144h516v-144h-172v-506h-172v506zM426 -196h-288v108h288v-108z" />
    <glyph glyph-name="Ugrave" unicode="&#xd9;" horiz-adv-x="672" 
d="M68 650h172v-356q0 -87 23.5 -122.5t74.5 -35.5t75.5 35.5t24.5 122.5v356h166v-336q0 -167 -65 -246.5t-201 -79.5q-137 0 -203.5 79.5t-66.5 246.5v336zM162 824h180l78 -124h-136z" />
    <glyph glyph-name="Uacute" unicode="&#xda;" horiz-adv-x="672" 
d="M68 650h172v-356q0 -87 23.5 -122.5t74.5 -35.5t75.5 35.5t24.5 122.5v356h166v-336q0 -167 -65 -246.5t-201 -79.5q-137 0 -203.5 79.5t-66.5 246.5v336zM388 700h-136l78 124h180z" />
    <glyph glyph-name="Ucircumflex" unicode="&#xdb;" horiz-adv-x="672" 
d="M68 650h172v-356q0 -87 23.5 -122.5t74.5 -35.5t75.5 35.5t24.5 122.5v356h166v-336q0 -167 -65 -246.5t-201 -79.5q-137 0 -203.5 79.5t-66.5 246.5v336zM156 700l96 124h168l96 -124h-130l-48 58h-4l-48 -58h-130z" />
    <glyph glyph-name="Utilde" unicode="&#x168;" horiz-adv-x="672" 
d="M68 650h172v-356q0 -87 23.5 -122.5t74.5 -35.5t75.5 35.5t24.5 122.5v356h166v-336q0 -167 -65 -246.5t-201 -79.5q-137 0 -203.5 79.5t-66.5 246.5v336zM400 700q-20 0 -37.5 6.5t-32.5 14.5t-27.5 14.5t-22.5 6.5q-12 0 -22 -9t-16 -33h-86q9 76 42 111t74 35
q20 0 37.5 -6.5t32.5 -14.5t27 -14.5t23 -6.5q12 0 22 9t16 33h86q-5 -38 -16 -65.5t-26.5 -45.5t-34.5 -26.5t-39 -8.5z" />
    <glyph glyph-name="Udieresis" unicode="&#xdc;" horiz-adv-x="672" 
d="M68 650h172v-356q0 -87 23.5 -122.5t74.5 -35.5t75.5 35.5t24.5 122.5v356h166v-336q0 -167 -65 -246.5t-201 -79.5q-137 0 -203.5 79.5t-66.5 246.5v336zM232 694q-35 0 -56.5 22.5t-21.5 55.5t21.5 55.5t56.5 22.5t56.5 -22.5t21.5 -55.5t-21.5 -55.5t-56.5 -22.5z
M440 694q-35 0 -56.5 22.5t-21.5 55.5t21.5 55.5t56.5 22.5t56.5 -22.5t21.5 -55.5t-21.5 -55.5t-56.5 -22.5z" />
    <glyph glyph-name="Umacron" unicode="&#x16a;" horiz-adv-x="672" 
d="M68 650h172v-356q0 -87 23.5 -122.5t74.5 -35.5t75.5 35.5t24.5 122.5v356h166v-336q0 -167 -65 -246.5t-201 -79.5q-137 0 -203.5 79.5t-66.5 246.5v336zM188 824h296v-108h-296v108z" />
    <glyph glyph-name="Ubreve" unicode="&#x16c;" horiz-adv-x="672" 
d="M68 650h172v-356q0 -87 23.5 -122.5t74.5 -35.5t75.5 35.5t24.5 122.5v356h166v-336q0 -167 -65 -246.5t-201 -79.5q-137 0 -203.5 79.5t-66.5 246.5v336zM336 700q-68 0 -102 32.5t-40 91.5h92q5 -18 16 -29t34 -11t34 11t16 29h92q-6 -59 -40 -91.5t-102 -32.5z" />
    <glyph glyph-name="Uring" unicode="&#x16e;" horiz-adv-x="672" 
d="M68 650h172v-356q0 -87 23.5 -122.5t74.5 -35.5t75.5 35.5t24.5 122.5v356h166v-336q0 -167 -65 -246.5t-201 -79.5q-137 0 -203.5 79.5t-66.5 246.5v336zM336 696q-54 0 -87 27.5t-33 74.5t33 74.5t87 27.5t87 -27.5t33 -74.5t-33 -74.5t-87 -27.5zM336 758q16 0 27 11
t11 29t-11 29t-27 11t-27 -11t-11 -29t11 -29t27 -11z" />
    <glyph glyph-name="Uhungarumlaut" unicode="&#x170;" horiz-adv-x="672" 
d="M68 650h172v-356q0 -87 23.5 -122.5t74.5 -35.5t75.5 35.5t24.5 122.5v356h166v-336q0 -167 -65 -246.5t-201 -79.5q-137 0 -203.5 79.5t-66.5 246.5v336zM188 700l62 124h144l-92 -124h-114zM438 824h144l-92 -124h-114z" />
    <glyph glyph-name="uni01D3" unicode="&#x1d3;" horiz-adv-x="672" 
d="M68 650h172v-356q0 -87 23.5 -122.5t74.5 -35.5t75.5 35.5t24.5 122.5v356h166v-336q0 -167 -65 -246.5t-201 -79.5q-137 0 -203.5 79.5t-66.5 246.5v336zM516 824l-96 -124h-168l-96 124h130l48 -58h4l48 58h130z" />
    <glyph glyph-name="uni01D5" unicode="&#x1d5;" horiz-adv-x="672" 
d="M68 650h172v-356q0 -87 23.5 -122.5t74.5 -35.5t75.5 35.5t24.5 122.5v356h166v-336q0 -167 -65 -246.5t-201 -79.5q-137 0 -203.5 79.5t-66.5 246.5v336zM188 954h296v-78h-296v78zM232 694q-30 0 -49 19.5t-19 48.5t19 48.5t49 19.5t49 -19.5t19 -48.5t-19 -48.5
t-49 -19.5zM440 694q-30 0 -49 19.5t-19 48.5t19 48.5t49 19.5t49 -19.5t19 -48.5t-19 -48.5t-49 -19.5z" />
    <glyph glyph-name="uni01D7" unicode="&#x1d7;" horiz-adv-x="672" 
d="M68 650h172v-356q0 -87 23.5 -122.5t74.5 -35.5t75.5 35.5t24.5 122.5v356h166v-336q0 -167 -65 -246.5t-201 -79.5q-137 0 -203.5 79.5t-66.5 246.5v336zM330 984h178l-120 -124h-136zM232 694q-30 0 -49 19.5t-19 48.5t19 48.5t49 19.5t49 -19.5t19 -48.5t-19 -48.5
t-49 -19.5zM440 694q-30 0 -49 19.5t-19 48.5t19 48.5t49 19.5t49 -19.5t19 -48.5t-19 -48.5t-49 -19.5z" />
    <glyph glyph-name="uni01D9" unicode="&#x1d9;" horiz-adv-x="672" 
d="M68 650h172v-356q0 -87 23.5 -122.5t74.5 -35.5t75.5 35.5t24.5 122.5v356h166v-336q0 -167 -65 -246.5t-201 -79.5q-137 0 -203.5 79.5t-66.5 246.5v336zM232 694q-30 0 -49 19.5t-19 48.5t19 48.5t49 19.5t49 -19.5t19 -48.5t-19 -48.5t-49 -19.5zM440 694
q-30 0 -49 19.5t-19 48.5t19 48.5t49 19.5t49 -19.5t19 -48.5t-19 -48.5t-49 -19.5zM516 984l-96 -124h-168l-96 124h130l48 -58h4l48 58h130z" />
    <glyph glyph-name="uni01DB" unicode="&#x1db;" horiz-adv-x="672" 
d="M68 650h172v-356q0 -87 23.5 -122.5t74.5 -35.5t75.5 35.5t24.5 122.5v356h166v-336q0 -167 -65 -246.5t-201 -79.5q-137 0 -203.5 79.5t-66.5 246.5v336zM420 860h-136l-120 124h178zM440 694q-30 0 -49 19.5t-19 48.5t19 48.5t49 19.5t49 -19.5t19 -48.5t-19 -48.5
t-49 -19.5zM232 694q-30 0 -49 19.5t-19 48.5t19 48.5t49 19.5t49 -19.5t19 -48.5t-19 -48.5t-49 -19.5z" />
    <glyph glyph-name="uni1EE4" unicode="&#x1ee4;" horiz-adv-x="672" 
d="M68 650h172v-356q0 -87 23.5 -122.5t74.5 -35.5t75.5 35.5t24.5 122.5v356h166v-336q0 -167 -65 -246.5t-201 -79.5q-137 0 -203.5 79.5t-66.5 246.5v336zM336 -234q-41 0 -66.5 24t-25.5 62t25.5 62t66.5 24t66.5 -24t25.5 -62t-25.5 -62t-66.5 -24z" />
    <glyph glyph-name="uni1EE6" unicode="&#x1ee6;" horiz-adv-x="672" 
d="M68 650h172v-356q0 -87 23.5 -122.5t74.5 -35.5t75.5 35.5t24.5 122.5v356h166v-336q0 -167 -65 -246.5t-201 -79.5q-137 0 -203.5 79.5t-66.5 246.5v336zM286 754q17 2 28.5 7t11.5 17t-17 19.5t-61 10.5l20 84q52 -2 86.5 -9.5t55.5 -20t29.5 -29.5t8.5 -37
q0 -27 -12 -46.5t-32.5 -33t-47.5 -20.5t-58 -8z" />
    <glyph glyph-name="Uogonek" unicode="&#x172;" horiz-adv-x="672" 
d="M68 650h172v-356q0 -87 23.5 -122.5t74.5 -35.5t75.5 35.5t24.5 122.5v356h166v-336q0 -71 -9.5 -121t-30 -87t-53.5 -63t-81 -47q-37 -17 -52.5 -38.5t-15.5 -41.5q0 -18 12.5 -26t27.5 -8q9 0 18 4.5t16 9.5l38 -86q-21 -17 -53 -27.5t-61 -10.5q-51 0 -86.5 25.5
t-35.5 72.5q0 24 8 44t18.5 35.5t21.5 25.5t16 15q-119 9 -176.5 89t-57.5 235v336z" />
    <glyph glyph-name="Uhorn" unicode="&#x1af;" horiz-adv-x="692" 
d="M702 808q12 -14 22 -36.5t10 -49.5q0 -29 -10 -51.5t-27.5 -39t-41 -27t-51.5 -15.5v-275q0 -167 -65 -246.5t-201 -79.5q-137 0 -203.5 79.5t-66.5 246.5v336h172v-356q0 -87 23.5 -122.5t74.5 -35.5t75.5 35.5t24.5 122.5v356h84q13 0 27 2t26 8t19.5 18t7.5 32
q0 15 -5.5 27.5t-10.5 20.5z" />
    <glyph glyph-name="uni1EE8" unicode="&#x1ee8;" horiz-adv-x="692" 
d="M702 808q12 -14 22 -36.5t10 -49.5q0 -29 -10 -51.5t-27.5 -39t-41 -27t-51.5 -15.5v-275q0 -167 -65 -246.5t-201 -79.5q-137 0 -203.5 79.5t-66.5 246.5v336h172v-356q0 -87 23.5 -122.5t74.5 -35.5t75.5 35.5t24.5 122.5v356h84q13 0 27 2t26 8t19.5 18t7.5 32
q0 15 -5.5 27.5t-10.5 20.5zM388 700h-136l78 124h180z" />
    <glyph glyph-name="uni1EEA" unicode="&#x1eea;" horiz-adv-x="692" 
d="M702 808q12 -14 22 -36.5t10 -49.5q0 -29 -10 -51.5t-27.5 -39t-41 -27t-51.5 -15.5v-275q0 -167 -65 -246.5t-201 -79.5q-137 0 -203.5 79.5t-66.5 246.5v336h172v-356q0 -87 23.5 -122.5t74.5 -35.5t75.5 35.5t24.5 122.5v356h84q13 0 27 2t26 8t19.5 18t7.5 32
q0 15 -5.5 27.5t-10.5 20.5zM162 824h180l78 -124h-136z" />
    <glyph glyph-name="uni1EEC" unicode="&#x1eec;" horiz-adv-x="692" 
d="M702 808q12 -14 22 -36.5t10 -49.5q0 -29 -10 -51.5t-27.5 -39t-41 -27t-51.5 -15.5v-275q0 -167 -65 -246.5t-201 -79.5q-137 0 -203.5 79.5t-66.5 246.5v336h172v-356q0 -87 23.5 -122.5t74.5 -35.5t75.5 35.5t24.5 122.5v356h84q13 0 27 2t26 8t19.5 18t7.5 32
q0 15 -5.5 27.5t-10.5 20.5zM286 754q17 2 28.5 7t11.5 17t-17 19.5t-61 10.5l20 84q52 -2 86.5 -9.5t55.5 -20t29.5 -29.5t8.5 -37q0 -27 -12 -46.5t-32.5 -33t-47.5 -20.5t-58 -8z" />
    <glyph glyph-name="uni1EEE" unicode="&#x1eee;" horiz-adv-x="692" 
d="M702 808q12 -14 22 -36.5t10 -49.5q0 -29 -10 -51.5t-27.5 -39t-41 -27t-51.5 -15.5v-275q0 -167 -65 -246.5t-201 -79.5q-137 0 -203.5 79.5t-66.5 246.5v336h172v-356q0 -87 23.5 -122.5t74.5 -35.5t75.5 35.5t24.5 122.5v356h84q13 0 27 2t26 8t19.5 18t7.5 32
q0 15 -5.5 27.5t-10.5 20.5zM400 700q-20 0 -37.5 6.5t-32.5 14.5t-27.5 14.5t-22.5 6.5q-12 0 -22 -9t-16 -33h-86q9 76 42 111t74 35q20 0 37.5 -6.5t32.5 -14.5t27 -14.5t23 -6.5q12 0 22 9t16 33h86q-5 -38 -16 -65.5t-26.5 -45.5t-34.5 -26.5t-39 -8.5z" />
    <glyph glyph-name="uni1EF0" unicode="&#x1ef0;" horiz-adv-x="692" 
d="M702 808q12 -14 22 -36.5t10 -49.5q0 -29 -10 -51.5t-27.5 -39t-41 -27t-51.5 -15.5v-275q0 -167 -65 -246.5t-201 -79.5q-137 0 -203.5 79.5t-66.5 246.5v336h172v-356q0 -87 23.5 -122.5t74.5 -35.5t75.5 35.5t24.5 122.5v356h84q13 0 27 2t26 8t19.5 18t7.5 32
q0 15 -5.5 27.5t-10.5 20.5zM336 -234q-41 0 -66.5 24t-25.5 62t25.5 62t66.5 24t66.5 -24t25.5 -62t-25.5 -62t-66.5 -24z" />
    <glyph glyph-name="Wgrave" unicode="&#x1e80;" horiz-adv-x="824" 
d="M10 650h176l36 -284q5 -51 11 -102t11 -102h4l18 102l18 102l62 284h144l62 -284q9 -49 18 -100.5t18 -103.5h4q5 52 11 103t11 101l36 284h164l-108 -650h-218l-50 258q-8 38 -13.5 77t-10.5 75h-4q-5 -36 -10.5 -75t-13.5 -77l-48 -258h-214zM238 824h180l78 -124h-136
z" />
    <glyph glyph-name="Wacute" unicode="&#x1e82;" horiz-adv-x="824" 
d="M10 650h176l36 -284q5 -51 11 -102t11 -102h4l18 102l18 102l62 284h144l62 -284q9 -49 18 -100.5t18 -103.5h4q5 52 11 103t11 101l36 284h164l-108 -650h-218l-50 258q-8 38 -13.5 77t-10.5 75h-4q-5 -36 -10.5 -75t-13.5 -77l-48 -258h-214zM464 700h-136l78 124h180z
" />
    <glyph glyph-name="Wcircumflex" unicode="&#x174;" horiz-adv-x="824" 
d="M10 650h176l36 -284q5 -51 11 -102t11 -102h4l18 102l18 102l62 284h144l62 -284q9 -49 18 -100.5t18 -103.5h4q5 52 11 103t11 101l36 284h164l-108 -650h-218l-50 258q-8 38 -13.5 77t-10.5 75h-4q-5 -36 -10.5 -75t-13.5 -77l-48 -258h-214zM232 700l96 124h168
l96 -124h-130l-48 58h-4l-48 -58h-130z" />
    <glyph glyph-name="Wdieresis" unicode="&#x1e84;" horiz-adv-x="824" 
d="M10 650h176l36 -284q5 -51 11 -102t11 -102h4l18 102l18 102l62 284h144l62 -284q9 -49 18 -100.5t18 -103.5h4q5 52 11 103t11 101l36 284h164l-108 -650h-218l-50 258q-8 38 -13.5 77t-10.5 75h-4q-5 -36 -10.5 -75t-13.5 -77l-48 -258h-214zM308 694q-35 0 -56.5 22.5
t-21.5 55.5t21.5 55.5t56.5 22.5t56.5 -22.5t21.5 -55.5t-21.5 -55.5t-56.5 -22.5zM516 694q-35 0 -56.5 22.5t-21.5 55.5t21.5 55.5t56.5 22.5t56.5 -22.5t21.5 -55.5t-21.5 -55.5t-56.5 -22.5z" />
    <glyph glyph-name="Ygrave" unicode="&#x1ef2;" horiz-adv-x="544" 
d="M186 224l-196 426h184l48 -136q12 -37 24 -72t25 -73h4q13 38 25.5 73t25.5 72l48 136h180l-196 -426v-224h-172v224zM98 824h180l78 -124h-136z" />
    <glyph glyph-name="Yacute" unicode="&#xdd;" horiz-adv-x="544" 
d="M186 224l-196 426h184l48 -136q12 -37 24 -72t25 -73h4q13 38 25.5 73t25.5 72l48 136h180l-196 -426v-224h-172v224zM324 700h-136l78 124h180z" />
    <glyph glyph-name="Ycircumflex" unicode="&#x176;" horiz-adv-x="544" 
d="M186 224l-196 426h184l48 -136q12 -37 24 -72t25 -73h4q13 38 25.5 73t25.5 72l48 136h180l-196 -426v-224h-172v224zM92 700l96 124h168l96 -124h-130l-48 58h-4l-48 -58h-130z" />
    <glyph glyph-name="Ydieresis" unicode="&#x178;" horiz-adv-x="544" 
d="M186 224l-196 426h184l48 -136q12 -37 24 -72t25 -73h4q13 38 25.5 73t25.5 72l48 136h180l-196 -426v-224h-172v224zM168 694q-35 0 -56.5 22.5t-21.5 55.5t21.5 55.5t56.5 22.5t56.5 -22.5t21.5 -55.5t-21.5 -55.5t-56.5 -22.5zM376 694q-35 0 -56.5 22.5t-21.5 55.5
t21.5 55.5t56.5 22.5t56.5 -22.5t21.5 -55.5t-21.5 -55.5t-56.5 -22.5z" />
    <glyph glyph-name="uni1E8E" unicode="&#x1e8e;" horiz-adv-x="544" 
d="M186 224l-196 426h184l48 -136q12 -37 24 -72t25 -73h4q13 38 25.5 73t25.5 72l48 136h180l-196 -426v-224h-172v224zM272 696q-42 0 -69 24t-27 62t27 62t69 24t69 -24t27 -62t-27 -62t-69 -24z" />
    <glyph glyph-name="uni1EF4" unicode="&#x1ef4;" horiz-adv-x="544" 
d="M186 224l-196 426h184l48 -136q12 -37 24 -72t25 -73h4q13 38 25.5 73t25.5 72l48 136h180l-196 -426v-224h-172v224zM274 -234q-41 0 -66.5 24t-25.5 62t25.5 62t66.5 24t66.5 -24t25.5 -62t-25.5 -62t-66.5 -24z" />
    <glyph glyph-name="uni1EF6" unicode="&#x1ef6;" horiz-adv-x="544" 
d="M186 224l-196 426h184l48 -136q12 -37 24 -72t25 -73h4q13 38 25.5 73t25.5 72l48 136h180l-196 -426v-224h-172v224zM222 754q17 2 28.5 7t11.5 17t-17 19.5t-61 10.5l20 84q52 -2 86.5 -9.5t55.5 -20t29.5 -29.5t8.5 -37q0 -27 -12 -46.5t-32.5 -33t-47.5 -20.5t-58 -8
z" />
    <glyph glyph-name="uni1EF8" unicode="&#x1ef8;" horiz-adv-x="544" 
d="M186 224l-196 426h184l48 -136q12 -37 24 -72t25 -73h4q13 38 25.5 73t25.5 72l48 136h180l-196 -426v-224h-172v224zM336 700q-20 0 -37.5 6.5t-32.5 14.5t-27.5 14.5t-22.5 6.5q-12 0 -22 -9t-16 -33h-86q9 76 42 111t74 35q20 0 37.5 -6.5t32.5 -14.5t27 -14.5
t23 -6.5q12 0 22 9t16 33h86q-5 -38 -16 -65.5t-26.5 -45.5t-34.5 -26.5t-39 -8.5z" />
    <glyph glyph-name="Zacute" unicode="&#x179;" horiz-adv-x="542" 
d="M32 104l266 402h-240v144h452v-104l-266 -402h268v-144h-480v104zM336 700h-136l78 124h180z" />
    <glyph glyph-name="Zcaron" unicode="&#x17d;" horiz-adv-x="542" 
d="M32 104l266 402h-240v144h452v-104l-266 -402h268v-144h-480v104zM464 824l-96 -124h-168l-96 124h130l48 -58h4l48 58h130z" />
    <glyph glyph-name="Zdotaccent" unicode="&#x17b;" horiz-adv-x="542" 
d="M32 104l266 402h-240v144h452v-104l-266 -402h268v-144h-480v104zM284 696q-42 0 -69 24t-27 62t27 62t69 24t69 -24t27 -62t-27 -62t-69 -24z" />
    <glyph glyph-name="uni1E92" unicode="&#x1e92;" horiz-adv-x="542" 
d="M32 104l266 402h-240v144h452v-104l-266 -402h268v-144h-480v104zM282 -234q-41 0 -66.5 24t-25.5 62t25.5 62t66.5 24t66.5 -24t25.5 -62t-25.5 -62t-66.5 -24z" />
    <glyph glyph-name="Eth" unicode="&#xd0;" horiz-adv-x="668" 
d="M280 138q35 0 66 8.5t53.5 29.5t35.5 58t13 94t-13 93t-35.5 56t-53.5 27.5t-66 7.5h-10v-138h116v-80h-116v-156h10zM290 650q74 0 135.5 -18t105.5 -57t68.5 -100t24.5 -147t-24 -148t-67.5 -102t-103 -59t-129.5 -19h-202v294h-74v74l74 6v276h192z" />
    <glyph glyph-name="Thorn" unicode="&#xde;" horiz-adv-x="630" 
d="M72 650h172v-94h80q52 0 99.5 -10.5t83 -36t56.5 -67t21 -102.5q0 -60 -21.5 -103t-57.5 -70.5t-83 -41t-98 -13.5h-80v-112h-172v650zM316 248q51 0 75.5 24t24.5 68t-26 62t-74 18h-72v-172h72z" />
    <glyph glyph-name="uni018F" unicode="&#x18f;" horiz-adv-x="684" 
d="M224 256q6 -68 38.5 -98t79.5 -30q44 0 77 31.5t45 96.5h-240zM110 580q41 36 98.5 59t137.5 23q64 0 118 -22.5t93 -65.5t61 -105.5t22 -142.5t-22 -143t-61.5 -106.5t-94.5 -66t-120 -22.5t-119 22t-93 64.5t-60.5 105t-21.5 142.5q0 14 1 28.5t3 29.5h415
q-20 142 -143 142q-45 0 -77.5 -18.5t-58.5 -41.5z" />
    <glyph glyph-name="agrave" unicode="&#xe0;" horiz-adv-x="542" 
d="M42 142q0 78 64 122.5t208 59.5q-6 52 -70 52q-27 0 -57 -10.5t-69 -31.5l-60 112q53 32 107 49t113 17q97 0 152.5 -55.5t55.5 -178.5v-278h-140l-12 48h-4q-30 -27 -63.5 -43.5t-74.5 -16.5q-35 0 -63 12.5t-47.5 33.5t-29.5 49t-10 59zM206 156q0 -36 46 -36
q21 0 34.5 9.5t27.5 24.5v68q-62 -9 -85 -27t-23 -39zM121 728h164l88 -154h-124z" />
    <glyph glyph-name="aacute" unicode="&#xe1;" horiz-adv-x="542" 
d="M42 142q0 78 64 122.5t208 59.5q-6 52 -70 52q-27 0 -57 -10.5t-69 -31.5l-60 112q53 32 107 49t113 17q97 0 152.5 -55.5t55.5 -178.5v-278h-140l-12 48h-4q-30 -27 -63.5 -43.5t-74.5 -16.5q-35 0 -63 12.5t-47.5 33.5t-29.5 49t-10 59zM206 156q0 -36 46 -36
q21 0 34.5 9.5t27.5 24.5v68q-62 -9 -85 -27t-23 -39zM321 574h-124l88 154h164z" />
    <glyph glyph-name="acircumflex" unicode="&#xe2;" horiz-adv-x="542" 
d="M42 142q0 78 64 122.5t208 59.5q-6 52 -70 52q-27 0 -57 -10.5t-69 -31.5l-60 112q53 32 107 49t113 17q97 0 152.5 -55.5t55.5 -178.5v-278h-140l-12 48h-4q-30 -27 -63.5 -43.5t-74.5 -16.5q-35 0 -63 12.5t-47.5 33.5t-29.5 49t-10 59zM206 156q0 -36 46 -36
q21 0 34.5 9.5t27.5 24.5v68q-62 -9 -85 -27t-23 -39zM217 728h136l96 -154h-114l-48 74h-4l-48 -74h-114z" />
    <glyph glyph-name="atilde" unicode="&#xe3;" horiz-adv-x="542" 
d="M42 142q0 78 64 122.5t208 59.5q-6 52 -70 52q-27 0 -57 -10.5t-69 -31.5l-60 112q53 32 107 49t113 17q97 0 152.5 -55.5t55.5 -178.5v-278h-140l-12 48h-4q-30 -27 -63.5 -43.5t-74.5 -16.5q-35 0 -63 12.5t-47.5 33.5t-29.5 49t-10 59zM206 156q0 -36 46 -36
q21 0 34.5 9.5t27.5 24.5v68q-62 -9 -85 -27t-23 -39zM109 574q9 77 40 111.5t72 34.5q20 0 37.5 -6.5t32.5 -14.5t27 -14.5t23 -6.5q12 0 20 9t14 33h86q-9 -77 -40 -111.5t-72 -34.5q-20 0 -37.5 6.5t-32.5 14.5t-27.5 14.5t-22.5 6.5q-12 0 -20 -9t-14 -33h-86v0z" />
    <glyph glyph-name="adieresis" unicode="&#xe4;" horiz-adv-x="542" 
d="M42 142q0 78 64 122.5t208 59.5q-6 52 -70 52q-27 0 -57 -10.5t-69 -31.5l-60 112q53 32 107 49t113 17q97 0 152.5 -55.5t55.5 -178.5v-278h-140l-12 48h-4q-30 -27 -63.5 -43.5t-74.5 -16.5q-35 0 -63 12.5t-47.5 33.5t-29.5 49t-10 59zM206 156q0 -36 46 -36
q21 0 34.5 9.5t27.5 24.5v68q-62 -9 -85 -27t-23 -39zM181 564q-35 0 -56.5 22.5t-21.5 55.5t21.5 55.5t56.5 22.5t56.5 -22.5t21.5 -55.5t-21.5 -55.5t-56.5 -22.5zM389 564q-35 0 -56.5 22.5t-21.5 55.5t21.5 55.5t56.5 22.5t56.5 -22.5t21.5 -55.5t-21.5 -55.5
t-56.5 -22.5z" />
    <glyph glyph-name="amacron" unicode="&#x101;" horiz-adv-x="542" 
d="M42 142q0 78 64 122.5t208 59.5q-6 52 -70 52q-27 0 -57 -10.5t-69 -31.5l-60 112q53 32 107 49t113 17q97 0 152.5 -55.5t55.5 -178.5v-278h-140l-12 48h-4q-30 -27 -63.5 -43.5t-74.5 -16.5q-35 0 -63 12.5t-47.5 33.5t-29.5 49t-10 59zM206 156q0 -36 46 -36
q21 0 34.5 9.5t27.5 24.5v68q-62 -9 -85 -27t-23 -39zM141 696h288v-108h-288v108z" />
    <glyph glyph-name="abreve" unicode="&#x103;" horiz-adv-x="542" 
d="M42 142q0 78 64 122.5t208 59.5q-6 52 -70 52q-27 0 -57 -10.5t-69 -31.5l-60 112q53 32 107 49t113 17q97 0 152.5 -55.5t55.5 -178.5v-278h-140l-12 48h-4q-30 -27 -63.5 -43.5t-74.5 -16.5q-35 0 -63 12.5t-47.5 33.5t-29.5 49t-10 59zM206 156q0 -36 46 -36
q21 0 34.5 9.5t27.5 24.5v68q-62 -9 -85 -27t-23 -39zM285 574q-36 0 -62.5 11.5t-44.5 31t-27 46t-10 55.5h94q3 -23 15 -37.5t35 -14.5t35 14.5t15 37.5h94q-1 -29 -10 -55.5t-27 -46t-44.5 -31t-62.5 -11.5z" />
    <glyph glyph-name="aring" unicode="&#xe5;" horiz-adv-x="542" 
d="M42 142q0 78 64 122.5t208 59.5q-6 52 -70 52q-27 0 -57 -10.5t-69 -31.5l-60 112q53 32 107 49t113 17q97 0 152.5 -55.5t55.5 -178.5v-278h-140l-12 48h-4q-30 -27 -63.5 -43.5t-74.5 -16.5q-35 0 -63 12.5t-47.5 33.5t-29.5 49t-10 59zM206 156q0 -36 46 -36
q21 0 34.5 9.5t27.5 24.5v68q-62 -9 -85 -27t-23 -39zM285 550q-54 0 -87 29t-33 77t33 77t87 29t87 -29t33 -77t-33 -77t-87 -29zM285 612q16 0 27 12t11 32t-11 32t-27 12t-27 -12t-11 -32t11 -32t27 -12z" />
    <glyph glyph-name="uni01CE" unicode="&#x1ce;" horiz-adv-x="542" 
d="M42 142q0 78 64 122.5t208 59.5q-6 52 -70 52q-27 0 -57 -10.5t-69 -31.5l-60 112q53 32 107 49t113 17q97 0 152.5 -55.5t55.5 -178.5v-278h-140l-12 48h-4q-30 -27 -63.5 -43.5t-74.5 -16.5q-35 0 -63 12.5t-47.5 33.5t-29.5 49t-10 59zM206 156q0 -36 46 -36
q21 0 34.5 9.5t27.5 24.5v68q-62 -9 -85 -27t-23 -39zM121 728h114l48 -74h4l48 74h114l-96 -154h-136z" />
    <glyph glyph-name="uni1EA1" unicode="&#x1ea1;" horiz-adv-x="542" 
d="M42 142q0 78 64 122.5t208 59.5q-6 52 -70 52q-27 0 -57 -10.5t-69 -31.5l-60 112q53 32 107 49t113 17q97 0 152.5 -55.5t55.5 -178.5v-278h-140l-12 48h-4q-30 -27 -63.5 -43.5t-74.5 -16.5q-35 0 -63 12.5t-47.5 33.5t-29.5 49t-10 59zM206 156q0 -36 46 -36
q21 0 34.5 9.5t27.5 24.5v68q-62 -9 -85 -27t-23 -39zM268 -234q-41 0 -66.5 24t-25.5 62t25.5 62t66.5 24t66.5 -24t25.5 -62t-25.5 -62t-66.5 -24z" />
    <glyph glyph-name="uni1EA3" unicode="&#x1ea3;" horiz-adv-x="542" 
d="M42 142q0 78 64 122.5t208 59.5q-6 52 -70 52q-27 0 -57 -10.5t-69 -31.5l-60 112q53 32 107 49t113 17q97 0 152.5 -55.5t55.5 -178.5v-278h-140l-12 48h-4q-30 -27 -63.5 -43.5t-74.5 -16.5q-35 0 -63 12.5t-47.5 33.5t-29.5 49t-10 59zM206 156q0 -36 46 -36
q21 0 34.5 9.5t27.5 24.5v68q-62 -9 -85 -27t-23 -39zM235 624q17 2 28.5 7t11.5 17t-17 19.5t-61 10.5l20 84q52 -2 86.5 -9.5t55.5 -20t29.5 -29.5t8.5 -37q0 -27 -12 -46.5t-32.5 -33t-47.5 -20.5t-58 -8z" />
    <glyph glyph-name="uni1EA5" unicode="&#x1ea5;" horiz-adv-x="542" 
d="M42 142q0 78 64 122.5t208 59.5q-6 52 -70 52q-27 0 -57 -10.5t-69 -31.5l-60 112q53 32 107 49t113 17q97 0 152.5 -55.5t55.5 -178.5v-278h-140l-12 48h-4q-30 -27 -63.5 -43.5t-74.5 -16.5q-35 0 -63 12.5t-47.5 33.5t-29.5 49t-10 59zM206 156q0 -36 46 -36
q21 0 34.5 9.5t27.5 24.5v68q-62 -9 -85 -27t-23 -39zM217 706h136l80 -132h-104l-42 62h-4l-42 -62h-104zM465 768h124l-96 -120h-94z" />
    <glyph glyph-name="uni1EA7" unicode="&#x1ea7;" horiz-adv-x="542" 
d="M42 142q0 78 64 122.5t208 59.5q-6 52 -70 52q-27 0 -57 -10.5t-69 -31.5l-60 112q53 32 107 49t113 17q97 0 152.5 -55.5t55.5 -178.5v-278h-140l-12 48h-4q-30 -27 -63.5 -43.5t-74.5 -16.5q-35 0 -63 12.5t-47.5 33.5t-29.5 49t-10 59zM206 156q0 -36 46 -36
q21 0 34.5 9.5t27.5 24.5v68q-62 -9 -85 -27t-23 -39zM217 706h136l80 -132h-104l-42 62h-4l-42 -62h-104zM553 648h-94l-96 120h124z" />
    <glyph glyph-name="uni1EA9" unicode="&#x1ea9;" horiz-adv-x="542" 
d="M42 142q0 78 64 122.5t208 59.5q-6 52 -70 52q-27 0 -57 -10.5t-69 -31.5l-60 112q53 32 107 49t113 17q97 0 152.5 -55.5t55.5 -178.5v-278h-140l-12 48h-4q-30 -27 -63.5 -43.5t-74.5 -16.5q-35 0 -63 12.5t-47.5 33.5t-29.5 49t-10 59zM206 156q0 -36 46 -36
q21 0 34.5 9.5t27.5 24.5v68q-62 -9 -85 -27t-23 -39zM217 706h136l80 -132h-104l-42 62h-4l-42 -62h-104zM421 684q12 2 19 7t7 17t-13 19.5t-51 10.5l16 70q46 -2 76.5 -8.5t48.5 -17t25.5 -25t7.5 -31.5q0 -26 -10 -43.5t-27 -28.5t-40 -17t-49 -9z" />
    <glyph glyph-name="uni1EAB" unicode="&#x1eab;" horiz-adv-x="542" 
d="M42 142q0 78 64 122.5t208 59.5q-6 52 -70 52q-27 0 -57 -10.5t-69 -31.5l-60 112q53 32 107 49t113 17q97 0 152.5 -55.5t55.5 -178.5v-278h-140l-12 48h-4q-30 -27 -63.5 -43.5t-74.5 -16.5q-35 0 -63 12.5t-47.5 33.5t-29.5 49t-10 59zM206 156q0 -36 46 -36
q21 0 34.5 9.5t27.5 24.5v68q-62 -9 -85 -27t-23 -39zM207 688h156l78 -114h-110l-44 56h-4l-44 -56h-110zM133 724q8 66 35.5 94t60.5 28q20 0 35 -5.5t26.5 -12.5t21 -12.5t19.5 -5.5q12 0 20.5 8t13.5 28h72q-8 -66 -35.5 -94t-60.5 -28q-20 0 -35 5.5t-26.5 12.5
t-21 12.5t-19.5 5.5q-12 0 -20.5 -8t-13.5 -28h-72z" />
    <glyph glyph-name="uni1EAD" unicode="&#x1ead;" horiz-adv-x="542" 
d="M42 142q0 78 64 122.5t208 59.5q-6 52 -70 52q-27 0 -57 -10.5t-69 -31.5l-60 112q53 32 107 49t113 17q97 0 152.5 -55.5t55.5 -178.5v-278h-140l-12 48h-4q-30 -27 -63.5 -43.5t-74.5 -16.5q-35 0 -63 12.5t-47.5 33.5t-29.5 49t-10 59zM206 156q0 -36 46 -36
q21 0 34.5 9.5t27.5 24.5v68q-62 -9 -85 -27t-23 -39zM217 728h136l96 -154h-114l-48 74h-4l-48 -74h-114zM268 -234q-41 0 -66.5 24t-25.5 62t25.5 62t66.5 24t66.5 -24t25.5 -62t-25.5 -62t-66.5 -24z" />
    <glyph glyph-name="uni1EAF" unicode="&#x1eaf;" horiz-adv-x="542" 
d="M42 142q0 78 64 122.5t208 59.5q-6 52 -70 52q-27 0 -57 -10.5t-69 -31.5l-60 112q53 32 107 49t113 17q97 0 152.5 -55.5t55.5 -178.5v-278h-140l-12 48h-4q-30 -27 -63.5 -43.5t-74.5 -16.5q-35 0 -63 12.5t-47.5 33.5t-29.5 49t-10 59zM206 156q0 -36 46 -36
q21 0 34.5 9.5t27.5 24.5v68q-62 -9 -85 -27t-23 -39zM289 818h120l-90 -120h-84zM285 574q-36 0 -62.5 11.5t-44.5 31t-27 46t-10 55.5h74q5 -27 21.5 -44.5t48.5 -17.5t48.5 17.5t21.5 44.5h74q-1 -29 -10 -55.5t-27 -46t-44.5 -31t-62.5 -11.5z" />
    <glyph glyph-name="uni1EB1" unicode="&#x1eb1;" horiz-adv-x="542" 
d="M42 142q0 78 64 122.5t208 59.5q-6 52 -70 52q-27 0 -57 -10.5t-69 -31.5l-60 112q53 32 107 49t113 17q97 0 152.5 -55.5t55.5 -178.5v-278h-140l-12 48h-4q-30 -27 -63.5 -43.5t-74.5 -16.5q-35 0 -63 12.5t-47.5 33.5t-29.5 49t-10 59zM206 156q0 -36 46 -36
q21 0 34.5 9.5t27.5 24.5v68q-62 -9 -85 -27t-23 -39zM335 698h-84l-90 120h120zM285 574q-36 0 -62.5 11.5t-44.5 31t-27 46t-10 55.5h74q5 -27 21.5 -44.5t48.5 -17.5t48.5 17.5t21.5 44.5h74q-1 -29 -10 -55.5t-27 -46t-44.5 -31t-62.5 -11.5z" />
    <glyph glyph-name="uni1EB3" unicode="&#x1eb3;" horiz-adv-x="542" 
d="M42 142q0 78 64 122.5t208 59.5q-6 52 -70 52q-27 0 -57 -10.5t-69 -31.5l-60 112q53 32 107 49t113 17q97 0 152.5 -55.5t55.5 -178.5v-278h-140l-12 48h-4q-30 -27 -63.5 -43.5t-74.5 -16.5q-35 0 -63 12.5t-47.5 33.5t-29.5 49t-10 59zM206 156q0 -36 46 -36
q21 0 34.5 9.5t27.5 24.5v68q-62 -9 -85 -27t-23 -39zM285 574q-36 0 -62.5 11.5t-44.5 31t-27 46t-10 55.5h74q5 -27 21.5 -44.5t48.5 -17.5t48.5 17.5t21.5 44.5h74q-1 -29 -10 -55.5t-27 -46t-44.5 -31t-62.5 -11.5zM237 759q12 2 19 7t7 17t-13 19.5t-51 10.5l16 70
q46 -2 76.5 -8.5t48.5 -17t25.5 -25t7.5 -31.5q0 -26 -10 -43.5t-27 -28.5t-40 -17t-49 -9z" />
    <glyph glyph-name="uni1EB5" unicode="&#x1eb5;" horiz-adv-x="542" 
d="M42 142q0 78 64 122.5t208 59.5q-6 52 -70 52q-27 0 -57 -10.5t-69 -31.5l-60 112q53 32 107 49t113 17q97 0 152.5 -55.5t55.5 -178.5v-278h-140l-12 48h-4q-30 -27 -63.5 -43.5t-74.5 -16.5q-35 0 -63 12.5t-47.5 33.5t-29.5 49t-10 59zM206 156q0 -36 46 -36
q21 0 34.5 9.5t27.5 24.5v68q-62 -9 -85 -27t-23 -39zM285 574q-72 0 -107.5 36.5t-36.5 87.5h78q5 -18 19.5 -32t46.5 -14t46.5 14t19.5 32h78q-1 -26 -10 -48.5t-27 -39t-44.5 -26.5t-62.5 -10zM133 724q8 66 35.5 94t60.5 28q20 0 35 -5.5t26.5 -12.5t21 -12.5t19.5 -5.5
q12 0 20.5 8t13.5 28h72q-8 -66 -35.5 -94t-60.5 -28q-20 0 -35 5.5t-26.5 12.5t-21 12.5t-19.5 5.5q-12 0 -20.5 -8t-13.5 -28h-72z" />
    <glyph glyph-name="uni1EB7" unicode="&#x1eb7;" horiz-adv-x="542" 
d="M42 142q0 78 64 122.5t208 59.5q-6 52 -70 52q-27 0 -57 -10.5t-69 -31.5l-60 112q53 32 107 49t113 17q97 0 152.5 -55.5t55.5 -178.5v-278h-140l-12 48h-4q-30 -27 -63.5 -43.5t-74.5 -16.5q-35 0 -63 12.5t-47.5 33.5t-29.5 49t-10 59zM206 156q0 -36 46 -36
q21 0 34.5 9.5t27.5 24.5v68q-62 -9 -85 -27t-23 -39zM285 574q-36 0 -62.5 11.5t-44.5 31t-27 46t-10 55.5h94q3 -23 15 -37.5t35 -14.5t35 14.5t15 37.5h94q-1 -29 -10 -55.5t-27 -46t-44.5 -31t-62.5 -11.5zM268 -234q-41 0 -66.5 24t-25.5 62t25.5 62t66.5 24t66.5 -24
t25.5 -62t-25.5 -62t-66.5 -24z" />
    <glyph glyph-name="aogonek" unicode="&#x105;" horiz-adv-x="542" 
d="M206 156q0 -36 46 -36q21 0 34.5 9.5t27.5 24.5v68q-62 -9 -85 -27t-23 -39zM42 142q0 78 64 122.5t208 59.5q-6 52 -70 52q-27 0 -57 -10.5t-69 -31.5l-60 112q53 32 107 49t113 17q97 0 152.5 -55.5t55.5 -178.5v-278q-51 -12 -69.5 -34.5t-18.5 -43.5q0 -18 12.5 -26
t27.5 -8q9 0 18.5 3.5t15.5 8.5l34 -76q-21 -17 -52.5 -26.5t-57.5 -9.5q-47 0 -79.5 23.5t-32.5 70.5q0 22 7 41t17.5 33.5t21 24.5t18.5 15l-14 52h-4q-30 -27 -63.5 -43.5t-74.5 -16.5q-35 0 -63 12.5t-47.5 33.5t-29.5 49t-10 59z" />
    <glyph glyph-name="ae" unicode="&#xe6;" horiz-adv-x="786" 
d="M206 156q0 -36 46 -36q22 0 39.5 8t32.5 22q-9 27 -12 53l-2 19q-57 -9 -80.5 -26.5t-23.5 -39.5zM58 446q53 32 104.5 49t105.5 17q44 0 79 -17t59 -47q33 32 66.5 48t75.5 16q51 0 89 -19.5t63 -53t37.5 -78.5t12.5 -95q0 -23 -2.5 -41t-4.5 -27h-275q11 -42 39.5 -59
t66.5 -17q26 0 49.5 9.5t50.5 24.5l58 -110q-41 -29 -90.5 -43.5t-91.5 -14.5q-53 0 -95.5 19t-74.5 53q-27 -21 -50.5 -34.5t-45.5 -22t-44.5 -12t-47.5 -3.5q-35 0 -63 12.5t-47.5 33.5t-29.5 49t-10 59q0 78 63 123t207 60q-3 26 -18.5 38.5t-49.5 12.5q-27 0 -57 -10.5
t-69 -31.5zM604 302q0 33 -13.5 56.5t-48.5 23.5q-29 0 -48.5 -18t-25.5 -62h136z" />
    <glyph glyph-name="ccedilla" unicode="&#xe7;" horiz-adv-x="472" 
d="M32 250q0 62 22 111t59 82.5t85.5 51t101.5 17.5q45 0 82.5 -15t63.5 -41l-78 -106q-17 14 -30.5 19t-27.5 5q-48 0 -75 -33.5t-27 -90.5t27.5 -90.5t68.5 -33.5q24 0 43.5 10t36.5 22l68 -108q-38 -33 -83.5 -47.5t-84.5 -14.5q-53 0 -99 17.5t-80 51t-53.5 82.5
t-19.5 111zM241 4h98l-18 -44q26 -9 42 -26.5t16 -49.5q0 -27 -15.5 -46.5t-41.5 -33t-60.5 -20.5t-72.5 -8l-12 66q35 3 57.5 12.5t22.5 29.5q0 11 -10.5 21t-45.5 19z" />
    <glyph glyph-name="cacute" unicode="&#x107;" horiz-adv-x="472" 
d="M32 250q0 62 22 111t59 82.5t85.5 51t101.5 17.5q45 0 82.5 -15t63.5 -41l-78 -106q-17 14 -30.5 19t-27.5 5q-48 0 -75 -33.5t-27 -90.5t27.5 -90.5t68.5 -33.5q24 0 43.5 10t36.5 22l68 -108q-38 -33 -83.5 -47.5t-84.5 -14.5q-53 0 -99 17.5t-80 51t-53.5 82.5
t-19.5 111zM331 574h-124l88 154h164z" />
    <glyph glyph-name="ccircumflex" unicode="&#x109;" horiz-adv-x="472" 
d="M32 250q0 62 22 111t59 82.5t85.5 51t101.5 17.5q45 0 82.5 -15t63.5 -41l-78 -106q-17 14 -30.5 19t-27.5 5q-48 0 -75 -33.5t-27 -90.5t27.5 -90.5t68.5 -33.5q24 0 43.5 10t36.5 22l68 -108q-38 -33 -83.5 -47.5t-84.5 -14.5q-53 0 -99 17.5t-80 51t-53.5 82.5
t-19.5 111zM227 728h136l96 -154h-114l-48 74h-4l-48 -74h-114z" />
    <glyph glyph-name="ccaron" unicode="&#x10d;" horiz-adv-x="472" 
d="M32 250q0 62 22 111t59 82.5t85.5 51t101.5 17.5q45 0 82.5 -15t63.5 -41l-78 -106q-17 14 -30.5 19t-27.5 5q-48 0 -75 -33.5t-27 -90.5t27.5 -90.5t68.5 -33.5q24 0 43.5 10t36.5 22l68 -108q-38 -33 -83.5 -47.5t-84.5 -14.5q-53 0 -99 17.5t-80 51t-53.5 82.5
t-19.5 111zM131 728h114l48 -74h4l48 74h114l-96 -154h-136z" />
    <glyph glyph-name="cdotaccent" unicode="&#x10b;" horiz-adv-x="472" 
d="M32 250q0 62 22 111t59 82.5t85.5 51t101.5 17.5q45 0 82.5 -15t63.5 -41l-78 -106q-17 14 -30.5 19t-27.5 5q-48 0 -75 -33.5t-27 -90.5t27.5 -90.5t68.5 -33.5q24 0 43.5 10t36.5 22l68 -108q-38 -33 -83.5 -47.5t-84.5 -14.5q-53 0 -99 17.5t-80 51t-53.5 82.5
t-19.5 111zM295 562q-41 0 -66.5 24t-25.5 62t25.5 62t66.5 24t66.5 -24t25.5 -62t-25.5 -62t-66.5 -24z" />
    <glyph glyph-name="dcaron" unicode="&#x10f;" horiz-adv-x="630" 
d="M36 250q0 61 17.5 110t46 82.5t65.5 51.5t75 18q41 0 67 -13.5t49 -36.5l-6 72v162h172v-696h-140l-12 46h-4q-26 -26 -59.5 -42t-66.5 -16q-47 0 -84.5 18t-64 52t-41 82.5t-14.5 109.5zM212 252q0 -68 19.5 -96t54.5 -28q20 0 35 7.5t29 28.5v184q-15 14 -33 19t-35 5
q-27 0 -48.5 -27t-21.5 -93zM560 548l-6 226h108l-2 -74l-28 -152h-72z" />
    <glyph glyph-name="uni1E0D" unicode="&#x1e0d;" horiz-adv-x="580" 
d="M36 250q0 61 17.5 110t46 82.5t65.5 51.5t75 18q41 0 67 -13.5t49 -36.5l-6 72v162h172v-696h-140l-12 46h-4q-26 -26 -59.5 -42t-66.5 -16q-47 0 -84.5 18t-64 52t-41 82.5t-14.5 109.5zM212 252q0 -68 19.5 -96t54.5 -28q20 0 35 7.5t29 28.5v184q-15 14 -33 19t-35 5
q-27 0 -48.5 -27t-21.5 -93zM316 -234q-41 0 -66.5 24t-25.5 62t25.5 62t66.5 24t66.5 -24t25.5 -62t-25.5 -62t-66.5 -24z" />
    <glyph glyph-name="uni1E0F" unicode="&#x1e0f;" horiz-adv-x="580" 
d="M36 250q0 61 17.5 110t46 82.5t65.5 51.5t75 18q41 0 67 -13.5t49 -36.5l-6 72v162h172v-696h-140l-12 46h-4q-26 -26 -59.5 -42t-66.5 -16q-47 0 -84.5 18t-64 52t-41 82.5t-14.5 109.5zM212 252q0 -68 19.5 -96t54.5 -28q20 0 35 7.5t29 28.5v184q-15 14 -33 19t-35 5
q-27 0 -48.5 -27t-21.5 -93zM460 -196h-288v108h288v-108z" />
    <glyph glyph-name="dcroat" unicode="&#x111;" horiz-adv-x="580" 
d="M350 328q-15 14 -33 19t-35 5q-27 0 -48.5 -24.5t-21.5 -85.5q0 -64 19.5 -89t54.5 -25q20 0 35 7.5t29 28.5v164zM588 556l-66 -5v-551h-144l-10 40h-4q-25 -24 -57 -38t-67 -14q-47 0 -84.5 17t-64 49.5t-41 79.5t-14.5 106q0 58 17.5 105t46 79.5t65.5 50t75 17.5
q41 0 67 -13.5t49 -36.5l-6 72v36h-144v80h144v66h172v-66h66v-74z" />
    <glyph glyph-name="egrave" unicode="&#xe8;" horiz-adv-x="526" 
d="M32 250q0 61 20.5 109.5t54 82.5t76.5 52t89 18q55 0 96 -19t68 -52t40.5 -77t13.5 -94q0 -23 -2.5 -41t-4.5 -27h-285q12 -48 43 -66t73 -18q26 0 50.5 7.5t51.5 22.5l56 -102q-41 -29 -90.5 -43.5t-91.5 -14.5q-55 0 -102 17.5t-81.5 51t-54.5 82.5t-20 111zM344 306
q0 32 -14.5 54t-53.5 22q-29 0 -50.5 -17t-29.5 -59h148zM108 728h164l88 -154h-124z" />
    <glyph glyph-name="eacute" unicode="&#xe9;" horiz-adv-x="526" 
d="M32 250q0 61 20.5 109.5t54 82.5t76.5 52t89 18q55 0 96 -19t68 -52t40.5 -77t13.5 -94q0 -23 -2.5 -41t-4.5 -27h-285q12 -48 43 -66t73 -18q26 0 50.5 7.5t51.5 22.5l56 -102q-41 -29 -90.5 -43.5t-91.5 -14.5q-55 0 -102 17.5t-81.5 51t-54.5 82.5t-20 111zM344 306
q0 32 -14.5 54t-53.5 22q-29 0 -50.5 -17t-29.5 -59h148zM308 574h-124l88 154h164z" />
    <glyph glyph-name="ecircumflex" unicode="&#xea;" horiz-adv-x="526" 
d="M32 250q0 61 20.5 109.5t54 82.5t76.5 52t89 18q55 0 96 -19t68 -52t40.5 -77t13.5 -94q0 -23 -2.5 -41t-4.5 -27h-285q12 -48 43 -66t73 -18q26 0 50.5 7.5t51.5 22.5l56 -102q-41 -29 -90.5 -43.5t-91.5 -14.5q-55 0 -102 17.5t-81.5 51t-54.5 82.5t-20 111zM344 306
q0 32 -14.5 54t-53.5 22q-29 0 -50.5 -17t-29.5 -59h148zM204 728h136l96 -154h-114l-48 74h-4l-48 -74h-114z" />
    <glyph glyph-name="ecaron" unicode="&#x11b;" horiz-adv-x="526" 
d="M32 250q0 61 20.5 109.5t54 82.5t76.5 52t89 18q55 0 96 -19t68 -52t40.5 -77t13.5 -94q0 -23 -2.5 -41t-4.5 -27h-285q12 -48 43 -66t73 -18q26 0 50.5 7.5t51.5 22.5l56 -102q-41 -29 -90.5 -43.5t-91.5 -14.5q-55 0 -102 17.5t-81.5 51t-54.5 82.5t-20 111zM344 306
q0 32 -14.5 54t-53.5 22q-29 0 -50.5 -17t-29.5 -59h148zM108 728h114l48 -74h4l48 74h114l-96 -154h-136z" />
    <glyph glyph-name="edieresis" unicode="&#xeb;" horiz-adv-x="526" 
d="M32 250q0 61 20.5 109.5t54 82.5t76.5 52t89 18q55 0 96 -19t68 -52t40.5 -77t13.5 -94q0 -23 -2.5 -41t-4.5 -27h-285q12 -48 43 -66t73 -18q26 0 50.5 7.5t51.5 22.5l56 -102q-41 -29 -90.5 -43.5t-91.5 -14.5q-55 0 -102 17.5t-81.5 51t-54.5 82.5t-20 111zM344 306
q0 32 -14.5 54t-53.5 22q-29 0 -50.5 -17t-29.5 -59h148zM168 564q-35 0 -56.5 22.5t-21.5 55.5t21.5 55.5t56.5 22.5t56.5 -22.5t21.5 -55.5t-21.5 -55.5t-56.5 -22.5zM376 564q-35 0 -56.5 22.5t-21.5 55.5t21.5 55.5t56.5 22.5t56.5 -22.5t21.5 -55.5t-21.5 -55.5
t-56.5 -22.5z" />
    <glyph glyph-name="emacron" unicode="&#x113;" horiz-adv-x="526" 
d="M32 250q0 61 20.5 109.5t54 82.5t76.5 52t89 18q55 0 96 -19t68 -52t40.5 -77t13.5 -94q0 -23 -2.5 -41t-4.5 -27h-285q12 -48 43 -66t73 -18q26 0 50.5 7.5t51.5 22.5l56 -102q-41 -29 -90.5 -43.5t-91.5 -14.5q-55 0 -102 17.5t-81.5 51t-54.5 82.5t-20 111zM344 306
q0 32 -14.5 54t-53.5 22q-29 0 -50.5 -17t-29.5 -59h148zM128 696h288v-108h-288v108z" />
    <glyph glyph-name="ebreve" unicode="&#x115;" horiz-adv-x="526" 
d="M32 250q0 61 20.5 109.5t54 82.5t76.5 52t89 18q55 0 96 -19t68 -52t40.5 -77t13.5 -94q0 -23 -2.5 -41t-4.5 -27h-285q12 -48 43 -66t73 -18q26 0 50.5 7.5t51.5 22.5l56 -102q-41 -29 -90.5 -43.5t-91.5 -14.5q-55 0 -102 17.5t-81.5 51t-54.5 82.5t-20 111zM344 306
q0 32 -14.5 54t-53.5 22q-29 0 -50.5 -17t-29.5 -59h148zM272 574q-36 0 -62.5 11.5t-44.5 31t-27 46t-10 55.5h94q3 -23 15 -37.5t35 -14.5t35 14.5t15 37.5h94q-1 -29 -10 -55.5t-27 -46t-44.5 -31t-62.5 -11.5z" />
    <glyph glyph-name="edotaccent" unicode="&#x117;" horiz-adv-x="526" 
d="M32 250q0 61 20.5 109.5t54 82.5t76.5 52t89 18q55 0 96 -19t68 -52t40.5 -77t13.5 -94q0 -23 -2.5 -41t-4.5 -27h-285q12 -48 43 -66t73 -18q26 0 50.5 7.5t51.5 22.5l56 -102q-41 -29 -90.5 -43.5t-91.5 -14.5q-55 0 -102 17.5t-81.5 51t-54.5 82.5t-20 111zM344 306
q0 32 -14.5 54t-53.5 22q-29 0 -50.5 -17t-29.5 -59h148zM272 562q-41 0 -66.5 24t-25.5 62t25.5 62t66.5 24t66.5 -24t25.5 -62t-25.5 -62t-66.5 -24z" />
    <glyph glyph-name="uni1EB9" unicode="&#x1eb9;" horiz-adv-x="526" 
d="M32 250q0 61 20.5 109.5t54 82.5t76.5 52t89 18q55 0 96 -19t68 -52t40.5 -77t13.5 -94q0 -23 -2.5 -41t-4.5 -27h-285q12 -48 43 -66t73 -18q26 0 50.5 7.5t51.5 22.5l56 -102q-41 -29 -90.5 -43.5t-91.5 -14.5q-55 0 -102 17.5t-81.5 51t-54.5 82.5t-20 111zM344 306
q0 32 -14.5 54t-53.5 22q-29 0 -50.5 -17t-29.5 -59h148zM272 -234q-41 0 -66.5 24t-25.5 62t25.5 62t66.5 24t66.5 -24t25.5 -62t-25.5 -62t-66.5 -24z" />
    <glyph glyph-name="uni1EBB" unicode="&#x1ebb;" horiz-adv-x="526" 
d="M32 250q0 61 20.5 109.5t54 82.5t76.5 52t89 18q55 0 96 -19t68 -52t40.5 -77t13.5 -94q0 -23 -2.5 -41t-4.5 -27h-285q12 -48 43 -66t73 -18q26 0 50.5 7.5t51.5 22.5l56 -102q-41 -29 -90.5 -43.5t-91.5 -14.5q-55 0 -102 17.5t-81.5 51t-54.5 82.5t-20 111zM344 306
q0 32 -14.5 54t-53.5 22q-29 0 -50.5 -17t-29.5 -59h148zM222 624q17 2 28.5 7t11.5 17t-17 19.5t-61 10.5l20 84q52 -2 86.5 -9.5t55.5 -20t29.5 -29.5t8.5 -37q0 -27 -12 -46.5t-32.5 -33t-47.5 -20.5t-58 -8z" />
    <glyph glyph-name="uni1EBD" unicode="&#x1ebd;" horiz-adv-x="526" 
d="M32 250q0 61 20.5 109.5t54 82.5t76.5 52t89 18q55 0 96 -19t68 -52t40.5 -77t13.5 -94q0 -23 -2.5 -41t-4.5 -27h-285q12 -48 43 -66t73 -18q26 0 50.5 7.5t51.5 22.5l56 -102q-41 -29 -90.5 -43.5t-91.5 -14.5q-55 0 -102 17.5t-81.5 51t-54.5 82.5t-20 111zM344 306
q0 32 -14.5 54t-53.5 22q-29 0 -50.5 -17t-29.5 -59h148zM96 574q9 77 40 111.5t72 34.5q20 0 37.5 -6.5t32.5 -14.5t27 -14.5t23 -6.5q12 0 20 9t14 33h86q-9 -77 -40 -111.5t-72 -34.5q-20 0 -37.5 6.5t-32.5 14.5t-27.5 14.5t-22.5 6.5q-12 0 -20 -9t-14 -33h-86v0z" />
    <glyph glyph-name="uni1EBF" unicode="&#x1ebf;" horiz-adv-x="526" 
d="M32 250q0 61 20.5 109.5t54 82.5t76.5 52t89 18q55 0 96 -19t68 -52t40.5 -77t13.5 -94q0 -23 -2.5 -41t-4.5 -27h-285q12 -48 43 -66t73 -18q26 0 50.5 7.5t51.5 22.5l56 -102q-41 -29 -90.5 -43.5t-91.5 -14.5q-55 0 -102 17.5t-81.5 51t-54.5 82.5t-20 111zM344 306
q0 32 -14.5 54t-53.5 22q-29 0 -50.5 -17t-29.5 -59h148zM204 706h136l80 -132h-104l-42 62h-4l-42 -62h-104zM452 768h124l-96 -120h-94z" />
    <glyph glyph-name="uni1EC1" unicode="&#x1ec1;" horiz-adv-x="526" 
d="M32 250q0 61 20.5 109.5t54 82.5t76.5 52t89 18q55 0 96 -19t68 -52t40.5 -77t13.5 -94q0 -23 -2.5 -41t-4.5 -27h-285q12 -48 43 -66t73 -18q26 0 50.5 7.5t51.5 22.5l56 -102q-41 -29 -90.5 -43.5t-91.5 -14.5q-55 0 -102 17.5t-81.5 51t-54.5 82.5t-20 111zM344 306
q0 32 -14.5 54t-53.5 22q-29 0 -50.5 -17t-29.5 -59h148zM204 706h136l80 -132h-104l-42 62h-4l-42 -62h-104zM540 648h-94l-96 120h124z" />
    <glyph glyph-name="uni1EC3" unicode="&#x1ec3;" horiz-adv-x="526" 
d="M32 250q0 61 20.5 109.5t54 82.5t76.5 52t89 18q55 0 96 -19t68 -52t40.5 -77t13.5 -94q0 -23 -2.5 -41t-4.5 -27h-285q12 -48 43 -66t73 -18q26 0 50.5 7.5t51.5 22.5l56 -102q-41 -29 -90.5 -43.5t-91.5 -14.5q-55 0 -102 17.5t-81.5 51t-54.5 82.5t-20 111zM344 306
q0 32 -14.5 54t-53.5 22q-29 0 -50.5 -17t-29.5 -59h148zM204 706h136l80 -132h-104l-42 62h-4l-42 -62h-104zM408 684q12 2 19 7t7 17t-13 19.5t-51 10.5l16 70q46 -2 76.5 -8.5t48.5 -17t25.5 -25t7.5 -31.5q0 -26 -10 -43.5t-27 -28.5t-40 -17t-49 -9z" />
    <glyph glyph-name="uni1EC5" unicode="&#x1ec5;" horiz-adv-x="526" 
d="M32 250q0 61 20.5 109.5t54 82.5t76.5 52t89 18q55 0 96 -19t68 -52t40.5 -77t13.5 -94q0 -23 -2.5 -41t-4.5 -27h-285q12 -48 43 -66t73 -18q26 0 50.5 7.5t51.5 22.5l56 -102q-41 -29 -90.5 -43.5t-91.5 -14.5q-55 0 -102 17.5t-81.5 51t-54.5 82.5t-20 111zM344 306
q0 32 -14.5 54t-53.5 22q-29 0 -50.5 -17t-29.5 -59h148zM194 688h156l78 -114h-110l-44 56h-4l-44 -56h-110zM120 724q8 66 35.5 94t60.5 28q20 0 35 -5.5t26.5 -12.5t21 -12.5t19.5 -5.5q12 0 20.5 8t13.5 28h72q-8 -66 -35.5 -94t-60.5 -28q-20 0 -35 5.5t-26.5 12.5
t-21 12.5t-19.5 5.5q-12 0 -20.5 -8t-13.5 -28h-72z" />
    <glyph glyph-name="uni1EC7" unicode="&#x1ec7;" horiz-adv-x="526" 
d="M32 250q0 61 20.5 109.5t54 82.5t76.5 52t89 18q55 0 96 -19t68 -52t40.5 -77t13.5 -94q0 -23 -2.5 -41t-4.5 -27h-285q12 -48 43 -66t73 -18q26 0 50.5 7.5t51.5 22.5l56 -102q-41 -29 -90.5 -43.5t-91.5 -14.5q-55 0 -102 17.5t-81.5 51t-54.5 82.5t-20 111zM344 306
q0 32 -14.5 54t-53.5 22q-29 0 -50.5 -17t-29.5 -59h148zM204 728h136l96 -154h-114l-48 74h-4l-48 -74h-114zM272 -234q-41 0 -66.5 24t-25.5 62t25.5 62t66.5 24t66.5 -24t25.5 -62t-25.5 -62t-66.5 -24z" />
    <glyph glyph-name="eogonek" unicode="&#x119;" horiz-adv-x="526" 
d="M32 250q0 61 20.5 109.5t54 82.5t76.5 52t89 18q55 0 96 -19t68 -52t40.5 -77t13.5 -94q0 -23 -2.5 -41t-4.5 -27h-285q12 -48 43 -66t73 -18q26 0 50.5 7.5t51.5 22.5l56 -102q-33 -23 -53.5 -39.5t-32.5 -30.5t-16 -27t-4 -27q0 -17 12 -25.5t29 -8.5q9 0 17.5 3.5
t15.5 8.5l34 -76q-21 -17 -52.5 -26.5t-57.5 -9.5q-47 0 -78.5 23.5t-31.5 70.5q0 36 18 63.5t36 44.5q-8 -2 -11.5 -2h-6.5q-55 0 -102 17.5t-81.5 51t-54.5 82.5t-20 111zM344 306q0 32 -14.5 54t-53.5 22q-29 0 -50.5 -17t-29.5 -59h148z" />
    <glyph glyph-name="gcircumflex" unicode="&#x11d;" horiz-adv-x="546" 
d="M170 -54q0 -24 27 -35t71 -11q42 0 70 12.5t28 33.5q0 20 -17.5 25t-49.5 5h-39q-30 0 -45.5 1.5t-26.5 4.5q-9 -9 -13.5 -17t-4.5 -19zM30 -82q0 59 70 96v4q-20 14 -33 34t-13 52q0 26 15 51t41 43v4q-27 18 -47.5 51t-20.5 77q0 46 18 80.5t48 57t68.5 33.5t79.5 11
q44 0 80 -12h186v-124h-72q3 -9 5.5 -23t2.5 -29q0 -44 -16 -75.5t-43 -51.5t-64 -29.5t-79 -9.5q-25 0 -56 7q-8 -7 -10 -12.5t-2 -16.5q0 -17 16 -23.5t54 -6.5h75q94 0 145.5 -30.5t51.5 -99.5q0 -41 -20.5 -74.5t-58 -57.5t-91 -37t-120.5 -13q-43 0 -81 6.5t-66.5 21.5
t-45.5 38.5t-17 57.5zM256 260q24 0 39 17t15 53q0 35 -15 51.5t-39 16.5t-39 -16.5t-15 -51.5q0 -36 15 -53t39 -17zM188 728h136l96 -154h-114l-48 74h-4l-48 -74h-114z" />
    <glyph glyph-name="gbreve" unicode="&#x11f;" horiz-adv-x="546" 
d="M170 -54q0 -24 27 -35t71 -11q42 0 70 12.5t28 33.5q0 20 -17.5 25t-49.5 5h-39q-30 0 -45.5 1.5t-26.5 4.5q-9 -9 -13.5 -17t-4.5 -19zM30 -82q0 59 70 96v4q-20 14 -33 34t-13 52q0 26 15 51t41 43v4q-27 18 -47.5 51t-20.5 77q0 46 18 80.5t48 57t68.5 33.5t79.5 11
q44 0 80 -12h186v-124h-72q3 -9 5.5 -23t2.5 -29q0 -44 -16 -75.5t-43 -51.5t-64 -29.5t-79 -9.5q-25 0 -56 7q-8 -7 -10 -12.5t-2 -16.5q0 -17 16 -23.5t54 -6.5h75q94 0 145.5 -30.5t51.5 -99.5q0 -41 -20.5 -74.5t-58 -57.5t-91 -37t-120.5 -13q-43 0 -81 6.5t-66.5 21.5
t-45.5 38.5t-17 57.5zM256 260q24 0 39 17t15 53q0 35 -15 51.5t-39 16.5t-39 -16.5t-15 -51.5q0 -36 15 -53t39 -17zM256 574q-36 0 -62.5 11.5t-44.5 31t-27 46t-10 55.5h94q3 -23 15 -37.5t35 -14.5t35 14.5t15 37.5h94q-1 -29 -10 -55.5t-27 -46t-44.5 -31t-62.5 -11.5z
" />
    <glyph glyph-name="gdotaccent" unicode="&#x121;" horiz-adv-x="546" 
d="M170 -54q0 -24 27 -35t71 -11q42 0 70 12.5t28 33.5q0 20 -17.5 25t-49.5 5h-39q-30 0 -45.5 1.5t-26.5 4.5q-9 -9 -13.5 -17t-4.5 -19zM30 -82q0 59 70 96v4q-20 14 -33 34t-13 52q0 26 15 51t41 43v4q-27 18 -47.5 51t-20.5 77q0 46 18 80.5t48 57t68.5 33.5t79.5 11
q44 0 80 -12h186v-124h-72q3 -9 5.5 -23t2.5 -29q0 -44 -16 -75.5t-43 -51.5t-64 -29.5t-79 -9.5q-25 0 -56 7q-8 -7 -10 -12.5t-2 -16.5q0 -17 16 -23.5t54 -6.5h75q94 0 145.5 -30.5t51.5 -99.5q0 -41 -20.5 -74.5t-58 -57.5t-91 -37t-120.5 -13q-43 0 -81 6.5t-66.5 21.5
t-45.5 38.5t-17 57.5zM256 260q24 0 39 17t15 53q0 35 -15 51.5t-39 16.5t-39 -16.5t-15 -51.5q0 -36 15 -53t39 -17zM256 562q-41 0 -66.5 24t-25.5 62t25.5 62t66.5 24t66.5 -24t25.5 -62t-25.5 -62t-66.5 -24z" />
    <glyph glyph-name="uni0123" unicode="&#x123;" horiz-adv-x="546" 
d="M170 -54q0 -24 27 -35t71 -11q42 0 70 12.5t28 33.5q0 20 -17.5 25t-49.5 5h-39q-30 0 -45.5 1.5t-26.5 4.5q-9 -9 -13.5 -17t-4.5 -19zM30 -82q0 59 70 96v4q-20 14 -33 34t-13 52q0 26 15 51t41 43v4q-27 18 -47.5 51t-20.5 77q0 46 18 80.5t48 57t68.5 33.5t79.5 11
q44 0 80 -12h186v-124h-72q3 -9 5.5 -23t2.5 -29q0 -44 -16 -75.5t-43 -51.5t-64 -29.5t-79 -9.5q-25 0 -56 7q-8 -7 -10 -12.5t-2 -16.5q0 -17 16 -23.5t54 -6.5h75q94 0 145.5 -30.5t51.5 -99.5q0 -41 -20.5 -74.5t-58 -57.5t-91 -37t-120.5 -13q-43 0 -81 6.5t-66.5 21.5
t-45.5 38.5t-17 57.5zM256 260q24 0 39 17t15 53q0 35 -15 51.5t-39 16.5t-39 -16.5t-15 -51.5q0 -36 15 -53t39 -17zM294 546q-37 3 -62 9.5t-40 17t-21.5 25t-6.5 34.5q0 27 15.5 46.5t41.5 33t60.5 20t72.5 8.5l12 -66q-35 -3 -57.5 -10t-22.5 -24q0 -12 8.5 -20
t31.5 -14l-32 -60v0z" />
    <glyph glyph-name="gcaron" unicode="&#x1e7;" horiz-adv-x="546" 
d="M170 -54q0 -24 27 -35t71 -11q42 0 70 12.5t28 33.5q0 20 -17.5 25t-49.5 5h-39q-30 0 -45.5 1.5t-26.5 4.5q-9 -9 -13.5 -17t-4.5 -19zM30 -82q0 59 70 96v4q-20 14 -33 34t-13 52q0 26 15 51t41 43v4q-27 18 -47.5 51t-20.5 77q0 46 18 80.5t48 57t68.5 33.5t79.5 11
q44 0 80 -12h186v-124h-72q3 -9 5.5 -23t2.5 -29q0 -44 -16 -75.5t-43 -51.5t-64 -29.5t-79 -9.5q-25 0 -56 7q-8 -7 -10 -12.5t-2 -16.5q0 -17 16 -23.5t54 -6.5h75q94 0 145.5 -30.5t51.5 -99.5q0 -41 -20.5 -74.5t-58 -57.5t-91 -37t-120.5 -13q-43 0 -81 6.5t-66.5 21.5
t-45.5 38.5t-17 57.5zM256 260q24 0 39 17t15 53q0 35 -15 51.5t-39 16.5t-39 -16.5t-15 -51.5q0 -36 15 -53t39 -17zM92 728h114l48 -74h4l48 74h114l-96 -154h-136z" />
    <glyph glyph-name="uni1E21" unicode="&#x1e21;" horiz-adv-x="546" 
d="M170 -54q0 -24 27 -35t71 -11q42 0 70 12.5t28 33.5q0 20 -17.5 25t-49.5 5h-39q-30 0 -45.5 1.5t-26.5 4.5q-9 -9 -13.5 -17t-4.5 -19zM30 -82q0 59 70 96v4q-20 14 -33 34t-13 52q0 26 15 51t41 43v4q-27 18 -47.5 51t-20.5 77q0 46 18 80.5t48 57t68.5 33.5t79.5 11
q44 0 80 -12h186v-124h-72q3 -9 5.5 -23t2.5 -29q0 -44 -16 -75.5t-43 -51.5t-64 -29.5t-79 -9.5q-25 0 -56 7q-8 -7 -10 -12.5t-2 -16.5q0 -17 16 -23.5t54 -6.5h75q94 0 145.5 -30.5t51.5 -99.5q0 -41 -20.5 -74.5t-58 -57.5t-91 -37t-120.5 -13q-43 0 -81 6.5t-66.5 21.5
t-45.5 38.5t-17 57.5zM256 260q24 0 39 17t15 53q0 35 -15 51.5t-39 16.5t-39 -16.5t-15 -51.5q0 -36 15 -53t39 -17zM112 696h288v-108h-288v108z" />
    <glyph glyph-name="uni00670303" horiz-adv-x="546" 
d="M170 -54q0 -24 27 -35t71 -11q42 0 70 12.5t28 33.5q0 20 -17.5 25t-49.5 5h-39q-30 0 -45.5 1.5t-26.5 4.5q-9 -9 -13.5 -17t-4.5 -19zM30 -82q0 59 70 96v4q-20 14 -33 34t-13 52q0 26 15 51t41 43v4q-27 18 -47.5 51t-20.5 77q0 46 18 80.5t48 57t68.5 33.5t79.5 11
q44 0 80 -12h186v-124h-72q3 -9 5.5 -23t2.5 -29q0 -44 -16 -75.5t-43 -51.5t-64 -29.5t-79 -9.5q-25 0 -56 7q-8 -7 -10 -12.5t-2 -16.5q0 -17 16 -23.5t54 -6.5h75q94 0 145.5 -30.5t51.5 -99.5q0 -41 -20.5 -74.5t-58 -57.5t-91 -37t-120.5 -13q-43 0 -81 6.5t-66.5 21.5
t-45.5 38.5t-17 57.5zM256 260q24 0 39 17t15 53q0 35 -15 51.5t-39 16.5t-39 -16.5t-15 -51.5q0 -36 15 -53t39 -17zM80 574q9 77 40 111.5t72 34.5q20 0 37.5 -6.5t32.5 -14.5t27 -14.5t23 -6.5q12 0 20 9t14 33h86q-9 -77 -40 -111.5t-72 -34.5q-20 0 -37.5 6.5
t-32.5 14.5t-27.5 14.5t-22.5 6.5q-12 0 -20 -9t-14 -33h-86v0z" />
    <glyph glyph-name="hcircumflex" unicode="&#x125;" horiz-adv-x="582" 
d="M58 696h172v-162l-8 -86q26 23 62.5 43.5t87.5 20.5q82 0 119 -55.5t37 -148.5v-308h-172v286q0 48 -12 64t-38 16q-24 0 -40 -10t-36 -28v-328h-172v696zM-38 750l96 124h168l96 -124h-130l-48 58h-4l-48 -58h-130z" />
    <glyph glyph-name="uni1E25" unicode="&#x1e25;" horiz-adv-x="582" 
d="M58 696h172v-162l-8 -86q26 23 62.5 43.5t87.5 20.5q82 0 119 -55.5t37 -148.5v-308h-172v286q0 48 -12 64t-38 16q-24 0 -40 -10t-36 -28v-328h-172v696zM296 -234q-41 0 -66.5 24t-25.5 62t25.5 62t66.5 24t66.5 -24t25.5 -62t-25.5 -62t-66.5 -24z" />
    <glyph glyph-name="uni1E2B" unicode="&#x1e2b;" horiz-adv-x="582" 
d="M58 696h172v-162l-8 -86q26 23 62.5 43.5t87.5 20.5q82 0 119 -55.5t37 -148.5v-308h-172v286q0 48 -12 64t-38 16q-24 0 -40 -10t-36 -28v-328h-172v696zM296 -212q-36 0 -62.5 11.5t-44.5 31t-27 46t-10 55.5h94q3 -23 15 -37.5t35 -14.5t35 14.5t15 37.5h94
q-1 -29 -10 -55.5t-27 -46t-44.5 -31t-62.5 -11.5z" />
    <glyph glyph-name="hbar" unicode="&#x127;" horiz-adv-x="582" 
d="M222 428q26 23 62.5 43.5t87.5 20.5q82 0 119 -55.5t37 -148.5v-288h-172v266q0 48 -12 64t-38 16q-24 0 -40 -10t-36 -28v-308h-172v550h-66v74l66 5v67h172v-66h164v-80h-164v-36z" />
    <glyph glyph-name="igrave" unicode="&#xec;" horiz-adv-x="288" 
d="M58 500h172v-500h-172v500zM-20 728h164l88 -154h-124z" />
    <glyph glyph-name="iacute" unicode="&#xed;" horiz-adv-x="288" 
d="M58 500h172v-500h-172v500zM180 574h-124l88 154h164z" />
    <glyph glyph-name="icircumflex" unicode="&#xee;" horiz-adv-x="288" 
d="M58 500h172v-500h-172v500zM76 728h136l96 -154h-114l-48 74h-4l-48 -74h-114z" />
    <glyph glyph-name="itilde" unicode="&#x129;" horiz-adv-x="288" 
d="M58 500h172v-500h-172v500zM-32 574q9 77 40 111.5t72 34.5q20 0 37.5 -6.5t32.5 -14.5t27 -14.5t23 -6.5q12 0 20 9t14 33h86q-9 -77 -40 -111.5t-72 -34.5q-20 0 -37.5 6.5t-32.5 14.5t-27.5 14.5t-22.5 6.5q-12 0 -20 -9t-14 -33h-86v0z" />
    <glyph glyph-name="idieresis" unicode="&#xef;" horiz-adv-x="288" 
d="M58 500h172v-500h-172v500zM40 564q-35 0 -56.5 22.5t-21.5 55.5t21.5 55.5t56.5 22.5t56.5 -22.5t21.5 -55.5t-21.5 -55.5t-56.5 -22.5zM248 564q-35 0 -56.5 22.5t-21.5 55.5t21.5 55.5t56.5 22.5t56.5 -22.5t21.5 -55.5t-21.5 -55.5t-56.5 -22.5z" />
    <glyph glyph-name="imacron" unicode="&#x12b;" horiz-adv-x="288" 
d="M58 500h172v-500h-172v500zM0 696h288v-108h-288v108z" />
    <glyph glyph-name="uni01D0" unicode="&#x1d0;" horiz-adv-x="288" 
d="M58 500h172v-500h-172v500zM-20 728h114l48 -74h4l48 74h114l-96 -154h-136z" />
    <glyph glyph-name="uni1EC9" unicode="&#x1ec9;" horiz-adv-x="288" 
d="M58 500h172v-500h-172v500zM94 624q17 2 28.5 7t11.5 17t-17 19.5t-61 10.5l20 84q52 -2 86.5 -9.5t55.5 -20t29.5 -29.5t8.5 -37q0 -27 -12 -46.5t-32.5 -33t-47.5 -20.5t-58 -8z" />
    <glyph glyph-name="uni1ECB" unicode="&#x1ecb;" horiz-adv-x="288" 
d="M144 562q-42 0 -69 24t-27 62t27 62t69 24t69 -24t27 -62t-27 -62t-69 -24zM58 500h172v-500h-172v500zM144 -234q-41 0 -66.5 24t-25.5 62t25.5 62t66.5 24t66.5 -24t25.5 -62t-25.5 -62t-66.5 -24z" />
    <glyph glyph-name="iogonek" unicode="&#x12f;" horiz-adv-x="288" 
d="M58 500h172v-500q-44 -12 -59 -34.5t-15 -43.5q0 -17 12 -25.5t29 -8.5q8 0 16.5 3.5t16.5 8.5l34 -76q-21 -17 -52.5 -26.5t-57.5 -9.5q-47 0 -79.5 23.5t-32.5 70.5q0 22 7 41t17 34t21.5 26t20.5 17h-50v500zM144 562q-42 0 -69 24t-27 62t27 62t69 24t69 -24t27 -62
t-27 -62t-69 -24z" />
    <glyph glyph-name="iogonek.d" horiz-adv-x="288" 
d="M58 500h172v-500q-44 -12 -59 -34.5t-15 -43.5q0 -17 12 -25.5t29 -8.5q8 0 16.5 3.5t16.5 8.5l34 -76q-21 -17 -52.5 -26.5t-57.5 -9.5q-47 0 -79.5 23.5t-32.5 70.5q0 22 7 41t17 34t21.5 26t20.5 17h-50v500z" />
    <glyph glyph-name="dotlessi" unicode="&#x131;" horiz-adv-x="288" 
d="M58 500h172v-500h-172v500z" />
    <glyph glyph-name="jcircumflex" unicode="&#x135;" horiz-adv-x="290" 
d="M60 500h172v-474q0 -42 -9 -80.5t-31.5 -68.5t-60 -47.5t-93.5 -17.5q-35 0 -56 4t-38 10l30 126q11 -3 19 -4.5t17 -1.5q27 0 38.5 16.5t11.5 57.5v480zM78 728h136l96 -154h-114l-48 74h-4l-48 -74h-114z" />
    <glyph glyph-name="uni0137" unicode="&#x137;" horiz-adv-x="568" 
d="M58 696h168v-370h4l138 174h186l-178 -208l188 -292h-186l-100 178l-52 -58v-120h-168v696zM266 -40q73 -6 101.5 -26.5t28.5 -59.5q0 -27 -15.5 -46.5t-41.5 -33t-60.5 -20.5t-72.5 -8l-12 66q35 3 57.5 10t22.5 24q0 12 -8.5 20t-31.5 14l32 60v0z" />
    <glyph glyph-name="kgreenlandic" unicode="&#x138;" horiz-adv-x="568" 
d="M58 500h172v-178h4l134 178h186l-174 -208l184 -292h-186l-100 172l-48 -58v-114h-172v500z" />
    <glyph glyph-name="lacute" unicode="&#x13a;" horiz-adv-x="298" 
d="M58 696h172v-526q0 -26 9.5 -35t18.5 -9h8.5t9.5 2l20 -126q-14 -6 -34.5 -10t-49.5 -4q-44 0 -73.5 13.5t-47.5 38.5t-25.5 59.5t-7.5 76.5v520zM201 756h-136l78 124h180z" />
    <glyph glyph-name="lcaron" unicode="&#x13e;" horiz-adv-x="338" 
d="M58 696h172v-526q0 -26 9.5 -35t18.5 -9h8.5t9.5 2l20 -126q-14 -6 -34.5 -10t-49.5 -4q-44 0 -73.5 13.5t-47.5 38.5t-25.5 59.5t-7.5 76.5v520zM268 548l-6 226h108l-2 -74l-28 -152h-72z" />
    <glyph glyph-name="ldot" unicode="&#x140;" horiz-adv-x="488" 
d="M58 696h172v-526q0 -26 9.5 -35t18.5 -9h8.5t9.5 2l20 -126q-14 -6 -34.5 -10t-49.5 -4q-44 0 -73.5 13.5t-47.5 38.5t-25.5 59.5t-7.5 76.5v520zM288 330q0 44 28 74t72 30t72 -30t28 -74t-28 -74t-72 -30t-72 30t-28 74z" />
    <glyph glyph-name="uni013C" unicode="&#x13c;" horiz-adv-x="298" 
d="M58 696h172v-526q0 -26 9.5 -35t18.5 -9h8.5t9.5 2l20 -126q-14 -6 -34.5 -10t-49.5 -4q-44 0 -73.5 13.5t-47.5 38.5t-25.5 59.5t-7.5 76.5v520zM160 -40q73 -6 101.5 -26.5t28.5 -59.5q0 -27 -15.5 -46.5t-41.5 -33t-60.5 -20.5t-72.5 -8l-12 66q35 3 57.5 10t22.5 24
q0 12 -8.5 20t-31.5 14l32 60v0z" />
    <glyph glyph-name="uni1E37" unicode="&#x1e37;" horiz-adv-x="298" 
d="M58 696h172v-526q0 -26 9.5 -35t18.5 -9h8.5t9.5 2l20 -126q-14 -6 -34.5 -10t-49.5 -4q-44 0 -73.5 13.5t-47.5 38.5t-25.5 59.5t-7.5 76.5v520zM198 -234q-41 0 -66.5 24t-25.5 62t25.5 62t66.5 24t66.5 -24t25.5 -62t-25.5 -62t-66.5 -24z" />
    <glyph glyph-name="uni1E39" unicode="&#x1e39;" horiz-adv-x="298" 
d="M58 696h172v-526q0 -26 9.5 -35t18.5 -9h8.5t9.5 2l20 -126q-14 -6 -34.5 -10t-49.5 -4q-44 0 -73.5 13.5t-47.5 38.5t-25.5 59.5t-7.5 76.5v520zM-1 904h288v-108h-288v108zM198 -234q-41 0 -66.5 24t-25.5 62t25.5 62t66.5 24t66.5 -24t25.5 -62t-25.5 -62t-66.5 -24z
" />
    <glyph glyph-name="uni1E3B" unicode="&#x1e3b;" horiz-adv-x="298" 
d="M58 696h172v-526q0 -26 9.5 -35t18.5 -9h8.5t9.5 2l20 -126q-14 -6 -34.5 -10t-49.5 -4q-44 0 -73.5 13.5t-47.5 38.5t-25.5 59.5t-7.5 76.5v520zM342 -196h-288v108h288v-108z" />
    <glyph glyph-name="lslash" unicode="&#x142;" horiz-adv-x="318" 
d="M308 2q-14 -6 -34.5 -10t-49.5 -4q-44 0 -73.5 13.5t-47.5 38.5t-25.5 59.5t-7.5 76.5v79l-58 -35v136l58 35v305h172v-221l64 37v-136l-64 -37v-169q0 -26 9.5 -35t18.5 -9h8.5t9.5 2z" />
    <glyph glyph-name="uni1E43" unicode="&#x1e43;" horiz-adv-x="868" 
d="M58 500h140l12 -61h4q30 29 64.5 51t85.5 22t84.5 -20.5t53.5 -59.5q31 32 67 56t87 24q82 0 120 -55.5t38 -148.5v-308h-172v286q0 48 -12 64t-38 16q-32 0 -70 -38v-328h-172v286q0 48 -12 64t-38 16q-32 0 -70 -38v-328h-172v500zM444 -234q-41 0 -66.5 24t-25.5 62
t25.5 62t66.5 24t66.5 -24t25.5 -62t-25.5 -62t-66.5 -24z" />
    <glyph glyph-name="nacute" unicode="&#x144;" horiz-adv-x="582" 
d="M58 500h140l12 -60h4q30 29 68.5 50.5t89.5 21.5q82 0 119 -55.5t37 -148.5v-308h-172v286q0 48 -12 64t-38 16q-24 0 -40 -10t-36 -28v-328h-172v500zM350 574h-124l88 154h164z" />
    <glyph glyph-name="ncaron" unicode="&#x148;" horiz-adv-x="582" 
d="M58 500h140l12 -60h4q30 29 68.5 50.5t89.5 21.5q82 0 119 -55.5t37 -148.5v-308h-172v286q0 48 -12 64t-38 16q-24 0 -40 -10t-36 -28v-328h-172v500zM150 728h114l48 -74h4l48 74h114l-96 -154h-136z" />
    <glyph glyph-name="ntilde" unicode="&#xf1;" horiz-adv-x="582" 
d="M58 500h140l12 -60h4q30 29 68.5 50.5t89.5 21.5q82 0 119 -55.5t37 -148.5v-308h-172v286q0 48 -12 64t-38 16q-24 0 -40 -10t-36 -28v-328h-172v500zM138 574q9 77 40 111.5t72 34.5q20 0 37.5 -6.5t32.5 -14.5t27 -14.5t23 -6.5q12 0 20 9t14 33h86q-9 -77 -40 -111.5
t-72 -34.5q-20 0 -37.5 6.5t-32.5 14.5t-27.5 14.5t-22.5 6.5q-12 0 -20 -9t-14 -33h-86v0z" />
    <glyph glyph-name="uni0146" unicode="&#x146;" horiz-adv-x="582" 
d="M58 500h140l12 -60h4q30 29 68.5 50.5t89.5 21.5q82 0 119 -55.5t37 -148.5v-308h-172v286q0 48 -12 64t-38 16q-24 0 -40 -10t-36 -28v-328h-172v500zM258 -40q73 -6 101.5 -26.5t28.5 -59.5q0 -27 -15.5 -46.5t-41.5 -33t-60.5 -20.5t-72.5 -8l-12 66q35 3 57.5 10
t22.5 24q0 12 -8.5 20t-31.5 14l32 60v0z" />
    <glyph glyph-name="uni1E45" unicode="&#x1e45;" horiz-adv-x="582" 
d="M58 500h140l12 -60h4q30 29 68.5 50.5t89.5 21.5q82 0 119 -55.5t37 -148.5v-308h-172v286q0 48 -12 64t-38 16q-24 0 -40 -10t-36 -28v-328h-172v500zM314 562q-41 0 -66.5 24t-25.5 62t25.5 62t66.5 24t66.5 -24t25.5 -62t-25.5 -62t-66.5 -24z" />
    <glyph glyph-name="uni1E47" unicode="&#x1e47;" horiz-adv-x="582" 
d="M58 500h140l12 -60h4q30 29 68.5 50.5t89.5 21.5q82 0 119 -55.5t37 -148.5v-308h-172v286q0 48 -12 64t-38 16q-24 0 -40 -10t-36 -28v-328h-172v500zM296 -234q-41 0 -66.5 24t-25.5 62t25.5 62t66.5 24t66.5 -24t25.5 -62t-25.5 -62t-66.5 -24z" />
    <glyph glyph-name="uni1E49" unicode="&#x1e49;" horiz-adv-x="582" 
d="M58 500h140l12 -60h4q30 29 68.5 50.5t89.5 21.5q82 0 119 -55.5t37 -148.5v-308h-172v286q0 48 -12 64t-38 16q-24 0 -40 -10t-36 -28v-328h-172v500zM440 -196h-288v108h288v-108z" />
    <glyph glyph-name="napostrophe" unicode="&#x149;" horiz-adv-x="882" 
d="M74 396q48 21 72 51.5t24 75.5q-3 -1 -10 -1q-36 0 -61 22t-25 60q0 42 24 67t62 25q53 0 79.5 -38.5t26.5 -107.5q0 -75 -38 -132.5t-118 -95.5zM358 500h140l12 -60h4q30 29 68.5 50.5t89.5 21.5q82 0 119 -55.5t37 -148.5v-308h-172v286q0 48 -12 64t-38 16
q-24 0 -40 -10t-36 -28v-328h-172v500z" />
    <glyph glyph-name="ograve" unicode="&#xf2;" horiz-adv-x="560" 
d="M32 250q0 62 20.5 111t55 82.5t79.5 51t93 17.5t92.5 -17.5t79 -51t55.5 -82.5t21 -111t-21 -111t-55.5 -82.5t-79 -51t-92.5 -17.5t-93 17.5t-79.5 51t-55 82.5t-20.5 111zM208 250q0 -57 16.5 -90.5t55.5 -33.5t55.5 33.5t16.5 90.5t-16.5 90.5t-55.5 33.5t-55.5 -33.5
t-16.5 -90.5zM116 728h164l88 -154h-124z" />
    <glyph glyph-name="oacute" unicode="&#xf3;" horiz-adv-x="560" 
d="M32 250q0 62 20.5 111t55 82.5t79.5 51t93 17.5t92.5 -17.5t79 -51t55.5 -82.5t21 -111t-21 -111t-55.5 -82.5t-79 -51t-92.5 -17.5t-93 17.5t-79.5 51t-55 82.5t-20.5 111zM208 250q0 -57 16.5 -90.5t55.5 -33.5t55.5 33.5t16.5 90.5t-16.5 90.5t-55.5 33.5t-55.5 -33.5
t-16.5 -90.5zM316 574h-124l88 154h164z" />
    <glyph glyph-name="ocircumflex" unicode="&#xf4;" horiz-adv-x="560" 
d="M32 250q0 62 20.5 111t55 82.5t79.5 51t93 17.5t92.5 -17.5t79 -51t55.5 -82.5t21 -111t-21 -111t-55.5 -82.5t-79 -51t-92.5 -17.5t-93 17.5t-79.5 51t-55 82.5t-20.5 111zM208 250q0 -57 16.5 -90.5t55.5 -33.5t55.5 33.5t16.5 90.5t-16.5 90.5t-55.5 33.5t-55.5 -33.5
t-16.5 -90.5zM212 728h136l96 -154h-114l-48 74h-4l-48 -74h-114z" />
    <glyph glyph-name="otilde" unicode="&#xf5;" horiz-adv-x="560" 
d="M32 250q0 62 20.5 111t55 82.5t79.5 51t93 17.5t92.5 -17.5t79 -51t55.5 -82.5t21 -111t-21 -111t-55.5 -82.5t-79 -51t-92.5 -17.5t-93 17.5t-79.5 51t-55 82.5t-20.5 111zM208 250q0 -57 16.5 -90.5t55.5 -33.5t55.5 33.5t16.5 90.5t-16.5 90.5t-55.5 33.5t-55.5 -33.5
t-16.5 -90.5zM104 574q9 77 40 111.5t72 34.5q20 0 37.5 -6.5t32.5 -14.5t27 -14.5t23 -6.5q12 0 20 9t14 33h86q-9 -77 -40 -111.5t-72 -34.5q-20 0 -37.5 6.5t-32.5 14.5t-27.5 14.5t-22.5 6.5q-12 0 -20 -9t-14 -33h-86v0z" />
    <glyph glyph-name="odieresis" unicode="&#xf6;" horiz-adv-x="560" 
d="M32 250q0 62 20.5 111t55 82.5t79.5 51t93 17.5t92.5 -17.5t79 -51t55.5 -82.5t21 -111t-21 -111t-55.5 -82.5t-79 -51t-92.5 -17.5t-93 17.5t-79.5 51t-55 82.5t-20.5 111zM208 250q0 -57 16.5 -90.5t55.5 -33.5t55.5 33.5t16.5 90.5t-16.5 90.5t-55.5 33.5t-55.5 -33.5
t-16.5 -90.5zM176 564q-35 0 -56.5 22.5t-21.5 55.5t21.5 55.5t56.5 22.5t56.5 -22.5t21.5 -55.5t-21.5 -55.5t-56.5 -22.5zM384 564q-35 0 -56.5 22.5t-21.5 55.5t21.5 55.5t56.5 22.5t56.5 -22.5t21.5 -55.5t-21.5 -55.5t-56.5 -22.5z" />
    <glyph glyph-name="omacron" unicode="&#x14d;" horiz-adv-x="560" 
d="M32 250q0 62 20.5 111t55 82.5t79.5 51t93 17.5t92.5 -17.5t79 -51t55.5 -82.5t21 -111t-21 -111t-55.5 -82.5t-79 -51t-92.5 -17.5t-93 17.5t-79.5 51t-55 82.5t-20.5 111zM208 250q0 -57 16.5 -90.5t55.5 -33.5t55.5 33.5t16.5 90.5t-16.5 90.5t-55.5 33.5t-55.5 -33.5
t-16.5 -90.5zM136 696h288v-108h-288v108z" />
    <glyph glyph-name="ohungarumlaut" unicode="&#x151;" horiz-adv-x="560" 
d="M32 250q0 62 20.5 111t55 82.5t79.5 51t93 17.5t92.5 -17.5t79 -51t55.5 -82.5t21 -111t-21 -111t-55.5 -82.5t-79 -51t-92.5 -17.5t-93 17.5t-79.5 51t-55 82.5t-20.5 111zM208 250q0 -57 16.5 -90.5t55.5 -33.5t55.5 33.5t16.5 90.5t-16.5 90.5t-55.5 33.5t-55.5 -33.5
t-16.5 -90.5zM212 728h134l-98 -154h-104zM392 728h134l-98 -154h-104z" />
    <glyph glyph-name="uni01D2" unicode="&#x1d2;" horiz-adv-x="560" 
d="M32 250q0 62 20.5 111t55 82.5t79.5 51t93 17.5t92.5 -17.5t79 -51t55.5 -82.5t21 -111t-21 -111t-55.5 -82.5t-79 -51t-92.5 -17.5t-93 17.5t-79.5 51t-55 82.5t-20.5 111zM208 250q0 -57 16.5 -90.5t55.5 -33.5t55.5 33.5t16.5 90.5t-16.5 90.5t-55.5 33.5t-55.5 -33.5
t-16.5 -90.5zM116 728h114l48 -74h4l48 74h114l-96 -154h-136z" />
    <glyph glyph-name="uni1ECD" unicode="&#x1ecd;" horiz-adv-x="560" 
d="M32 250q0 62 20.5 111t55 82.5t79.5 51t93 17.5t92.5 -17.5t79 -51t55.5 -82.5t21 -111t-21 -111t-55.5 -82.5t-79 -51t-92.5 -17.5t-93 17.5t-79.5 51t-55 82.5t-20.5 111zM208 250q0 -57 16.5 -90.5t55.5 -33.5t55.5 33.5t16.5 90.5t-16.5 90.5t-55.5 33.5t-55.5 -33.5
t-16.5 -90.5zM280 -234q-41 0 -66.5 24t-25.5 62t25.5 62t66.5 24t66.5 -24t25.5 -62t-25.5 -62t-66.5 -24z" />
    <glyph glyph-name="uni1ECF" unicode="&#x1ecf;" horiz-adv-x="560" 
d="M32 250q0 62 20.5 111t55 82.5t79.5 51t93 17.5t92.5 -17.5t79 -51t55.5 -82.5t21 -111t-21 -111t-55.5 -82.5t-79 -51t-92.5 -17.5t-93 17.5t-79.5 51t-55 82.5t-20.5 111zM208 250q0 -57 16.5 -90.5t55.5 -33.5t55.5 33.5t16.5 90.5t-16.5 90.5t-55.5 33.5t-55.5 -33.5
t-16.5 -90.5zM230 624q17 2 28.5 7t11.5 17t-17 19.5t-61 10.5l20 84q52 -2 86.5 -9.5t55.5 -20t29.5 -29.5t8.5 -37q0 -27 -12 -46.5t-32.5 -33t-47.5 -20.5t-58 -8z" />
    <glyph glyph-name="uni1ED1" unicode="&#x1ed1;" horiz-adv-x="560" 
d="M32 250q0 62 20.5 111t55 82.5t79.5 51t93 17.5t92.5 -17.5t79 -51t55.5 -82.5t21 -111t-21 -111t-55.5 -82.5t-79 -51t-92.5 -17.5t-93 17.5t-79.5 51t-55 82.5t-20.5 111zM208 250q0 -57 16.5 -90.5t55.5 -33.5t55.5 33.5t16.5 90.5t-16.5 90.5t-55.5 33.5t-55.5 -33.5
t-16.5 -90.5zM212 706h136l80 -132h-104l-42 62h-4l-42 -62h-104zM460 768h124l-96 -120h-94z" />
    <glyph glyph-name="uni1ED3" unicode="&#x1ed3;" horiz-adv-x="560" 
d="M32 250q0 62 20.5 111t55 82.5t79.5 51t93 17.5t92.5 -17.5t79 -51t55.5 -82.5t21 -111t-21 -111t-55.5 -82.5t-79 -51t-92.5 -17.5t-93 17.5t-79.5 51t-55 82.5t-20.5 111zM208 250q0 -57 16.5 -90.5t55.5 -33.5t55.5 33.5t16.5 90.5t-16.5 90.5t-55.5 33.5t-55.5 -33.5
t-16.5 -90.5zM212 706h136l80 -132h-104l-42 62h-4l-42 -62h-104zM548 648h-94l-96 120h124z" />
    <glyph glyph-name="uni1ED5" unicode="&#x1ed5;" horiz-adv-x="560" 
d="M32 250q0 62 20.5 111t55 82.5t79.5 51t93 17.5t92.5 -17.5t79 -51t55.5 -82.5t21 -111t-21 -111t-55.5 -82.5t-79 -51t-92.5 -17.5t-93 17.5t-79.5 51t-55 82.5t-20.5 111zM208 250q0 -57 16.5 -90.5t55.5 -33.5t55.5 33.5t16.5 90.5t-16.5 90.5t-55.5 33.5t-55.5 -33.5
t-16.5 -90.5zM212 706h136l80 -132h-104l-42 62h-4l-42 -62h-104zM416 684q12 2 19 7t7 17t-13 19.5t-51 10.5l16 70q46 -2 76.5 -8.5t48.5 -17t25.5 -25t7.5 -31.5q0 -26 -10 -43.5t-27 -28.5t-40 -17t-49 -9z" />
    <glyph glyph-name="uni1ED7" unicode="&#x1ed7;" horiz-adv-x="560" 
d="M32 250q0 62 20.5 111t55 82.5t79.5 51t93 17.5t92.5 -17.5t79 -51t55.5 -82.5t21 -111t-21 -111t-55.5 -82.5t-79 -51t-92.5 -17.5t-93 17.5t-79.5 51t-55 82.5t-20.5 111zM208 250q0 -57 16.5 -90.5t55.5 -33.5t55.5 33.5t16.5 90.5t-16.5 90.5t-55.5 33.5t-55.5 -33.5
t-16.5 -90.5zM202 688h156l78 -114h-110l-44 56h-4l-44 -56h-110zM128 724q8 66 35.5 94t60.5 28q20 0 35 -5.5t26.5 -12.5t21 -12.5t19.5 -5.5q12 0 20.5 8t13.5 28h72q-8 -66 -35.5 -94t-60.5 -28q-20 0 -35 5.5t-26.5 12.5t-21 12.5t-19.5 5.5q-12 0 -20.5 -8t-13.5 -28
h-72z" />
    <glyph glyph-name="uni1ED9" unicode="&#x1ed9;" horiz-adv-x="560" 
d="M32 250q0 62 20.5 111t55 82.5t79.5 51t93 17.5t92.5 -17.5t79 -51t55.5 -82.5t21 -111t-21 -111t-55.5 -82.5t-79 -51t-92.5 -17.5t-93 17.5t-79.5 51t-55 82.5t-20.5 111zM208 250q0 -57 16.5 -90.5t55.5 -33.5t55.5 33.5t16.5 90.5t-16.5 90.5t-55.5 33.5t-55.5 -33.5
t-16.5 -90.5zM212 728h136l96 -154h-114l-48 74h-4l-48 -74h-114zM280 -234q-41 0 -66.5 24t-25.5 62t25.5 62t66.5 24t66.5 -24t25.5 -62t-25.5 -62t-66.5 -24z" />
    <glyph glyph-name="oslash" unicode="&#xf8;" horiz-adv-x="560" 
d="M236 134q17 -14 44 -14q39 0 60.5 33t21.5 87q0 26 -3 47zM323 367q-17 13 -43 13q-39 0 -60.5 -33t-21.5 -87q0 -13 0.5 -24t1.5 -22zM469 424q27 -32 43 -76t16 -98q0 -62 -21 -111t-55.5 -82.5t-79 -51t-92.5 -17.5q-71 0 -131 37l-41 -51l-62 48l44 55
q-27 32 -42.5 75.5t-15.5 97.5q0 62 20.5 111t55 82.5t79.5 51t93 17.5q71 0 130 -36l42 52l62 -48z" />
    <glyph glyph-name="oe" unicode="&#x153;" horiz-adv-x="816" 
d="M206 250q0 -57 16.5 -90.5t49.5 -33.5t50.5 33.5t17.5 90.5t-17.5 90.5t-50.5 33.5t-49.5 -33.5t-16.5 -90.5zM32 250q0 62 19 111t52 82.5t76.5 51t92.5 17.5q51 0 88 -20.5t66 -53.5q32 36 71 55t81 19q51 0 89 -19.5t63 -53t37.5 -78.5t12.5 -95q0 -23 -2.5 -41
t-4.5 -27h-275q11 -42 39.5 -59t66.5 -17q26 0 49.5 9.5t50.5 24.5l58 -110q-41 -29 -90.5 -43.5t-91.5 -14.5q-41 0 -80.5 19t-71.5 55q-32 -36 -69.5 -55t-90.5 -19q-49 0 -92 17.5t-75 51t-50.5 82.5t-18.5 111zM634 302q0 33 -13.5 56.5t-48.5 23.5q-29 0 -48.5 -18
t-25.5 -62h136z" />
    <glyph glyph-name="ohorn" unicode="&#x1a1;" horiz-adv-x="560" 
d="M280 126q39 0 55.5 33.5t16.5 90.5t-16.5 90.5t-55.5 33.5t-55.5 -33.5t-16.5 -90.5t16.5 -90.5t55.5 -33.5zM524 648q12 -14 22 -36.5t10 -49.5q0 -49 -27.5 -80t-71.5 -43q32 -34 51.5 -81.5t19.5 -107.5q0 -62 -21 -111t-55.5 -82.5t-79 -51t-92.5 -17.5t-93 17.5
t-79.5 51t-55 82.5t-20.5 111t20.5 111t55 82.5t79.5 51t93 17.5t97 -19q20 5 33.5 17.5t13.5 39.5q0 15 -5.5 27.5t-10.5 20.5z" />
    <glyph glyph-name="uni1EDB" unicode="&#x1edb;" horiz-adv-x="560" 
d="M280 126q39 0 55.5 33.5t16.5 90.5t-16.5 90.5t-55.5 33.5t-55.5 -33.5t-16.5 -90.5t16.5 -90.5t55.5 -33.5zM524 648q12 -14 22 -36.5t10 -49.5q0 -49 -27.5 -80t-71.5 -43q32 -34 51.5 -81.5t19.5 -107.5q0 -62 -21 -111t-55.5 -82.5t-79 -51t-92.5 -17.5t-93 17.5
t-79.5 51t-55 82.5t-20.5 111t20.5 111t55 82.5t79.5 51t93 17.5t97 -19q20 5 33.5 17.5t13.5 39.5q0 15 -5.5 27.5t-10.5 20.5zM316 574h-124l88 154h164z" />
    <glyph glyph-name="uni1EDD" unicode="&#x1edd;" horiz-adv-x="560" 
d="M280 126q39 0 55.5 33.5t16.5 90.5t-16.5 90.5t-55.5 33.5t-55.5 -33.5t-16.5 -90.5t16.5 -90.5t55.5 -33.5zM524 648q12 -14 22 -36.5t10 -49.5q0 -49 -27.5 -80t-71.5 -43q32 -34 51.5 -81.5t19.5 -107.5q0 -62 -21 -111t-55.5 -82.5t-79 -51t-92.5 -17.5t-93 17.5
t-79.5 51t-55 82.5t-20.5 111t20.5 111t55 82.5t79.5 51t93 17.5t97 -19q20 5 33.5 17.5t13.5 39.5q0 15 -5.5 27.5t-10.5 20.5zM116 728h164l88 -154h-124z" />
    <glyph glyph-name="uni1EDF" unicode="&#x1edf;" horiz-adv-x="560" 
d="M280 126q39 0 55.5 33.5t16.5 90.5t-16.5 90.5t-55.5 33.5t-55.5 -33.5t-16.5 -90.5t16.5 -90.5t55.5 -33.5zM524 648q12 -14 22 -36.5t10 -49.5q0 -49 -27.5 -80t-71.5 -43q32 -34 51.5 -81.5t19.5 -107.5q0 -62 -21 -111t-55.5 -82.5t-79 -51t-92.5 -17.5t-93 17.5
t-79.5 51t-55 82.5t-20.5 111t20.5 111t55 82.5t79.5 51t93 17.5t97 -19q20 5 33.5 17.5t13.5 39.5q0 15 -5.5 27.5t-10.5 20.5zM230 624q17 2 28.5 7t11.5 17t-17 19.5t-61 10.5l20 84q52 -2 86.5 -9.5t55.5 -20t29.5 -29.5t8.5 -37q0 -27 -12 -46.5t-32.5 -33t-47.5 -20.5
t-58 -8z" />
    <glyph glyph-name="uni1EE1" unicode="&#x1ee1;" horiz-adv-x="560" 
d="M280 126q39 0 55.5 33.5t16.5 90.5t-16.5 90.5t-55.5 33.5t-55.5 -33.5t-16.5 -90.5t16.5 -90.5t55.5 -33.5zM524 648q12 -14 22 -36.5t10 -49.5q0 -49 -27.5 -80t-71.5 -43q32 -34 51.5 -81.5t19.5 -107.5q0 -62 -21 -111t-55.5 -82.5t-79 -51t-92.5 -17.5t-93 17.5
t-79.5 51t-55 82.5t-20.5 111t20.5 111t55 82.5t79.5 51t93 17.5t97 -19q20 5 33.5 17.5t13.5 39.5q0 15 -5.5 27.5t-10.5 20.5zM104 574q9 77 40 111.5t72 34.5q20 0 37.5 -6.5t32.5 -14.5t27 -14.5t23 -6.5q12 0 20 9t14 33h86q-9 -77 -40 -111.5t-72 -34.5
q-20 0 -37.5 6.5t-32.5 14.5t-27.5 14.5t-22.5 6.5q-12 0 -20 -9t-14 -33h-86v0z" />
    <glyph glyph-name="uni1EE3" unicode="&#x1ee3;" horiz-adv-x="560" 
d="M280 126q39 0 55.5 33.5t16.5 90.5t-16.5 90.5t-55.5 33.5t-55.5 -33.5t-16.5 -90.5t16.5 -90.5t55.5 -33.5zM524 648q12 -14 22 -36.5t10 -49.5q0 -49 -27.5 -80t-71.5 -43q32 -34 51.5 -81.5t19.5 -107.5q0 -62 -21 -111t-55.5 -82.5t-79 -51t-92.5 -17.5t-93 17.5
t-79.5 51t-55 82.5t-20.5 111t20.5 111t55 82.5t79.5 51t93 17.5t97 -19q20 5 33.5 17.5t13.5 39.5q0 15 -5.5 27.5t-10.5 20.5zM280 -234q-41 0 -66.5 24t-25.5 62t25.5 62t66.5 24t66.5 -24t25.5 -62t-25.5 -62t-66.5 -24z" />
    <glyph glyph-name="uni01EB" unicode="&#x1eb;" horiz-adv-x="560" 
d="M186 -118q0 38 18.5 65.5t36.5 43.5q-42 6 -80 26.5t-66.5 53.5t-45.5 78t-17 101q0 62 20.5 111t55 82.5t79.5 51t93 17.5t92.5 -17.5t79 -51t55.5 -82.5t21 -111q0 -49 -12 -87.5t-33.5 -68.5t-51.5 -52.5t-67 -39.5t-50.5 -38.5t-13.5 -41.5q0 -18 12.5 -26t27.5 -8
q9 0 18 3.5t16 8.5l34 -76q-21 -17 -52.5 -26.5t-57.5 -9.5q-47 0 -79.5 23.5t-32.5 70.5zM208 250q0 -57 16.5 -90.5t55.5 -33.5t55.5 33.5t16.5 90.5t-16.5 90.5t-55.5 33.5t-55.5 -33.5t-16.5 -90.5z" />
    <glyph glyph-name="racute" unicode="&#x155;" horiz-adv-x="418" 
d="M58 500h140l12 -86h4q28 51 66.5 74.5t75.5 23.5q23 0 37 -2.5t25 -7.5l-28 -148q-14 3 -26.5 5.5t-29.5 2.5q-27 0 -56.5 -18.5t-47.5 -65.5v-278h-172v500zM294 574h-124l88 154h164z" />
    <glyph glyph-name="uni0157" unicode="&#x157;" horiz-adv-x="418" 
d="M58 500h140l12 -86h4q28 51 66.5 74.5t75.5 23.5q23 0 37 -2.5t25 -7.5l-28 -148q-14 3 -26.5 5.5t-29.5 2.5q-27 0 -56.5 -18.5t-47.5 -65.5v-278h-172v500zM106 -40q73 -6 101.5 -26.5t28.5 -59.5q0 -27 -15.5 -46.5t-41.5 -33t-60.5 -20.5t-72.5 -8l-12 66
q35 3 57.5 10t22.5 24q0 12 -8.5 20t-31.5 14l32 60v0z" />
    <glyph glyph-name="rcaron" unicode="&#x159;" horiz-adv-x="418" 
d="M58 500h140l12 -86h4q28 51 66.5 74.5t75.5 23.5q23 0 37 -2.5t25 -7.5l-28 -148q-14 3 -26.5 5.5t-29.5 2.5q-27 0 -56.5 -18.5t-47.5 -65.5v-278h-172v500zM94 728h114l48 -74h4l48 74h114l-96 -154h-136z" />
    <glyph glyph-name="uni1E5B" unicode="&#x1e5b;" horiz-adv-x="418" 
d="M58 500h140l12 -86h4q28 51 66.5 74.5t75.5 23.5q23 0 37 -2.5t25 -7.5l-28 -148q-14 3 -26.5 5.5t-29.5 2.5q-27 0 -56.5 -18.5t-47.5 -65.5v-278h-172v500zM144 -234q-41 0 -66.5 24t-25.5 62t25.5 62t66.5 24t66.5 -24t25.5 -62t-25.5 -62t-66.5 -24z" />
    <glyph glyph-name="uni1E5D" unicode="&#x1e5d;" horiz-adv-x="418" 
d="M58 500h140l12 -86h4q28 51 66.5 74.5t75.5 23.5q23 0 37 -2.5t25 -7.5l-28 -148q-14 3 -26.5 5.5t-29.5 2.5q-27 0 -56.5 -18.5t-47.5 -65.5v-278h-172v500zM114 696h288v-108h-288v108zM144 -234q-41 0 -66.5 24t-25.5 62t25.5 62t66.5 24t66.5 -24t25.5 -62t-25.5 -62
t-66.5 -24z" />
    <glyph glyph-name="uni1E5F" unicode="&#x1e5f;" horiz-adv-x="418" 
d="M58 500h140l12 -86h4q28 51 66.5 74.5t75.5 23.5q23 0 37 -2.5t25 -7.5l-28 -148q-14 3 -26.5 5.5t-29.5 2.5q-27 0 -56.5 -18.5t-47.5 -65.5v-278h-172v500zM288 -196h-288v108h288v-108z" />
    <glyph glyph-name="sacute" unicode="&#x15b;" horiz-adv-x="452" 
d="M94 164q68 -50 122 -50q27 0 38.5 7.5t11.5 22.5q0 10 -8 17.5t-21.5 14t-30.5 12.5t-36 14q-22 9 -44.5 21.5t-40.5 30.5t-29.5 41.5t-11.5 54.5q0 37 14.5 67t40.5 51t62.5 32.5t80.5 11.5q62 0 106.5 -20.5t77.5 -45.5l-76 -102q-27 20 -53 31t-49 11q-44 0 -44 -28
q0 -10 7.5 -17t20.5 -13t30 -11.5t36 -12.5q22 -8 45 -20t41.5 -29.5t30 -42t11.5 -58.5q0 -35 -14 -65.5t-41 -53t-67 -35t-92 -12.5q-48 0 -101.5 19t-92.5 51zM278 574h-124l88 154h164z" />
    <glyph glyph-name="scircumflex" unicode="&#x15d;" horiz-adv-x="452" 
d="M94 164q68 -50 122 -50q27 0 38.5 7.5t11.5 22.5q0 10 -8 17.5t-21.5 14t-30.5 12.5t-36 14q-22 9 -44.5 21.5t-40.5 30.5t-29.5 41.5t-11.5 54.5q0 37 14.5 67t40.5 51t62.5 32.5t80.5 11.5q62 0 106.5 -20.5t77.5 -45.5l-76 -102q-27 20 -53 31t-49 11q-44 0 -44 -28
q0 -10 7.5 -17t20.5 -13t30 -11.5t36 -12.5q22 -8 45 -20t41.5 -29.5t30 -42t11.5 -58.5q0 -35 -14 -65.5t-41 -53t-67 -35t-92 -12.5q-48 0 -101.5 19t-92.5 51zM174 728h136l96 -154h-114l-48 74h-4l-48 -74h-114z" />
    <glyph glyph-name="scaron" unicode="&#x161;" horiz-adv-x="452" 
d="M94 164q68 -50 122 -50q27 0 38.5 7.5t11.5 22.5q0 10 -8 17.5t-21.5 14t-30.5 12.5t-36 14q-22 9 -44.5 21.5t-40.5 30.5t-29.5 41.5t-11.5 54.5q0 37 14.5 67t40.5 51t62.5 32.5t80.5 11.5q62 0 106.5 -20.5t77.5 -45.5l-76 -102q-27 20 -53 31t-49 11q-44 0 -44 -28
q0 -10 7.5 -17t20.5 -13t30 -11.5t36 -12.5q22 -8 45 -20t41.5 -29.5t30 -42t11.5 -58.5q0 -35 -14 -65.5t-41 -53t-67 -35t-92 -12.5q-48 0 -101.5 19t-92.5 51zM78 728h114l48 -74h4l48 74h114l-96 -154h-136z" />
    <glyph glyph-name="uni015F" unicode="&#x15f;" horiz-adv-x="452" 
d="M94 164q68 -50 122 -50q27 0 38.5 7.5t11.5 22.5q0 10 -8 17.5t-21.5 14t-30.5 12.5t-36 14q-22 9 -44.5 21.5t-40.5 30.5t-29.5 41.5t-11.5 54.5q0 37 14.5 67t40.5 51t62.5 32.5t80.5 11.5q62 0 106.5 -20.5t77.5 -45.5l-76 -102q-27 20 -53 31t-49 11q-44 0 -44 -28
q0 -10 7.5 -17t20.5 -13t30 -11.5t36 -12.5q22 -8 45 -20t41.5 -29.5t30 -42t11.5 -58.5q0 -35 -14 -65.5t-41 -53t-67 -35t-92 -12.5q-48 0 -101.5 19t-92.5 51zM196 4h98l-18 -44q26 -9 42 -26.5t16 -49.5q0 -27 -15.5 -46.5t-41.5 -33t-60.5 -20.5t-72.5 -8l-12 66
q35 3 57.5 12.5t22.5 29.5q0 11 -10.5 21t-45.5 19z" />
    <glyph glyph-name="uni0219" unicode="&#x219;" horiz-adv-x="452" 
d="M94 164q68 -50 122 -50q27 0 38.5 7.5t11.5 22.5q0 10 -8 17.5t-21.5 14t-30.5 12.5t-36 14q-22 9 -44.5 21.5t-40.5 30.5t-29.5 41.5t-11.5 54.5q0 37 14.5 67t40.5 51t62.5 32.5t80.5 11.5q62 0 106.5 -20.5t77.5 -45.5l-76 -102q-27 20 -53 31t-49 11q-44 0 -44 -28
q0 -10 7.5 -17t20.5 -13t30 -11.5t36 -12.5q22 -8 45 -20t41.5 -29.5t30 -42t11.5 -58.5q0 -35 -14 -65.5t-41 -53t-67 -35t-92 -12.5q-48 0 -101.5 19t-92.5 51zM198 -40q73 -6 101.5 -26.5t28.5 -59.5q0 -27 -15.5 -46.5t-41.5 -33t-60.5 -20.5t-72.5 -8l-12 66
q35 3 57.5 10t22.5 24q0 12 -8.5 20t-31.5 14l32 60v0z" />
    <glyph glyph-name="uni1E61" unicode="&#x1e61;" horiz-adv-x="452" 
d="M94 164q68 -50 122 -50q27 0 38.5 7.5t11.5 22.5q0 10 -8 17.5t-21.5 14t-30.5 12.5t-36 14q-22 9 -44.5 21.5t-40.5 30.5t-29.5 41.5t-11.5 54.5q0 37 14.5 67t40.5 51t62.5 32.5t80.5 11.5q62 0 106.5 -20.5t77.5 -45.5l-76 -102q-27 20 -53 31t-49 11q-44 0 -44 -28
q0 -10 7.5 -17t20.5 -13t30 -11.5t36 -12.5q22 -8 45 -20t41.5 -29.5t30 -42t11.5 -58.5q0 -35 -14 -65.5t-41 -53t-67 -35t-92 -12.5q-48 0 -101.5 19t-92.5 51zM242 562q-41 0 -66.5 24t-25.5 62t25.5 62t66.5 24t66.5 -24t25.5 -62t-25.5 -62t-66.5 -24z" />
    <glyph glyph-name="uni1E63" unicode="&#x1e63;" horiz-adv-x="452" 
d="M94 164q68 -50 122 -50q27 0 38.5 7.5t11.5 22.5q0 10 -8 17.5t-21.5 14t-30.5 12.5t-36 14q-22 9 -44.5 21.5t-40.5 30.5t-29.5 41.5t-11.5 54.5q0 37 14.5 67t40.5 51t62.5 32.5t80.5 11.5q62 0 106.5 -20.5t77.5 -45.5l-76 -102q-27 20 -53 31t-49 11q-44 0 -44 -28
q0 -10 7.5 -17t20.5 -13t30 -11.5t36 -12.5q22 -8 45 -20t41.5 -29.5t30 -42t11.5 -58.5q0 -35 -14 -65.5t-41 -53t-67 -35t-92 -12.5q-48 0 -101.5 19t-92.5 51zM236 -234q-41 0 -66.5 24t-25.5 62t25.5 62t66.5 24t66.5 -24t25.5 -62t-25.5 -62t-66.5 -24z" />
    <glyph glyph-name="germandbls" unicode="&#xdf;" horiz-adv-x="654" 
d="M58 476q0 49 15 91t46.5 73t79 48.5t113.5 17.5q55 0 96.5 -15t69 -39t41 -55.5t13.5 -64.5q0 -35 -11.5 -59.5t-25 -42.5t-24.5 -33t-11 -31q0 -14 12.5 -24t31 -20.5t40.5 -23.5t40.5 -31.5t31 -45t12.5 -63.5q0 -35 -12 -66t-36 -54t-60.5 -36.5t-85.5 -13.5
q-45 0 -80.5 11.5t-73.5 32.5l58 116q24 -18 46.5 -26t43.5 -8q20 0 32 9.5t12 26.5q0 15 -12.5 26.5t-31 22t-40.5 23t-40.5 29t-31 39t-12.5 54.5q0 27 10 47t22 38t22 37.5t10 45.5t-14.5 43t-41.5 17q-43 0 -63.5 -31.5t-20.5 -82.5v-458h-170v476z" />
    <glyph glyph-name="tcaron" unicode="&#x165;" horiz-adv-x="400" 
d="M80 366h-66v128l76 6l20 130h142v-130h114v-134h-114v-171q0 -42 18 -57.5t42 -15.5q12 0 23.5 2.5t20.5 5.5l26 -124q-20 -6 -48 -12t-70 -6q-49 0 -83.5 14.5t-57 41.5t-33 64.5t-10.5 83.5v174zM288 548l-6 226h108l-2 -74l-28 -152h-72z" />
    <glyph glyph-name="uni0163" unicode="&#x163;" horiz-adv-x="400" 
d="M80 366h-66v128l76 6l20 130h142v-130h114v-134h-114v-171q0 -42 18 -57.5t42 -15.5q12 0 23.5 2.5t20.5 5.5l26 -124q-20 -6 -48 -12t-70 -6q-49 0 -83.5 14.5t-57 41.5t-33 64.5t-10.5 83.5v174zM204 4h98l-18 -44q26 -9 42 -26.5t16 -49.5q0 -27 -15.5 -46.5
t-41.5 -33t-60.5 -20.5t-72.5 -8l-12 66q35 3 57.5 12.5t22.5 29.5q0 11 -10.5 21t-45.5 19z" />
    <glyph glyph-name="uni021B" unicode="&#x21b;" horiz-adv-x="400" 
d="M80 366h-66v128l76 6l20 130h142v-130h114v-134h-114v-171q0 -42 18 -57.5t42 -15.5q12 0 23.5 2.5t20.5 5.5l26 -124q-20 -6 -48 -12t-70 -6q-49 0 -83.5 14.5t-57 41.5t-33 64.5t-10.5 83.5v174zM206 -40q73 -6 101.5 -26.5t28.5 -59.5q0 -27 -15.5 -46.5t-41.5 -33
t-60.5 -20.5t-72.5 -8l-12 66q35 3 57.5 10t22.5 24q0 12 -8.5 20t-31.5 14l32 60v0z" />
    <glyph glyph-name="uni1E6D" unicode="&#x1e6d;" horiz-adv-x="400" 
d="M80 366h-66v128l76 6l20 130h142v-130h114v-134h-114v-171q0 -42 18 -57.5t42 -15.5q12 0 23.5 2.5t20.5 5.5l26 -124q-20 -6 -48 -12t-70 -6q-49 0 -83.5 14.5t-57 41.5t-33 64.5t-10.5 83.5v174zM244 -234q-41 0 -66.5 24t-25.5 62t25.5 62t66.5 24t66.5 -24t25.5 -62
t-25.5 -62t-66.5 -24z" />
    <glyph glyph-name="uni1E6F" unicode="&#x1e6f;" horiz-adv-x="400" 
d="M80 366h-66v128l76 6l20 130h142v-130h114v-134h-114v-171q0 -42 18 -57.5t42 -15.5q12 0 23.5 2.5t20.5 5.5l26 -124q-20 -6 -48 -12t-70 -6q-49 0 -83.5 14.5t-57 41.5t-33 64.5t-10.5 83.5v174zM388 -196h-288v108h288v-108z" />
    <glyph glyph-name="uni1E97" unicode="&#x1e97;" horiz-adv-x="400" 
d="M80 366h-66v128l76 6l20 130h142v-130h114v-134h-114v-171q0 -42 18 -57.5t42 -15.5q12 0 23.5 2.5t20.5 5.5l26 -124q-20 -6 -48 -12t-70 -6q-49 0 -83.5 14.5t-57 41.5t-33 64.5t-10.5 83.5v174zM72 706q-35 0 -56.5 22.5t-21.5 55.5t21.5 55.5t56.5 22.5t56.5 -22.5
t21.5 -55.5t-21.5 -55.5t-56.5 -22.5zM280 706q-35 0 -56.5 22.5t-21.5 55.5t21.5 55.5t56.5 22.5t56.5 -22.5t21.5 -55.5t-21.5 -55.5t-56.5 -22.5z" />
    <glyph glyph-name="ugrave" unicode="&#xf9;" horiz-adv-x="578" 
d="M54 500h172v-286q0 -48 12 -64t38 -16q24 0 39.5 10t32.5 34v322h172v-500h-140l-12 66h-4q-30 -36 -66.5 -57t-87.5 -21q-41 0 -70.5 14.5t-48.5 41t-28 64t-9 84.5v308zM126 728h164l88 -154h-124z" />
    <glyph glyph-name="uacute" unicode="&#xfa;" horiz-adv-x="578" 
d="M54 500h172v-286q0 -48 12 -64t38 -16q24 0 39.5 10t32.5 34v322h172v-500h-140l-12 66h-4q-30 -36 -66.5 -57t-87.5 -21q-41 0 -70.5 14.5t-48.5 41t-28 64t-9 84.5v308zM326 574h-124l88 154h164z" />
    <glyph glyph-name="ucircumflex" unicode="&#xfb;" horiz-adv-x="578" 
d="M54 500h172v-286q0 -48 12 -64t38 -16q24 0 39.5 10t32.5 34v322h172v-500h-140l-12 66h-4q-30 -36 -66.5 -57t-87.5 -21q-41 0 -70.5 14.5t-48.5 41t-28 64t-9 84.5v308zM222 728h136l96 -154h-114l-48 74h-4l-48 -74h-114z" />
    <glyph glyph-name="utilde" unicode="&#x169;" horiz-adv-x="578" 
d="M54 500h172v-286q0 -48 12 -64t38 -16q24 0 39.5 10t32.5 34v322h172v-500h-140l-12 66h-4q-30 -36 -66.5 -57t-87.5 -21q-41 0 -70.5 14.5t-48.5 41t-28 64t-9 84.5v308zM114 574q9 77 40 111.5t72 34.5q20 0 37.5 -6.5t32.5 -14.5t27 -14.5t23 -6.5q12 0 20 9t14 33h86
q-9 -77 -40 -111.5t-72 -34.5q-20 0 -37.5 6.5t-32.5 14.5t-27.5 14.5t-22.5 6.5q-12 0 -20 -9t-14 -33h-86v0z" />
    <glyph glyph-name="udieresis" unicode="&#xfc;" horiz-adv-x="578" 
d="M54 500h172v-286q0 -48 12 -64t38 -16q24 0 39.5 10t32.5 34v322h172v-500h-140l-12 66h-4q-30 -36 -66.5 -57t-87.5 -21q-41 0 -70.5 14.5t-48.5 41t-28 64t-9 84.5v308zM186 564q-35 0 -56.5 22.5t-21.5 55.5t21.5 55.5t56.5 22.5t56.5 -22.5t21.5 -55.5t-21.5 -55.5
t-56.5 -22.5zM394 564q-35 0 -56.5 22.5t-21.5 55.5t21.5 55.5t56.5 22.5t56.5 -22.5t21.5 -55.5t-21.5 -55.5t-56.5 -22.5z" />
    <glyph glyph-name="umacron" unicode="&#x16b;" horiz-adv-x="578" 
d="M54 500h172v-286q0 -48 12 -64t38 -16q24 0 39.5 10t32.5 34v322h172v-500h-140l-12 66h-4q-30 -36 -66.5 -57t-87.5 -21q-41 0 -70.5 14.5t-48.5 41t-28 64t-9 84.5v308zM146 696h288v-108h-288v108z" />
    <glyph glyph-name="ubreve" unicode="&#x16d;" horiz-adv-x="578" 
d="M54 500h172v-286q0 -48 12 -64t38 -16q24 0 39.5 10t32.5 34v322h172v-500h-140l-12 66h-4q-30 -36 -66.5 -57t-87.5 -21q-41 0 -70.5 14.5t-48.5 41t-28 64t-9 84.5v308zM290 574q-36 0 -62.5 11.5t-44.5 31t-27 46t-10 55.5h94q3 -23 15 -37.5t35 -14.5t35 14.5
t15 37.5h94q-1 -29 -10 -55.5t-27 -46t-44.5 -31t-62.5 -11.5z" />
    <glyph glyph-name="uring" unicode="&#x16f;" horiz-adv-x="578" 
d="M54 500h172v-286q0 -48 12 -64t38 -16q24 0 39.5 10t32.5 34v322h172v-500h-140l-12 66h-4q-30 -36 -66.5 -57t-87.5 -21q-41 0 -70.5 14.5t-48.5 41t-28 64t-9 84.5v308zM290 550q-54 0 -87 29t-33 77t33 77t87 29t87 -29t33 -77t-33 -77t-87 -29zM290 612q16 0 27 12
t11 32t-11 32t-27 12t-27 -12t-11 -32t11 -32t27 -12z" />
    <glyph glyph-name="uhungarumlaut" unicode="&#x171;" horiz-adv-x="578" 
d="M54 500h172v-286q0 -48 12 -64t38 -16q24 0 39.5 10t32.5 34v322h172v-500h-140l-12 66h-4q-30 -36 -66.5 -57t-87.5 -21q-41 0 -70.5 14.5t-48.5 41t-28 64t-9 84.5v308zM222 728h134l-98 -154h-104zM402 728h134l-98 -154h-104z" />
    <glyph glyph-name="uni01D4" unicode="&#x1d4;" horiz-adv-x="578" 
d="M54 500h172v-286q0 -48 12 -64t38 -16q24 0 39.5 10t32.5 34v322h172v-500h-140l-12 66h-4q-30 -36 -66.5 -57t-87.5 -21q-41 0 -70.5 14.5t-48.5 41t-28 64t-9 84.5v308zM126 728h114l48 -74h4l48 74h114l-96 -154h-136z" />
    <glyph glyph-name="uni01D6" unicode="&#x1d6;" horiz-adv-x="578" 
d="M54 500h172v-286q0 -48 12 -64t38 -16q24 0 39.5 10t32.5 34v322h172v-500h-140l-12 66h-4q-30 -36 -66.5 -57t-87.5 -21q-41 0 -70.5 14.5t-48.5 41t-28 64t-9 84.5v308zM186 564q-30 0 -49 19.5t-19 48.5t19 48.5t49 19.5t49 -19.5t19 -48.5t-19 -48.5t-49 -19.5z
M394 564q-30 0 -49 19.5t-19 48.5t19 48.5t49 19.5t49 -19.5t19 -48.5t-19 -48.5t-49 -19.5zM146 836h288v-78h-288v78z" />
    <glyph glyph-name="uni01D8" unicode="&#x1d8;" horiz-adv-x="578" 
d="M54 500h172v-286q0 -48 12 -64t38 -16q24 0 39.5 10t32.5 34v322h172v-500h-140l-12 66h-4q-30 -36 -66.5 -57t-87.5 -21q-41 0 -70.5 14.5t-48.5 41t-28 64t-9 84.5v308zM300 858h144l-120 -114h-108zM186 564q-30 0 -49 19.5t-19 48.5t19 48.5t49 19.5t49 -19.5
t19 -48.5t-19 -48.5t-49 -19.5zM394 564q-30 0 -49 19.5t-19 48.5t19 48.5t49 19.5t49 -19.5t19 -48.5t-19 -48.5t-49 -19.5z" />
    <glyph glyph-name="uni01DA" unicode="&#x1da;" horiz-adv-x="578" 
d="M54 500h172v-286q0 -48 12 -64t38 -16q24 0 39.5 10t32.5 34v322h172v-500h-140l-12 66h-4q-30 -36 -66.5 -57t-87.5 -21q-41 0 -70.5 14.5t-48.5 41t-28 64t-9 84.5v308zM134 858h114l40 -56h4l40 56h114l-84 -114h-144zM186 564q-30 0 -49 19.5t-19 48.5t19 48.5
t49 19.5t49 -19.5t19 -48.5t-19 -48.5t-49 -19.5zM394 564q-30 0 -49 19.5t-19 48.5t19 48.5t49 19.5t49 -19.5t19 -48.5t-19 -48.5t-49 -19.5z" />
    <glyph glyph-name="uni01DC" unicode="&#x1dc;" horiz-adv-x="578" 
d="M54 500h172v-286q0 -48 12 -64t38 -16q24 0 39.5 10t32.5 34v322h172v-500h-140l-12 66h-4q-30 -36 -66.5 -57t-87.5 -21q-41 0 -70.5 14.5t-48.5 41t-28 64t-9 84.5v308zM364 744h-108l-120 114h144zM394 564q-30 0 -49 19.5t-19 48.5t19 48.5t49 19.5t49 -19.5
t19 -48.5t-19 -48.5t-49 -19.5zM186 564q-30 0 -49 19.5t-19 48.5t19 48.5t49 19.5t49 -19.5t19 -48.5t-19 -48.5t-49 -19.5z" />
    <glyph glyph-name="uni1EE5" unicode="&#x1ee5;" horiz-adv-x="578" 
d="M54 500h172v-286q0 -48 12 -64t38 -16q24 0 39.5 10t32.5 34v322h172v-500h-140l-12 66h-4q-30 -36 -66.5 -57t-87.5 -21q-41 0 -70.5 14.5t-48.5 41t-28 64t-9 84.5v308zM308 -234q-41 0 -66.5 24t-25.5 62t25.5 62t66.5 24t66.5 -24t25.5 -62t-25.5 -62t-66.5 -24z" />
    <glyph glyph-name="uni1EE7" unicode="&#x1ee7;" horiz-adv-x="578" 
d="M54 500h172v-286q0 -48 12 -64t38 -16q24 0 39.5 10t32.5 34v322h172v-500h-140l-12 66h-4q-30 -36 -66.5 -57t-87.5 -21q-41 0 -70.5 14.5t-48.5 41t-28 64t-9 84.5v308zM240 624q17 2 28.5 7t11.5 17t-17 19.5t-61 10.5l20 84q52 -2 86.5 -9.5t55.5 -20t29.5 -29.5
t8.5 -37q0 -27 -12 -46.5t-32.5 -33t-47.5 -20.5t-58 -8z" />
    <glyph glyph-name="uogonek" unicode="&#x173;" horiz-adv-x="578" 
d="M54 500h172v-286q0 -48 12 -64t38 -16q24 0 39.5 10t32.5 34v322h172v-500q-51 -12 -69.5 -34.5t-18.5 -43.5q0 -17 12.5 -25.5t27.5 -8.5q9 0 18.5 3.5t15.5 8.5l34 -76q-21 -17 -52.5 -26.5t-57.5 -9.5q-47 0 -79.5 23.5t-32.5 70.5q0 22 7 41t17.5 33.5t21 24.5
t18.5 15l-14 70h-4q-30 -36 -66.5 -57t-87.5 -21q-41 0 -70.5 14.5t-48.5 41t-28 64t-9 84.5v308z" />
    <glyph glyph-name="uhorn" unicode="&#x1b0;" horiz-adv-x="578" 
d="M584 658q12 -14 22 -36.5t10 -49.5q0 -48 -27 -78.5t-69 -44.5v-449h-140l-12 66h-4q-30 -36 -66.5 -57t-87.5 -21q-41 0 -70.5 14.5t-48.5 41t-28 64t-9 84.5v308h172v-286q0 -48 12 -64t38 -16q24 0 39.5 10t32.5 34v322h56q13 0 27 2t26 8t19.5 18t7.5 32
q0 15 -5.5 27.5t-10.5 20.5z" />
    <glyph glyph-name="uni1EE9" unicode="&#x1ee9;" horiz-adv-x="578" 
d="M584 658q12 -14 22 -36.5t10 -49.5q0 -48 -27 -78.5t-69 -44.5v-449h-140l-12 66h-4q-30 -36 -66.5 -57t-87.5 -21q-41 0 -70.5 14.5t-48.5 41t-28 64t-9 84.5v308h172v-286q0 -48 12 -64t38 -16q24 0 39.5 10t32.5 34v322h56q13 0 27 2t26 8t19.5 18t7.5 32
q0 15 -5.5 27.5t-10.5 20.5zM313 574h-124l88 154h164z" />
    <glyph glyph-name="uni1EEB" unicode="&#x1eeb;" horiz-adv-x="578" 
d="M584 658q12 -14 22 -36.5t10 -49.5q0 -48 -27 -78.5t-69 -44.5v-449h-140l-12 66h-4q-30 -36 -66.5 -57t-87.5 -21q-41 0 -70.5 14.5t-48.5 41t-28 64t-9 84.5v308h172v-286q0 -48 12 -64t38 -16q24 0 39.5 10t32.5 34v322h56q13 0 27 2t26 8t19.5 18t7.5 32
q0 15 -5.5 27.5t-10.5 20.5zM113 728h164l88 -154h-124z" />
    <glyph glyph-name="uni1EED" unicode="&#x1eed;" horiz-adv-x="578" 
d="M584 658q12 -14 22 -36.5t10 -49.5q0 -48 -27 -78.5t-69 -44.5v-449h-140l-12 66h-4q-30 -36 -66.5 -57t-87.5 -21q-41 0 -70.5 14.5t-48.5 41t-28 64t-9 84.5v308h172v-286q0 -48 12 -64t38 -16q24 0 39.5 10t32.5 34v322h56q13 0 27 2t26 8t19.5 18t7.5 32
q0 15 -5.5 27.5t-10.5 20.5zM227 624q17 2 28.5 7t11.5 17t-17 19.5t-61 10.5l20 84q52 -2 86.5 -9.5t55.5 -20t29.5 -29.5t8.5 -37q0 -27 -12 -46.5t-32.5 -33t-47.5 -20.5t-58 -8z" />
    <glyph glyph-name="uni1EEF" unicode="&#x1eef;" horiz-adv-x="578" 
d="M584 658q12 -14 22 -36.5t10 -49.5q0 -48 -27 -78.5t-69 -44.5v-449h-140l-12 66h-4q-30 -36 -66.5 -57t-87.5 -21q-41 0 -70.5 14.5t-48.5 41t-28 64t-9 84.5v308h172v-286q0 -48 12 -64t38 -16q24 0 39.5 10t32.5 34v322h56q13 0 27 2t26 8t19.5 18t7.5 32
q0 15 -5.5 27.5t-10.5 20.5zM101 574q9 77 40 111.5t72 34.5q20 0 37.5 -6.5t32.5 -14.5t27 -14.5t23 -6.5q12 0 20 9t14 33h86q-9 -77 -40 -111.5t-72 -34.5q-20 0 -37.5 6.5t-32.5 14.5t-27.5 14.5t-22.5 6.5q-12 0 -20 -9t-14 -33h-86v0z" />
    <glyph glyph-name="uni1EF1" unicode="&#x1ef1;" horiz-adv-x="578" 
d="M584 658q12 -14 22 -36.5t10 -49.5q0 -48 -27 -78.5t-69 -44.5v-449h-140l-12 66h-4q-30 -36 -66.5 -57t-87.5 -21q-41 0 -70.5 14.5t-48.5 41t-28 64t-9 84.5v308h172v-286q0 -48 12 -64t38 -16q24 0 39.5 10t32.5 34v322h56q13 0 27 2t26 8t19.5 18t7.5 32
q0 15 -5.5 27.5t-10.5 20.5zM295 -234q-41 0 -66.5 24t-25.5 62t25.5 62t66.5 24t66.5 -24t25.5 -62t-25.5 -62t-66.5 -24z" />
    <glyph glyph-name="wgrave" unicode="&#x1e81;" horiz-adv-x="798" 
d="M24 500h170l38 -210q6 -38 10 -75.5t10 -76.5h4q6 39 12.5 77.5t15.5 74.5l46 210h146l48 -210q9 -38 15.5 -75.5t14.5 -76.5h4q6 39 10 76.5t10 75.5l38 210h158l-114 -500h-200l-36 174l-12 70t-12 77h-4l-11 -77t-11 -70l-34 -174h-196zM236 728h164l88 -154h-124z
" />
    <glyph glyph-name="wacute" unicode="&#x1e83;" horiz-adv-x="798" 
d="M24 500h170l38 -210q6 -38 10 -75.5t10 -76.5h4q6 39 12.5 77.5t15.5 74.5l46 210h146l48 -210q9 -38 15.5 -75.5t14.5 -76.5h4q6 39 10 76.5t10 75.5l38 210h158l-114 -500h-200l-36 174l-12 70t-12 77h-4l-11 -77t-11 -70l-34 -174h-196zM436 574h-124l88 154h164z" />
    <glyph glyph-name="wcircumflex" unicode="&#x175;" horiz-adv-x="798" 
d="M24 500h170l38 -210q6 -38 10 -75.5t10 -76.5h4q6 39 12.5 77.5t15.5 74.5l46 210h146l48 -210q9 -38 15.5 -75.5t14.5 -76.5h4q6 39 10 76.5t10 75.5l38 210h158l-114 -500h-200l-36 174l-12 70t-12 77h-4l-11 -77t-11 -70l-34 -174h-196zM332 728h136l96 -154h-114
l-48 74h-4l-48 -74h-114z" />
    <glyph glyph-name="wdieresis" unicode="&#x1e85;" horiz-adv-x="798" 
d="M24 500h170l38 -210q6 -38 10 -75.5t10 -76.5h4q6 39 12.5 77.5t15.5 74.5l46 210h146l48 -210q9 -38 15.5 -75.5t14.5 -76.5h4q6 39 10 76.5t10 75.5l38 210h158l-114 -500h-200l-36 174l-12 70t-12 77h-4l-11 -77t-11 -70l-34 -174h-196zM296 564q-35 0 -56.5 22.5
t-21.5 55.5t21.5 55.5t56.5 22.5t56.5 -22.5t21.5 -55.5t-21.5 -55.5t-56.5 -22.5zM504 564q-35 0 -56.5 22.5t-21.5 55.5t21.5 55.5t56.5 22.5t56.5 -22.5t21.5 -55.5t-21.5 -55.5t-56.5 -22.5z" />
    <glyph glyph-name="ygrave" unicode="&#x1ef3;" horiz-adv-x="542" 
d="M86 -48q7 -2 15.5 -4t16.5 -2q35 0 52.5 13.5t25.5 36.5l6 22l-190 482h172l60 -192q11 -35 19 -69.5t17 -72.5h4q8 36 15.5 71t16.5 71l50 192h164l-168 -492q-20 -51 -40.5 -88t-47.5 -61t-61.5 -35.5t-80.5 -11.5q-26 0 -42.5 2.5t-33.5 7.5l30 130v0zM112 728h164
l88 -154h-124z" />
    <glyph glyph-name="yacute" unicode="&#xfd;" horiz-adv-x="542" 
d="M86 -48q7 -2 15.5 -4t16.5 -2q35 0 52.5 13.5t25.5 36.5l6 22l-190 482h172l60 -192q11 -35 19 -69.5t17 -72.5h4q8 36 15.5 71t16.5 71l50 192h164l-168 -492q-20 -51 -40.5 -88t-47.5 -61t-61.5 -35.5t-80.5 -11.5q-26 0 -42.5 2.5t-33.5 7.5l30 130v0zM312 574h-124
l88 154h164z" />
    <glyph glyph-name="ycircumflex" unicode="&#x177;" horiz-adv-x="542" 
d="M86 -48q7 -2 15.5 -4t16.5 -2q35 0 52.5 13.5t25.5 36.5l6 22l-190 482h172l60 -192q11 -35 19 -69.5t17 -72.5h4q8 36 15.5 71t16.5 71l50 192h164l-168 -492q-20 -51 -40.5 -88t-47.5 -61t-61.5 -35.5t-80.5 -11.5q-26 0 -42.5 2.5t-33.5 7.5l30 130v0zM208 728h136
l96 -154h-114l-48 74h-4l-48 -74h-114z" />
    <glyph glyph-name="ydieresis" unicode="&#xff;" horiz-adv-x="542" 
d="M86 -48q7 -2 15.5 -4t16.5 -2q35 0 52.5 13.5t25.5 36.5l6 22l-190 482h172l60 -192q11 -35 19 -69.5t17 -72.5h4q8 36 15.5 71t16.5 71l50 192h164l-168 -492q-20 -51 -40.5 -88t-47.5 -61t-61.5 -35.5t-80.5 -11.5q-26 0 -42.5 2.5t-33.5 7.5l30 130v0zM172 564
q-35 0 -56.5 22.5t-21.5 55.5t21.5 55.5t56.5 22.5t56.5 -22.5t21.5 -55.5t-21.5 -55.5t-56.5 -22.5zM380 564q-35 0 -56.5 22.5t-21.5 55.5t21.5 55.5t56.5 22.5t56.5 -22.5t21.5 -55.5t-21.5 -55.5t-56.5 -22.5z" />
    <glyph glyph-name="uni1E8F" unicode="&#x1e8f;" horiz-adv-x="542" 
d="M86 -48q7 -2 15.5 -4t16.5 -2q35 0 52.5 13.5t25.5 36.5l6 22l-190 482h172l60 -192q11 -35 19 -69.5t17 -72.5h4q8 36 15.5 71t16.5 71l50 192h164l-168 -492q-20 -51 -40.5 -88t-47.5 -61t-61.5 -35.5t-80.5 -11.5q-26 0 -42.5 2.5t-33.5 7.5l30 130v0zM276 562
q-41 0 -66.5 24t-25.5 62t25.5 62t66.5 24t66.5 -24t25.5 -62t-25.5 -62t-66.5 -24z" />
    <glyph glyph-name="uni1EF5" unicode="&#x1ef5;" horiz-adv-x="542" 
d="M86 -48q7 -2 15.5 -4t16.5 -2q35 0 52.5 13.5t25.5 36.5l6 22l-190 482h172l60 -192q11 -35 19 -69.5t17 -72.5h4q8 36 15.5 71t16.5 71l50 192h164l-168 -492q-20 -51 -40.5 -88t-47.5 -61t-61.5 -35.5t-80.5 -11.5q-26 0 -42.5 2.5t-33.5 7.5l30 130v0zM468 -224
q-41 0 -66.5 24t-25.5 62t25.5 62t66.5 24t66.5 -24t25.5 -62t-25.5 -62t-66.5 -24z" />
    <glyph glyph-name="uni1EF7" unicode="&#x1ef7;" horiz-adv-x="542" 
d="M86 -48q7 -2 15.5 -4t16.5 -2q35 0 52.5 13.5t25.5 36.5l6 22l-190 482h172l60 -192q11 -35 19 -69.5t17 -72.5h4q8 36 15.5 71t16.5 71l50 192h164l-168 -492q-20 -51 -40.5 -88t-47.5 -61t-61.5 -35.5t-80.5 -11.5q-26 0 -42.5 2.5t-33.5 7.5l30 130v0zM226 624
q17 2 28.5 7t11.5 17t-17 19.5t-61 10.5l20 84q52 -2 86.5 -9.5t55.5 -20t29.5 -29.5t8.5 -37q0 -27 -12 -46.5t-32.5 -33t-47.5 -20.5t-58 -8z" />
    <glyph glyph-name="uni1EF9" unicode="&#x1ef9;" horiz-adv-x="542" 
d="M86 -48q7 -2 15.5 -4t16.5 -2q35 0 52.5 13.5t25.5 36.5l6 22l-190 482h172l60 -192q11 -35 19 -69.5t17 -72.5h4q8 36 15.5 71t16.5 71l50 192h164l-168 -492q-20 -51 -40.5 -88t-47.5 -61t-61.5 -35.5t-80.5 -11.5q-26 0 -42.5 2.5t-33.5 7.5l30 130v0zM100 574
q9 77 40 111.5t72 34.5q20 0 37.5 -6.5t32.5 -14.5t27 -14.5t23 -6.5q12 0 20 9t14 33h86q-9 -77 -40 -111.5t-72 -34.5q-20 0 -37.5 6.5t-32.5 14.5t-27.5 14.5t-22.5 6.5q-12 0 -20 -9t-14 -33h-86v0z" />
    <glyph glyph-name="zacute" unicode="&#x17a;" horiz-adv-x="474" 
d="M40 92l190 274h-168v134h382v-92l-190 -274h196v-134h-410v92zM288 574h-124l88 154h164z" />
    <glyph glyph-name="zcaron" unicode="&#x17e;" horiz-adv-x="474" 
d="M40 92l190 274h-168v134h382v-92l-190 -274h196v-134h-410v92zM88 728h114l48 -74h4l48 74h114l-96 -154h-136z" />
    <glyph glyph-name="zdotaccent" unicode="&#x17c;" horiz-adv-x="474" 
d="M40 92l190 274h-168v134h382v-92l-190 -274h196v-134h-410v92zM252 562q-41 0 -66.5 24t-25.5 62t25.5 62t66.5 24t66.5 -24t25.5 -62t-25.5 -62t-66.5 -24z" />
    <glyph glyph-name="uni1E93" unicode="&#x1e93;" horiz-adv-x="474" 
d="M40 92l190 274h-168v134h382v-92l-190 -274h196v-134h-410v92zM252 -234q-41 0 -66.5 24t-25.5 62t25.5 62t66.5 24t66.5 -24t25.5 -62t-25.5 -62t-66.5 -24z" />
    <glyph glyph-name="eth" unicode="&#xf0;" horiz-adv-x="566" 
d="M280 126q16 0 31 7t25.5 23t17 41.5t6.5 62.5v20.5t-1 18.5q-18 18 -38.5 25.5t-43.5 7.5q-35 0 -59 -23t-24 -79q0 -53 25.5 -78.5t60.5 -25.5zM386 600q60 -60 97 -140.5t37 -189.5q0 -61 -17 -112.5t-48.5 -89t-77 -59t-103.5 -21.5q-48 0 -91 17t-75 48.5t-51 76
t-19 100.5q0 55 17.5 97.5t46 71.5t64.5 44t74 15q24 0 48.5 -7t43.5 -24q-25 61 -74 109l-142 -71l-44 74l111 56q-18 11 -38 22.5t-42 22.5l74 104q35 -18 70 -38.5t68 -44.5l143 72l44 -75z" />
    <glyph glyph-name="thorn" unicode="&#xfe;" horiz-adv-x="580" 
d="M230 -176h-172v872h172v-163l-4 -65q23 21 52.5 32.5t61.5 11.5q46 0 84 -18t64.5 -51t41 -80t14.5 -105q0 -65 -17.5 -115t-46.5 -84.5t-66.5 -52.5t-77.5 -18q-36 0 -61.5 11.5t-48.5 32.5l4 -70v-138zM230 152q15 -14 31 -19t33 -5q30 0 52 28t22 100q0 62 -17.5 89
t-52.5 27q-20 0 -35.5 -8t-32.5 -28v-184z" />
    <glyph glyph-name="uni0237" unicode="&#x237;" horiz-adv-x="290" 
d="M60 500h172v-474q0 -42 -9 -80.5t-31.5 -68.5t-60 -47.5t-93.5 -17.5q-35 0 -56 4t-38 10l30 126q11 -3 19 -4.5t17 -1.5q27 0 38.5 16.5t11.5 57.5v480z" />
    <glyph glyph-name="uni0251" unicode="&#x251;" horiz-adv-x="580" 
d="M212 252q0 -68 19.5 -96t54.5 -28q20 0 35 7.5t29 28.5v184q-15 14 -33 19t-35 5q-27 0 -48.5 -27t-21.5 -93zM36 250q0 61 18 110t47.5 82.5t67 51.5t75.5 18q36 0 66.5 -14.5t59.5 -47.5h4l14 50h134v-500h-140l-12 46h-4q-26 -26 -59.5 -42t-66.5 -16q-47 0 -84.5 18
t-64 52t-41 82.5t-14.5 109.5z" />
    <glyph glyph-name="uni0259" unicode="&#x259;" horiz-adv-x="526" 
d="M36 230q0 23 2.5 41t4.5 27h285q-11 48 -37 66t-65 18q-50 0 -102 -30l-56 102q43 29 93 43.5t95 14.5q50 0 93.5 -18t75.5 -52t50.5 -82.5t18.5 -109.5t-20 -109.5t-53 -82.5t-76.5 -52t-90.5 -18q-56 0 -97 19t-68 52t-40 77t-13 94zM182 194q0 -32 14.5 -54t53.5 -22
q29 0 50.5 16t29.5 60h-148z" />
    <glyph glyph-name="uni0261" unicode="&#x261;" horiz-adv-x="592" 
d="M128 -18q35 -18 70 -26t64 -8q50 0 69.5 18t24.5 44l4 50q-23 -21 -52.5 -32.5t-61.5 -11.5q-47 0 -84.5 18.5t-64 51t-41 77t-14.5 97.5q0 57 18 103.5t47.5 79.5t67 51t75.5 18q36 0 66.5 -13t57.5 -45h4l12 46h138v-484q0 -100 -69 -151t-197 -51q-20 0 -43.5 3.5
t-48.5 10.5t-50.5 17.5t-47.5 24.5zM292 154q20 0 34.5 7.5t29.5 30.5v156q-15 14 -33 19t-35 5q-29 0 -50.5 -26.5t-21.5 -83.5q0 -54 20.5 -81t55.5 -27z" />
    <glyph glyph-name="fi" unicode="&#xfb01;" horiz-adv-x="666" 
d="M362 564q-12 5 -25 7.5t-25 2.5q-24 0 -38 -13.5t-14 -48.5v-12h84v-134h-84v-366h-172v366h-66v128l66 5v7q0 40 10 76.5t33.5 64.5t61 44.5t93.5 16.5q35 0 62 -6t44 -12zM522 562q-42 0 -69 24t-27 62t27 62t69 24t69 -24t27 -62t-27 -62t-69 -24zM436 500h172v-500
h-172v500z" />
    <glyph glyph-name="fl" unicode="&#xfb02;" horiz-adv-x="658" 
d="M362 564q-12 5 -25 7.5t-25 2.5q-24 0 -38 -13.5t-14 -48.5v-12h84v-134h-84v-366h-172v366h-66v128l66 5v7q0 40 10 76.5t33.5 64.5t61 44.5t93.5 16.5q35 0 62 -6t44 -12zM418 696h172v-526q0 -26 9.5 -35t18.5 -9h8.5t9.5 2l20 -126q-14 -6 -34.5 -10t-49.5 -4
q-44 0 -73.5 13.5t-47.5 38.5t-25.5 59.5t-7.5 76.5v520z" />
    <glyph glyph-name="I.a" horiz-adv-x="416" 
d="M54 144h68v362h-68v144h308v-144h-68v-362h68v-144h-308v144z" />
    <glyph glyph-name="Igrave.a" horiz-adv-x="416" 
d="M54 144h68v362h-68v144h308v-144h-68v-362h68v-144h-308v144zM34 824h180l78 -124h-136z" />
    <glyph glyph-name="Iacute.a" horiz-adv-x="416" 
d="M54 144h68v362h-68v144h308v-144h-68v-362h68v-144h-308v144zM260 700h-136l78 124h180z" />
    <glyph glyph-name="Icircumflex.a" horiz-adv-x="416" 
d="M54 144h68v362h-68v144h308v-144h-68v-362h68v-144h-308v144zM28 700l96 124h168l96 -124h-130l-48 58h-4l-48 -58h-130z" />
    <glyph glyph-name="Itilde.a" horiz-adv-x="416" 
d="M54 144h68v362h-68v144h308v-144h-68v-362h68v-144h-308v144zM272 700q-20 0 -37.5 6.5t-32.5 14.5t-27.5 14.5t-22.5 6.5q-12 0 -22 -9t-16 -33h-86q9 76 42 111t74 35q20 0 37.5 -6.5t32.5 -14.5t27 -14.5t23 -6.5q12 0 22 9t16 33h86q-5 -38 -16 -65.5t-26.5 -45.5
t-34.5 -26.5t-39 -8.5z" />
    <glyph glyph-name="Idieresis.a" horiz-adv-x="416" 
d="M54 144h68v362h-68v144h308v-144h-68v-362h68v-144h-308v144zM104 694q-35 0 -56.5 22.5t-21.5 55.5t21.5 55.5t56.5 22.5t56.5 -22.5t21.5 -55.5t-21.5 -55.5t-56.5 -22.5zM312 694q-35 0 -56.5 22.5t-21.5 55.5t21.5 55.5t56.5 22.5t56.5 -22.5t21.5 -55.5t-21.5 -55.5
t-56.5 -22.5z" />
    <glyph glyph-name="Imacron.a" horiz-adv-x="416" 
d="M54 144h68v362h-68v144h308v-144h-68v-362h68v-144h-308v144zM60 824h296v-108h-296v108z" />
    <glyph glyph-name="Idotaccent.a" horiz-adv-x="416" 
d="M54 144h68v362h-68v144h308v-144h-68v-362h68v-144h-308v144zM208 696q-42 0 -69 24t-27 62t27 62t69 24t69 -24t27 -62t-27 -62t-69 -24z" />
    <glyph glyph-name="uni01CF.a" horiz-adv-x="416" 
d="M54 144h68v362h-68v144h308v-144h-68v-362h68v-144h-308v144zM388 824l-96 -124h-168l-96 124h130l48 -58h4l48 58h130z" />
    <glyph glyph-name="uni1EC8.a" horiz-adv-x="416" 
d="M54 144h68v362h-68v144h308v-144h-68v-362h68v-144h-308v144zM158 754q17 2 28.5 7t11.5 17t-17 19.5t-61 10.5l20 84q52 -2 86.5 -9.5t55.5 -20t29.5 -29.5t8.5 -37q0 -27 -12 -46.5t-32.5 -33t-47.5 -20.5t-58 -8z" />
    <glyph glyph-name="uni1ECA.a" horiz-adv-x="416" 
d="M54 144h68v362h-68v144h308v-144h-68v-362h68v-144h-308v144zM208 -234q-41 0 -66.5 24t-25.5 62t25.5 62t66.5 24t66.5 -24t25.5 -62t-25.5 -62t-66.5 -24z" />
    <glyph glyph-name="Iogonek.a" horiz-adv-x="416" 
d="M54 144h68v362h-68v144h308v-144h-68v-362h68v-144h-95q-24 -20 -37.5 -41.5t-13.5 -42.5q0 -18 12.5 -26t27.5 -8q9 0 18 4.5t16 9.5l38 -86q-21 -17 -53 -27.5t-61 -10.5q-51 0 -86.5 25.5t-35.5 72.5q0 24 8 44.5t19 37.5t24 29t22 19h-111v144z" />
    <glyph glyph-name="a.a" horiz-adv-x="580" 
d="M212 252q0 -68 19.5 -96t54.5 -28q20 0 35 7.5t29 28.5v184q-15 14 -33 19t-35 5q-27 0 -48.5 -27t-21.5 -93zM36 250q0 61 18 110t47.5 82.5t67 51.5t75.5 18q36 0 66.5 -14.5t59.5 -47.5h4l14 50h134v-500h-140l-12 46h-4q-26 -26 -59.5 -42t-66.5 -16q-47 0 -84.5 18
t-64 52t-41 82.5t-14.5 109.5z" />
    <glyph glyph-name="agrave.a" horiz-adv-x="580" 
d="M212 252q0 -68 19.5 -96t54.5 -28q20 0 35 7.5t29 28.5v184q-15 14 -33 19t-35 5q-27 0 -48.5 -27t-21.5 -93zM36 250q0 61 18 110t47.5 82.5t67 51.5t75.5 18q36 0 66.5 -14.5t59.5 -47.5h4l14 50h134v-500h-140l-12 46h-4q-26 -26 -59.5 -42t-66.5 -16q-47 0 -84.5 18
t-64 52t-41 82.5t-14.5 109.5zM142 728h164l88 -154h-124z" />
    <glyph glyph-name="aacute.a" horiz-adv-x="580" 
d="M212 252q0 -68 19.5 -96t54.5 -28q20 0 35 7.5t29 28.5v184q-15 14 -33 19t-35 5q-27 0 -48.5 -27t-21.5 -93zM36 250q0 61 18 110t47.5 82.5t67 51.5t75.5 18q36 0 66.5 -14.5t59.5 -47.5h4l14 50h134v-500h-140l-12 46h-4q-26 -26 -59.5 -42t-66.5 -16q-47 0 -84.5 18
t-64 52t-41 82.5t-14.5 109.5zM342 574h-124l88 154h164z" />
    <glyph glyph-name="acircumflex.a" horiz-adv-x="580" 
d="M212 252q0 -68 19.5 -96t54.5 -28q20 0 35 7.5t29 28.5v184q-15 14 -33 19t-35 5q-27 0 -48.5 -27t-21.5 -93zM36 250q0 61 18 110t47.5 82.5t67 51.5t75.5 18q36 0 66.5 -14.5t59.5 -47.5h4l14 50h134v-500h-140l-12 46h-4q-26 -26 -59.5 -42t-66.5 -16q-47 0 -84.5 18
t-64 52t-41 82.5t-14.5 109.5zM238 728h136l96 -154h-114l-48 74h-4l-48 -74h-114z" />
    <glyph glyph-name="atilde.a" horiz-adv-x="580" 
d="M212 252q0 -68 19.5 -96t54.5 -28q20 0 35 7.5t29 28.5v184q-15 14 -33 19t-35 5q-27 0 -48.5 -27t-21.5 -93zM36 250q0 61 18 110t47.5 82.5t67 51.5t75.5 18q36 0 66.5 -14.5t59.5 -47.5h4l14 50h134v-500h-140l-12 46h-4q-26 -26 -59.5 -42t-66.5 -16q-47 0 -84.5 18
t-64 52t-41 82.5t-14.5 109.5zM130 574q9 77 40 111.5t72 34.5q20 0 37.5 -6.5t32.5 -14.5t27 -14.5t23 -6.5q12 0 20 9t14 33h86q-9 -77 -40 -111.5t-72 -34.5q-20 0 -37.5 6.5t-32.5 14.5t-27.5 14.5t-22.5 6.5q-12 0 -20 -9t-14 -33h-86v0z" />
    <glyph glyph-name="adieresis.a" horiz-adv-x="580" 
d="M212 252q0 -68 19.5 -96t54.5 -28q20 0 35 7.5t29 28.5v184q-15 14 -33 19t-35 5q-27 0 -48.5 -27t-21.5 -93zM36 250q0 61 18 110t47.5 82.5t67 51.5t75.5 18q36 0 66.5 -14.5t59.5 -47.5h4l14 50h134v-500h-140l-12 46h-4q-26 -26 -59.5 -42t-66.5 -16q-47 0 -84.5 18
t-64 52t-41 82.5t-14.5 109.5zM202 564q-35 0 -56.5 22.5t-21.5 55.5t21.5 55.5t56.5 22.5t56.5 -22.5t21.5 -55.5t-21.5 -55.5t-56.5 -22.5zM410 564q-35 0 -56.5 22.5t-21.5 55.5t21.5 55.5t56.5 22.5t56.5 -22.5t21.5 -55.5t-21.5 -55.5t-56.5 -22.5z" />
    <glyph glyph-name="amacron.a" horiz-adv-x="580" 
d="M212 252q0 -68 19.5 -96t54.5 -28q20 0 35 7.5t29 28.5v184q-15 14 -33 19t-35 5q-27 0 -48.5 -27t-21.5 -93zM36 250q0 61 18 110t47.5 82.5t67 51.5t75.5 18q36 0 66.5 -14.5t59.5 -47.5h4l14 50h134v-500h-140l-12 46h-4q-26 -26 -59.5 -42t-66.5 -16q-47 0 -84.5 18
t-64 52t-41 82.5t-14.5 109.5zM162 696h288v-108h-288v108z" />
    <glyph glyph-name="abreve.a" horiz-adv-x="580" 
d="M212 252q0 -68 19.5 -96t54.5 -28q20 0 35 7.5t29 28.5v184q-15 14 -33 19t-35 5q-27 0 -48.5 -27t-21.5 -93zM36 250q0 61 18 110t47.5 82.5t67 51.5t75.5 18q36 0 66.5 -14.5t59.5 -47.5h4l14 50h134v-500h-140l-12 46h-4q-26 -26 -59.5 -42t-66.5 -16q-47 0 -84.5 18
t-64 52t-41 82.5t-14.5 109.5zM306 574q-36 0 -62.5 11.5t-44.5 31t-27 46t-10 55.5h94q3 -23 15 -37.5t35 -14.5t35 14.5t15 37.5h94q-1 -29 -10 -55.5t-27 -46t-44.5 -31t-62.5 -11.5z" />
    <glyph glyph-name="aring.a" horiz-adv-x="580" 
d="M212 252q0 -68 19.5 -96t54.5 -28q20 0 35 7.5t29 28.5v184q-15 14 -33 19t-35 5q-27 0 -48.5 -27t-21.5 -93zM36 250q0 61 18 110t47.5 82.5t67 51.5t75.5 18q36 0 66.5 -14.5t59.5 -47.5h4l14 50h134v-500h-140l-12 46h-4q-26 -26 -59.5 -42t-66.5 -16q-47 0 -84.5 18
t-64 52t-41 82.5t-14.5 109.5zM306 550q-54 0 -87 29t-33 77t33 77t87 29t87 -29t33 -77t-33 -77t-87 -29zM306 612q16 0 27 12t11 32t-11 32t-27 12t-27 -12t-11 -32t11 -32t27 -12z" />
    <glyph glyph-name="uni01CE.a" horiz-adv-x="580" 
d="M212 252q0 -68 19.5 -96t54.5 -28q20 0 35 7.5t29 28.5v184q-15 14 -33 19t-35 5q-27 0 -48.5 -27t-21.5 -93zM36 250q0 61 18 110t47.5 82.5t67 51.5t75.5 18q36 0 66.5 -14.5t59.5 -47.5h4l14 50h134v-500h-140l-12 46h-4q-26 -26 -59.5 -42t-66.5 -16q-47 0 -84.5 18
t-64 52t-41 82.5t-14.5 109.5zM142 728h114l48 -74h4l48 74h114l-96 -154h-136z" />
    <glyph glyph-name="uni1EA1.a" horiz-adv-x="580" 
d="M212 252q0 -68 19.5 -96t54.5 -28q20 0 35 7.5t29 28.5v184q-15 14 -33 19t-35 5q-27 0 -48.5 -27t-21.5 -93zM36 250q0 61 18 110t47.5 82.5t67 51.5t75.5 18q36 0 66.5 -14.5t59.5 -47.5h4l14 50h134v-500h-140l-12 46h-4q-26 -26 -59.5 -42t-66.5 -16q-47 0 -84.5 18
t-64 52t-41 82.5t-14.5 109.5zM308 -234q-41 0 -66.5 24t-25.5 62t25.5 62t66.5 24t66.5 -24t25.5 -62t-25.5 -62t-66.5 -24z" />
    <glyph glyph-name="uni1EA3.a" horiz-adv-x="580" 
d="M212 252q0 -68 19.5 -96t54.5 -28q20 0 35 7.5t29 28.5v184q-15 14 -33 19t-35 5q-27 0 -48.5 -27t-21.5 -93zM36 250q0 61 18 110t47.5 82.5t67 51.5t75.5 18q36 0 66.5 -14.5t59.5 -47.5h4l14 50h134v-500h-140l-12 46h-4q-26 -26 -59.5 -42t-66.5 -16q-47 0 -84.5 18
t-64 52t-41 82.5t-14.5 109.5zM256 624q17 2 28.5 7t11.5 17t-17 19.5t-61 10.5l20 84q52 -2 86.5 -9.5t55.5 -20t29.5 -29.5t8.5 -37q0 -27 -12 -46.5t-32.5 -33t-47.5 -20.5t-58 -8z" />
    <glyph glyph-name="uni1EA5.a" horiz-adv-x="580" 
d="M212 252q0 -68 19.5 -96t54.5 -28q20 0 35 7.5t29 28.5v184q-15 14 -33 19t-35 5q-27 0 -48.5 -27t-21.5 -93zM36 250q0 61 18 110t47.5 82.5t67 51.5t75.5 18q36 0 66.5 -14.5t59.5 -47.5h4l14 50h134v-500h-140l-12 46h-4q-26 -26 -59.5 -42t-66.5 -16q-47 0 -84.5 18
t-64 52t-41 82.5t-14.5 109.5zM238 706h136l80 -132h-104l-42 62h-4l-42 -62h-104zM486 768h124l-96 -120h-94z" />
    <glyph glyph-name="uni1EA7.a" horiz-adv-x="580" 
d="M212 252q0 -68 19.5 -96t54.5 -28q20 0 35 7.5t29 28.5v184q-15 14 -33 19t-35 5q-27 0 -48.5 -27t-21.5 -93zM36 250q0 61 18 110t47.5 82.5t67 51.5t75.5 18q36 0 66.5 -14.5t59.5 -47.5h4l14 50h134v-500h-140l-12 46h-4q-26 -26 -59.5 -42t-66.5 -16q-47 0 -84.5 18
t-64 52t-41 82.5t-14.5 109.5zM238 706h136l80 -132h-104l-42 62h-4l-42 -62h-104zM574 648h-94l-96 120h124z" />
    <glyph glyph-name="uni1EA9.a" horiz-adv-x="580" 
d="M212 252q0 -68 19.5 -96t54.5 -28q20 0 35 7.5t29 28.5v184q-15 14 -33 19t-35 5q-27 0 -48.5 -27t-21.5 -93zM36 250q0 61 18 110t47.5 82.5t67 51.5t75.5 18q36 0 66.5 -14.5t59.5 -47.5h4l14 50h134v-500h-140l-12 46h-4q-26 -26 -59.5 -42t-66.5 -16q-47 0 -84.5 18
t-64 52t-41 82.5t-14.5 109.5zM238 706h136l80 -132h-104l-42 62h-4l-42 -62h-104zM442 684q12 2 19 7t7 17t-13 19.5t-51 10.5l16 70q46 -2 76.5 -8.5t48.5 -17t25.5 -25t7.5 -31.5q0 -26 -10 -43.5t-27 -28.5t-40 -17t-49 -9z" />
    <glyph glyph-name="uni1EAB.a" horiz-adv-x="580" 
d="M212 252q0 -68 19.5 -96t54.5 -28q20 0 35 7.5t29 28.5v184q-15 14 -33 19t-35 5q-27 0 -48.5 -27t-21.5 -93zM36 250q0 61 18 110t47.5 82.5t67 51.5t75.5 18q36 0 66.5 -14.5t59.5 -47.5h4l14 50h134v-500h-140l-12 46h-4q-26 -26 -59.5 -42t-66.5 -16q-47 0 -84.5 18
t-64 52t-41 82.5t-14.5 109.5zM228 688h156l78 -114h-110l-44 56h-4l-44 -56h-110zM154 724q8 66 35.5 94t60.5 28q20 0 35 -5.5t26.5 -12.5t21 -12.5t19.5 -5.5q12 0 20.5 8t13.5 28h72q-8 -66 -35.5 -94t-60.5 -28q-20 0 -35 5.5t-26.5 12.5t-21 12.5t-19.5 5.5
q-12 0 -20.5 -8t-13.5 -28h-72z" />
    <glyph glyph-name="uni1EAD.a" horiz-adv-x="580" 
d="M212 252q0 -68 19.5 -96t54.5 -28q20 0 35 7.5t29 28.5v184q-15 14 -33 19t-35 5q-27 0 -48.5 -27t-21.5 -93zM36 250q0 61 18 110t47.5 82.5t67 51.5t75.5 18q36 0 66.5 -14.5t59.5 -47.5h4l14 50h134v-500h-140l-12 46h-4q-26 -26 -59.5 -42t-66.5 -16q-47 0 -84.5 18
t-64 52t-41 82.5t-14.5 109.5zM238 728h136l96 -154h-114l-48 74h-4l-48 -74h-114zM308 -234q-41 0 -66.5 24t-25.5 62t25.5 62t66.5 24t66.5 -24t25.5 -62t-25.5 -62t-66.5 -24z" />
    <glyph glyph-name="uni1EAF.a" horiz-adv-x="580" 
d="M212 252q0 -68 19.5 -96t54.5 -28q20 0 35 7.5t29 28.5v184q-15 14 -33 19t-35 5q-27 0 -48.5 -27t-21.5 -93zM36 250q0 61 18 110t47.5 82.5t67 51.5t75.5 18q36 0 66.5 -14.5t59.5 -47.5h4l14 50h134v-500h-140l-12 46h-4q-26 -26 -59.5 -42t-66.5 -16q-47 0 -84.5 18
t-64 52t-41 82.5t-14.5 109.5zM310 818h120l-90 -120h-84zM306 574q-36 0 -62.5 11.5t-44.5 31t-27 46t-10 55.5h74q5 -27 21.5 -44.5t48.5 -17.5t48.5 17.5t21.5 44.5h74q-1 -29 -10 -55.5t-27 -46t-44.5 -31t-62.5 -11.5z" />
    <glyph glyph-name="uni1EB1.a" horiz-adv-x="580" 
d="M212 252q0 -68 19.5 -96t54.5 -28q20 0 35 7.5t29 28.5v184q-15 14 -33 19t-35 5q-27 0 -48.5 -27t-21.5 -93zM36 250q0 61 18 110t47.5 82.5t67 51.5t75.5 18q36 0 66.5 -14.5t59.5 -47.5h4l14 50h134v-500h-140l-12 46h-4q-26 -26 -59.5 -42t-66.5 -16q-47 0 -84.5 18
t-64 52t-41 82.5t-14.5 109.5zM356 698h-84l-90 120h120zM306 574q-36 0 -62.5 11.5t-44.5 31t-27 46t-10 55.5h74q5 -27 21.5 -44.5t48.5 -17.5t48.5 17.5t21.5 44.5h74q-1 -29 -10 -55.5t-27 -46t-44.5 -31t-62.5 -11.5z" />
    <glyph glyph-name="uni1EB3.a" horiz-adv-x="580" 
d="M212 252q0 -68 19.5 -96t54.5 -28q20 0 35 7.5t29 28.5v184q-15 14 -33 19t-35 5q-27 0 -48.5 -27t-21.5 -93zM36 250q0 61 18 110t47.5 82.5t67 51.5t75.5 18q36 0 66.5 -14.5t59.5 -47.5h4l14 50h134v-500h-140l-12 46h-4q-26 -26 -59.5 -42t-66.5 -16q-47 0 -84.5 18
t-64 52t-41 82.5t-14.5 109.5zM306 574q-36 0 -62.5 11.5t-44.5 31t-27 46t-10 55.5h74q5 -27 21.5 -44.5t48.5 -17.5t48.5 17.5t21.5 44.5h74q-1 -29 -10 -55.5t-27 -46t-44.5 -31t-62.5 -11.5zM258 759q12 2 19 7t7 17t-13 19.5t-51 10.5l16 70q46 -2 76.5 -8.5t48.5 -17
t25.5 -25t7.5 -31.5q0 -26 -10 -43.5t-27 -28.5t-40 -17t-49 -9z" />
    <glyph glyph-name="uni1EB5.a" horiz-adv-x="580" 
d="M212 252q0 -68 19.5 -96t54.5 -28q20 0 35 7.5t29 28.5v184q-15 14 -33 19t-35 5q-27 0 -48.5 -27t-21.5 -93zM36 250q0 61 18 110t47.5 82.5t67 51.5t75.5 18q36 0 66.5 -14.5t59.5 -47.5h4l14 50h134v-500h-140l-12 46h-4q-26 -26 -59.5 -42t-66.5 -16q-47 0 -84.5 18
t-64 52t-41 82.5t-14.5 109.5zM306 574q-72 0 -107.5 36.5t-36.5 87.5h78q5 -18 19.5 -32t46.5 -14t46.5 14t19.5 32h78q-1 -26 -10 -48.5t-27 -39t-44.5 -26.5t-62.5 -10zM154 724q8 66 35.5 94t60.5 28q20 0 35 -5.5t26.5 -12.5t21 -12.5t19.5 -5.5q12 0 20.5 8t13.5 28
h72q-8 -66 -35.5 -94t-60.5 -28q-20 0 -35 5.5t-26.5 12.5t-21 12.5t-19.5 5.5q-12 0 -20.5 -8t-13.5 -28h-72z" />
    <glyph glyph-name="uni1EB7.a" horiz-adv-x="580" 
d="M212 252q0 -68 19.5 -96t54.5 -28q20 0 35 7.5t29 28.5v184q-15 14 -33 19t-35 5q-27 0 -48.5 -27t-21.5 -93zM36 250q0 61 18 110t47.5 82.5t67 51.5t75.5 18q36 0 66.5 -14.5t59.5 -47.5h4l14 50h134v-500h-140l-12 46h-4q-26 -26 -59.5 -42t-66.5 -16q-47 0 -84.5 18
t-64 52t-41 82.5t-14.5 109.5zM306 574q-36 0 -62.5 11.5t-44.5 31t-27 46t-10 55.5h94q3 -23 15 -37.5t35 -14.5t35 14.5t15 37.5h94q-1 -29 -10 -55.5t-27 -46t-44.5 -31t-62.5 -11.5zM308 -234q-41 0 -66.5 24t-25.5 62t25.5 62t66.5 24t66.5 -24t25.5 -62t-25.5 -62
t-66.5 -24z" />
    <glyph glyph-name="aogonek.a" horiz-adv-x="580" 
d="M212 252q0 -68 19.5 -96t54.5 -28q20 0 35 7.5t29 28.5v184q-15 14 -33 19t-35 5q-27 0 -48.5 -27t-21.5 -93zM36 250q0 61 18 110t47.5 82.5t67 51.5t75.5 18q36 0 66.5 -14.5t59.5 -47.5h4l14 50h134v-500q-51 -12 -69.5 -34.5t-18.5 -43.5q0 -17 12 -25.5t28 -8.5
q9 0 18.5 3.5t15.5 8.5l34 -76q-21 -17 -52.5 -26.5t-57.5 -9.5q-47 0 -79.5 23.5t-32.5 70.5q0 22 7 41t17.5 33.5t21 24.5t18.5 15l-14 50h-4q-26 -26 -59.5 -42t-66.5 -16q-47 0 -84.5 18t-64 52t-41 82.5t-14.5 109.5z" />
    <glyph glyph-name="g.a" horiz-adv-x="592" 
d="M128 -18q35 -18 70 -26t64 -8q50 0 69.5 18t24.5 44l4 50q-23 -21 -52.5 -32.5t-61.5 -11.5q-47 0 -84.5 18.5t-64 51t-41 77t-14.5 97.5q0 57 18 103.5t47.5 79.5t67 51t75.5 18q36 0 66.5 -13t57.5 -45h4l12 46h138v-484q0 -100 -69 -151t-197 -51q-20 0 -43.5 3.5
t-48.5 10.5t-50.5 17.5t-47.5 24.5zM292 154q20 0 34.5 7.5t29.5 30.5v156q-15 14 -33 19t-35 5q-29 0 -50.5 -26.5t-21.5 -83.5q0 -54 20.5 -81t55.5 -27z" />
    <glyph glyph-name="gcircumflex.a" horiz-adv-x="592" 
d="M128 -18q35 -18 70 -26t64 -8q50 0 69.5 18t24.5 44l4 50q-23 -21 -52.5 -32.5t-61.5 -11.5q-47 0 -84.5 18.5t-64 51t-41 77t-14.5 97.5q0 57 18 103.5t47.5 79.5t67 51t75.5 18q36 0 66.5 -13t57.5 -45h4l12 46h138v-484q0 -100 -69 -151t-197 -51q-20 0 -43.5 3.5
t-48.5 10.5t-50.5 17.5t-47.5 24.5zM292 154q20 0 34.5 7.5t29.5 30.5v156q-15 14 -33 19t-35 5q-29 0 -50.5 -26.5t-21.5 -83.5q0 -54 20.5 -81t55.5 -27zM238 728h136l96 -154h-114l-48 74h-4l-48 -74h-114z" />
    <glyph glyph-name="gbreve.a" horiz-adv-x="592" 
d="M128 -18q35 -18 70 -26t64 -8q50 0 69.5 18t24.5 44l4 50q-23 -21 -52.5 -32.5t-61.5 -11.5q-47 0 -84.5 18.5t-64 51t-41 77t-14.5 97.5q0 57 18 103.5t47.5 79.5t67 51t75.5 18q36 0 66.5 -13t57.5 -45h4l12 46h138v-484q0 -100 -69 -151t-197 -51q-20 0 -43.5 3.5
t-48.5 10.5t-50.5 17.5t-47.5 24.5zM292 154q20 0 34.5 7.5t29.5 30.5v156q-15 14 -33 19t-35 5q-29 0 -50.5 -26.5t-21.5 -83.5q0 -54 20.5 -81t55.5 -27zM306 574q-36 0 -62.5 11.5t-44.5 31t-27 46t-10 55.5h94q3 -23 15 -37.5t35 -14.5t35 14.5t15 37.5h94
q-1 -29 -10 -55.5t-27 -46t-44.5 -31t-62.5 -11.5z" />
    <glyph glyph-name="gdotaccent.a" horiz-adv-x="592" 
d="M128 -18q35 -18 70 -26t64 -8q50 0 69.5 18t24.5 44l4 50q-23 -21 -52.5 -32.5t-61.5 -11.5q-47 0 -84.5 18.5t-64 51t-41 77t-14.5 97.5q0 57 18 103.5t47.5 79.5t67 51t75.5 18q36 0 66.5 -13t57.5 -45h4l12 46h138v-484q0 -100 -69 -151t-197 -51q-20 0 -43.5 3.5
t-48.5 10.5t-50.5 17.5t-47.5 24.5zM292 154q20 0 34.5 7.5t29.5 30.5v156q-15 14 -33 19t-35 5q-29 0 -50.5 -26.5t-21.5 -83.5q0 -54 20.5 -81t55.5 -27zM306 562q-41 0 -66.5 24t-25.5 62t25.5 62t66.5 24t66.5 -24t25.5 -62t-25.5 -62t-66.5 -24z" />
    <glyph glyph-name="uni0123.a" horiz-adv-x="592" 
d="M128 -18q35 -18 70 -26t64 -8q50 0 69.5 18t24.5 44l4 50q-23 -21 -52.5 -32.5t-61.5 -11.5q-47 0 -84.5 18.5t-64 51t-41 77t-14.5 97.5q0 57 18 103.5t47.5 79.5t67 51t75.5 18q36 0 66.5 -13t57.5 -45h4l12 46h138v-484q0 -100 -69 -151t-197 -51q-20 0 -43.5 3.5
t-48.5 10.5t-50.5 17.5t-47.5 24.5zM292 154q20 0 34.5 7.5t29.5 30.5v156q-15 14 -33 19t-35 5q-29 0 -50.5 -26.5t-21.5 -83.5q0 -54 20.5 -81t55.5 -27zM344 546q-37 3 -62 9.5t-40 17t-21.5 25t-6.5 34.5q0 27 15.5 46.5t41.5 33t60.5 20t72.5 8.5l12 -66
q-35 -3 -57.5 -10t-22.5 -24q0 -12 8.5 -20t31.5 -14l-32 -60v0z" />
    <glyph glyph-name="gcaron.a" horiz-adv-x="592" 
d="M128 -18q35 -18 70 -26t64 -8q50 0 69.5 18t24.5 44l4 50q-23 -21 -52.5 -32.5t-61.5 -11.5q-47 0 -84.5 18.5t-64 51t-41 77t-14.5 97.5q0 57 18 103.5t47.5 79.5t67 51t75.5 18q36 0 66.5 -13t57.5 -45h4l12 46h138v-484q0 -100 -69 -151t-197 -51q-20 0 -43.5 3.5
t-48.5 10.5t-50.5 17.5t-47.5 24.5zM292 154q20 0 34.5 7.5t29.5 30.5v156q-15 14 -33 19t-35 5q-29 0 -50.5 -26.5t-21.5 -83.5q0 -54 20.5 -81t55.5 -27zM142 728h114l48 -74h4l48 74h114l-96 -154h-136z" />
    <glyph glyph-name="uni1E21.a" horiz-adv-x="592" 
d="M128 -18q35 -18 70 -26t64 -8q50 0 69.5 18t24.5 44l4 50q-23 -21 -52.5 -32.5t-61.5 -11.5q-47 0 -84.5 18.5t-64 51t-41 77t-14.5 97.5q0 57 18 103.5t47.5 79.5t67 51t75.5 18q36 0 66.5 -13t57.5 -45h4l12 46h138v-484q0 -100 -69 -151t-197 -51q-20 0 -43.5 3.5
t-48.5 10.5t-50.5 17.5t-47.5 24.5zM292 154q20 0 34.5 7.5t29.5 30.5v156q-15 14 -33 19t-35 5q-29 0 -50.5 -26.5t-21.5 -83.5q0 -54 20.5 -81t55.5 -27zM162 696h288v-108h-288v108z" />
    <glyph glyph-name="uni00670303.a" horiz-adv-x="592" 
d="M128 -18q35 -18 70 -26t64 -8q50 0 69.5 18t24.5 44l4 50q-23 -21 -52.5 -32.5t-61.5 -11.5q-47 0 -84.5 18.5t-64 51t-41 77t-14.5 97.5q0 57 18 103.5t47.5 79.5t67 51t75.5 18q36 0 66.5 -13t57.5 -45h4l12 46h138v-484q0 -100 -69 -151t-197 -51q-20 0 -43.5 3.5
t-48.5 10.5t-50.5 17.5t-47.5 24.5zM292 154q20 0 34.5 7.5t29.5 30.5v156q-15 14 -33 19t-35 5q-29 0 -50.5 -26.5t-21.5 -83.5q0 -54 20.5 -81t55.5 -27zM130 574q9 77 40 111.5t72 34.5q20 0 37.5 -6.5t32.5 -14.5t27 -14.5t23 -6.5q12 0 20 9t14 33h86
q-9 -77 -40 -111.5t-72 -34.5q-20 0 -37.5 6.5t-32.5 14.5t-27.5 14.5t-22.5 6.5q-12 0 -20 -9t-14 -33h-86v0z" />
    <glyph glyph-name="l.a" horiz-adv-x="288" 
d="M58 696h172v-696h-172v696z" />
    <glyph glyph-name="lacute.a" horiz-adv-x="288" 
d="M58 696h172v-696h-172v696zM201 756h-136l78 124h180z" />
    <glyph glyph-name="lcaron.a" horiz-adv-x="338" 
d="M58 696h172v-696h-172v696zM268 548l-6 226h108l-2 -74l-28 -152h-72z" />
    <glyph glyph-name="ldot.a" horiz-adv-x="488" 
d="M58 696h172v-696h-172v696zM288 330q0 44 28 74t72 30t72 -30t28 -74t-28 -74t-72 -30t-72 30t-28 74z" />
    <glyph glyph-name="uni013C.a" horiz-adv-x="288" 
d="M58 696h172v-696h-172v696zM105 -40q73 -6 101.5 -26.5t28.5 -59.5q0 -27 -15.5 -46.5t-41.5 -33t-60.5 -20.5t-72.5 -8l-12 66q35 3 57.5 10t22.5 24q0 12 -8.5 20t-31.5 14l32 60v0z" />
    <glyph glyph-name="uni1E37.a" horiz-adv-x="288" 
d="M58 696h172v-696h-172v696zM143 -234q-41 0 -66.5 24t-25.5 62t25.5 62t66.5 24t66.5 -24t25.5 -62t-25.5 -62t-66.5 -24z" />
    <glyph glyph-name="uni1E39.a" horiz-adv-x="288" 
d="M58 696h172v-696h-172v696zM-1 904h288v-108h-288v108zM143 -234q-41 0 -66.5 24t-25.5 62t25.5 62t66.5 24t66.5 -24t25.5 -62t-25.5 -62t-66.5 -24z" />
    <glyph glyph-name="uni1E3B.a" horiz-adv-x="288" 
d="M58 696h172v-696h-172v696zM287 -196h-288v108h288v-108z" />
    <glyph glyph-name="lslash.a" horiz-adv-x="316" 
d="M306 376l-76 -44v-332h-172v248l-46 -28v136l46 28v312h172v-228l76 44v-136z" />
    <glyph glyph-name="fl.a" horiz-adv-x="666" 
d="M362 564q-12 5 -25 7.5t-25 2.5q-24 0 -38 -13.5t-14 -48.5v-12h84v-134h-84v-366h-172v366h-66v128l66 5v7q0 40 10 76.5t33.5 64.5t61 44.5t93.5 16.5q35 0 62 -6t44 -12zM436 696h172v-696h-172v696z" />
    <glyph glyph-name="ampersand" unicode="&#x26;" horiz-adv-x="690" 
d="M184 186q0 -30 22.5 -49t61.5 -19q29 0 64 16q-68 54 -118 113q-14 -14 -22 -29t-8 -32zM239 486q0 -31 18 -65q31 18 51 38t20 49q0 42 -38 42q-20 0 -35.5 -16t-15.5 -48zM630 -12q-43 8 -86.5 24t-87.5 39q-43 -29 -95 -46t-115 -17q-57 0 -99 15.5t-69.5 41.5
t-41.5 60t-14 71q0 34 9 61.5t25 49t37 39t44 31.5q-19 34 -29 67t-10 62q0 35 13 67t37.5 56t59 38.5t78.5 14.5q78 0 125 -41.5t47 -112.5q0 -32 -11 -58t-29 -48t-41.5 -40.5t-48.5 -34.5q25 -26 54 -50.5t60 -46.5q23 30 41 66t29 78h156q-17 -57 -43 -110t-63 -103
q59 -29 108 -35z" />
    <glyph glyph-name="zero" unicode="0" horiz-adv-x="540" 
d="M270 -12q-53 0 -96 21.5t-74.5 63.5t-48.5 104t-17 143t17 142.5t48.5 102t74.5 61t96 20.5q52 0 95.5 -20.5t75 -61.5t48.5 -102t17 -142t-17 -143t-48.5 -104t-75 -63.5t-95.5 -21.5zM270 120q15 0 28.5 7.5t23.5 29.5t16 61t6 102t-6 101t-16 59t-23.5 27.5t-28.5 6.5
t-28.5 -6.5t-23.5 -27.5t-16 -59t-6 -101t6 -102t16 -61t23.5 -29.5t28.5 -7.5z" />
    <glyph glyph-name="one" unicode="1" horiz-adv-x="540" 
d="M66 138h136v328h-120v106q54 11 92 25t74 37h126v-496h114v-138h-422v138z" />
    <glyph glyph-name="two" unicode="2" horiz-adv-x="540" 
d="M36 98q56 52 104.5 98t84.5 86.5t56.5 77t20.5 68.5q0 43 -21.5 63.5t-56.5 20.5q-32 0 -56.5 -18.5t-47.5 -41.5l-92 92q25 26 49 45.5t50.5 32t56 18.5t64.5 6q48 0 88 -15t69 -42t45 -65.5t16 -85.5q0 -38 -16.5 -77.5t-42.5 -78.5t-58.5 -76t-64.5 -70q24 3 54.5 5.5
t51.5 2.5h106v-144h-460v98z" />
    <glyph glyph-name="three" unicode="3" horiz-adv-x="540" 
d="M98 186q29 -27 62.5 -43.5t67.5 -16.5q42 0 67 15t25 45q0 18 -6 32t-23 24t-48 15t-81 5v120q40 0 66.5 5t42.5 14.5t22.5 22.5t6.5 30q0 58 -66 58q-32 0 -57 -13t-55 -39l-86 104q47 39 97 60.5t109 21.5q105 0 167.5 -46.5t62.5 -132.5q0 -92 -102 -137v-4
q54 -17 88 -54.5t34 -97.5q0 -45 -20 -79.5t-53.5 -58.5t-78.5 -36t-94 -12q-78 0 -134 24t-92 66z" />
    <glyph glyph-name="four" unicode="4" horiz-adv-x="540" 
d="M290 272v72q0 16 0.5 35.5t1.5 39.5t2 39.5t2 35.5h-4q-12 -29 -25 -57t-27 -57l-58 -108h108zM518 142h-68v-142h-160v142h-270v120l216 372h214v-362h68v-130z" />
    <glyph glyph-name="five" unicode="5" horiz-adv-x="540" 
d="M98 186q29 -26 61 -43t67 -17q45 0 69.5 20t24.5 62q0 41 -24 61.5t-62 20.5q-13 0 -23 -1.5t-19.5 -4.5t-20.5 -9t-25 -15l-74 48l16 326h376v-144h-228l-8 -92q17 6 30.5 8t29.5 2q41 0 78 -12t65 -36t44.5 -61t16.5 -87q0 -53 -19.5 -95t-52.5 -70.5t-76.5 -43.5
t-91.5 -15q-78 0 -134.5 25.5t-95.5 64.5z" />
    <glyph glyph-name="six" unicode="6" horiz-adv-x="540" 
d="M282 116q27 0 47.5 19t20.5 69q0 23 -6 37.5t-15.5 23t-22.5 12t-26 3.5q-22 0 -43 -12.5t-38 -41.5q5 -33 14.5 -54.5t20.5 -34t23.5 -17t24.5 -4.5zM408 464q-15 17 -42 30.5t-54 13.5q-23 0 -43.5 -8.5t-36 -29t-25.5 -53t-12 -80.5q12 15 27 27t31.5 20t32 12t28.5 4
q40 0 75.5 -11.5t61 -35.5t40.5 -61t15 -88t-17.5 -91t-47.5 -68t-70 -42.5t-85 -14.5q-46 0 -90.5 17.5t-79.5 55.5t-56.5 98.5t-21.5 146.5t22 150t58 106t83.5 63t98.5 21q68 0 117 -24t81 -56z" />
    <glyph glyph-name="seven" unicode="7" horiz-adv-x="540" 
d="M152 0q4 75 14 138t28.5 121t48 114t73.5 117h-272v144h454v-106q-55 -64 -87 -120t-50 -115.5t-25.5 -129.5t-11.5 -163h-172v0z" />
    <glyph glyph-name="eight" unicode="8" horiz-adv-x="540" 
d="M189 182q0 -38 25 -57t58 -19q29 0 49 15t20 51q0 17 -8 30t-23.5 23.5t-37.5 20.5t-50 22q-14 -17 -23.5 -39.5t-9.5 -46.5zM306 378q28 40 28 80q0 33 -17 51.5t-47 18.5q-23 0 -40.5 -14.5t-17.5 -47.5q0 -32 24.5 -51t69.5 -37zM42 162q0 56 29.5 91t74.5 59v4
q-38 29 -61 64.5t-23 85.5q0 42 15.5 75.5t44 56.5t67 35.5t85.5 12.5q44 0 80.5 -12.5t62.5 -35t40.5 -55.5t14.5 -73q0 -44 -23.5 -77.5t-57.5 -55.5v-4q47 -25 78 -64.5t31 -102.5q0 -38 -16.5 -70.5t-47 -56.5t-73.5 -37.5t-95 -13.5q-48 0 -89.5 12.5t-72 35.5
t-47.5 55t-17 71z" />
    <glyph glyph-name="nine" unicode="9" horiz-adv-x="540" 
d="M258 354q22 0 43 12.5t38 41.5q-5 33 -14.5 54.5t-20.5 34t-23.5 17t-24.5 4.5q-27 0 -47.5 -19t-20.5 -69q0 -23 6 -37.5t15.5 -23t22 -12t26.5 -3.5zM130 170q15 -17 42 -30.5t54 -13.5q24 0 44 8.5t35.5 29t25.5 53t12 80.5q-12 -15 -27 -27t-31.5 -20t-32 -12
t-28.5 -4q-41 0 -76 11.5t-60.5 35.5t-40.5 61t-15 88t17.5 91t47.5 68t70 42.5t85 14.5q46 0 90.5 -17.5t79.5 -55.5t56.5 -98.5t21.5 -146.5t-22 -150t-58 -106t-83.5 -63t-98.5 -21q-68 0 -117 24t-81 56z" />
    <glyph glyph-name="zero.pnum" horiz-adv-x="596" 
d="M298 -12q-55 0 -100 22.5t-77.5 65.5t-50.5 104.5t-18 139.5t18 138.5t50.5 102.5t77.5 63.5t100 21.5t100 -22t77.5 -63.5t50.5 -102t18 -138.5t-18 -139.5t-50.5 -104.5t-77.5 -65.5t-100 -22.5zM298 126q16 0 30 8t23.5 29t15 59t5.5 98t-5.5 97t-15 57t-23.5 27
t-30 7q-17 0 -30.5 -7t-23 -27t-15 -57t-5.5 -97t5.5 -98t15 -59t23 -29t30.5 -8z" />
    <glyph glyph-name="one.pnum" horiz-adv-x="426" 
d="M154 466h-120v106q54 11 92 25t74 37h126v-634h-172v466z" />
    <glyph glyph-name="two.pnum" horiz-adv-x="536" 
d="M46 98q55 52 101.5 98t81 86.5t54 77t19.5 68.5q0 43 -18.5 63.5t-53.5 20.5q-32 0 -57.5 -18.5t-48.5 -41.5l-92 92q25 26 49.5 45.5t51 32t56.5 18.5t65 6q48 0 87 -15t67 -42t43 -65.5t15 -85.5q0 -38 -15.5 -77.5t-40 -78.5t-55.5 -76t-61 -70q24 3 54.5 5.5
t51.5 2.5h86v-144h-440v98z" />
    <glyph glyph-name="three.pnum" horiz-adv-x="540" 
d="M98 186q29 -27 62.5 -43.5t67.5 -16.5q42 0 67 15t25 45q0 18 -6 32t-23 24t-48 15t-81 5v120q40 0 66.5 5t42.5 14.5t22.5 22.5t6.5 30q0 58 -66 58q-32 0 -57 -13t-55 -39l-86 104q47 39 97 60.5t109 21.5q105 0 167.5 -46.5t62.5 -132.5q0 -92 -102 -137v-4
q54 -17 88 -54.5t34 -97.5q0 -45 -20 -79.5t-53.5 -58.5t-78.5 -36t-94 -12q-78 0 -134 24t-92 66z" />
    <glyph glyph-name="four.pnum" horiz-adv-x="576" 
d="M308 272v72q0 16 0.5 35.5t1.5 39.5t2 39.5t2 35.5h-4q-12 -29 -25 -57t-27 -57l-58 -108h108zM536 142h-68v-142h-160v142h-270v120l216 372h214v-362h68v-130z" />
    <glyph glyph-name="five.pnum" horiz-adv-x="540" 
d="M98 186q29 -26 61 -43t67 -17q45 0 69.5 20t24.5 62q0 41 -24 61.5t-62 20.5q-13 0 -23 -1.5t-19.5 -4.5t-20.5 -9t-25 -15l-74 48l16 326h376v-144h-228l-8 -92q17 6 30.5 8t29.5 2q41 0 78 -12t65 -36t44.5 -61t16.5 -87q0 -53 -19.5 -95t-52.5 -70.5t-76.5 -43.5
t-91.5 -15q-78 0 -134.5 25.5t-95.5 64.5z" />
    <glyph glyph-name="six.pnum" horiz-adv-x="576" 
d="M300 116q27 0 47.5 19t20.5 69q0 23 -6 37.5t-15.5 23t-22.5 12t-26 3.5q-22 0 -43 -12.5t-38 -41.5q5 -33 14.5 -54.5t20.5 -34t23.5 -17t24.5 -4.5zM426 464q-15 17 -42 30.5t-54 13.5q-23 0 -43.5 -8.5t-36 -29t-25.5 -53t-12 -80.5q12 15 27 27t31.5 20t32 12t28.5 4
q40 0 75.5 -11.5t61 -35.5t40.5 -61t15 -88t-17.5 -91t-47.5 -68t-70 -42.5t-85 -14.5q-46 0 -90.5 17.5t-79.5 55.5t-56.5 98.5t-21.5 146.5t22 150t58 106t83.5 63t98.5 21q68 0 117 -24t81 -56z" />
    <glyph glyph-name="seven.pnum" horiz-adv-x="526" 
d="M142 0q4 75 13.5 138t27.5 121t46.5 114t72.5 117h-258v144h440v-106q-54 -64 -85.5 -120t-49 -115.5t-24.5 -129.5t-11 -163h-172v0z" />
    <glyph glyph-name="eight.pnum" horiz-adv-x="558" 
d="M197 182q0 -38 25 -57t58 -19q29 0 49 15t20 51q0 17 -8 30t-23.5 23.5t-37.5 20.5t-50 22q-14 -17 -23.5 -39.5t-9.5 -46.5zM314 378q28 40 28 80q0 33 -17 51.5t-47 18.5q-23 0 -40.5 -14.5t-17.5 -47.5q0 -32 24.5 -51t69.5 -37zM50 162q0 56 29.5 91t74.5 59v4
q-38 29 -61 64.5t-23 85.5q0 42 15.5 75.5t44 56.5t67 35.5t85.5 12.5q44 0 80.5 -12.5t62.5 -35t40.5 -55.5t14.5 -73q0 -44 -23.5 -77.5t-57.5 -55.5v-4q47 -25 78 -64.5t31 -102.5q0 -38 -16.5 -70.5t-47 -56.5t-73.5 -37.5t-95 -13.5q-48 0 -89.5 12.5t-72 35.5
t-47.5 55t-17 71z" />
    <glyph glyph-name="nine.pnum" horiz-adv-x="576" 
d="M276 354q22 0 43 12.5t38 41.5q-5 33 -14.5 54.5t-20.5 34t-23.5 17t-24.5 4.5q-27 0 -47.5 -19t-20.5 -69q0 -23 6 -37.5t15.5 -23t22 -12t26.5 -3.5zM148 170q15 -17 42 -30.5t54 -13.5q24 0 44 8.5t35.5 29t25.5 53t12 80.5q-12 -15 -27 -27t-31.5 -20t-32 -12
t-28.5 -4q-41 0 -76 11.5t-60.5 35.5t-40.5 61t-15 88t17.5 91t47.5 68t70 42.5t85 14.5q46 0 90.5 -17.5t79.5 -55.5t56.5 -98.5t21.5 -146.5t-22 -150t-58 -106t-83.5 -63t-98.5 -21q-68 0 -117 24t-81 56z" />
    <glyph glyph-name="zero.tnum" horiz-adv-x="540" 
d="M270 -12q-52 0 -95 20t-74.5 59t-49 95t-17.5 128t17.5 128t49 95t74.5 59t95 20t95 -20t74.5 -59t49 -95t17.5 -128t-17.5 -128t-49 -95t-74.5 -59t-95 -20zM270 120q39 0 56.5 47.5t17.5 122.5t-17.5 122.5t-56.5 47.5t-56.5 -47.5t-17.5 -122.5t17.5 -122.5
t56.5 -47.5z" />
    <glyph glyph-name="one.tnum" horiz-adv-x="540" 
d="M66 138h136v274h-120v106q54 11 92 25t74 37h126v-442h114v-138h-422v138z" />
    <glyph glyph-name="two.tnum" horiz-adv-x="540" 
d="M36 98q56 43 104 81.5t82.5 74t54 67.5t19.5 61q0 37 -20 56.5t-50 19.5q-33 0 -58 -18.5t-48 -41.5l-92 92q25 26 49 45.5t50.5 32t56 18.5t64.5 6q46 0 85 -14.5t67.5 -41.5t44 -64t15.5 -82q0 -34 -12 -65t-33 -62t-51 -62t-66 -65q24 3 54.5 5.5t51.5 2.5h92v-144
h-460v98z" />
    <glyph glyph-name="three.tnum" horiz-adv-x="540" 
d="M98 106q29 -27 62.5 -43.5t67.5 -16.5q42 0 67 19t25 49q0 18 -6 33t-23 26t-48 17t-81 6v120q40 0 66.5 6.5t42.5 17t22.5 25t6.5 31.5q0 29 -17 45.5t-49 16.5t-57 -13t-55 -39l-86 104q47 39 97 60.5t109 21.5q52 0 94.5 -12.5t72.5 -36t46.5 -57.5t16.5 -77
q0 -46 -25.5 -84t-76.5 -61v-4q54 -17 88 -56.5t34 -101.5q0 -45 -20 -81t-53.5 -61t-78.5 -38.5t-94 -13.5q-78 0 -134 24t-92 66z" />
    <glyph glyph-name="four.tnum" horiz-adv-x="540" 
d="M290 208v82q0 16 0.5 35.5t1.5 39.5t2 39.5t2 35.5h-4q-12 -29 -25 -59t-27 -59l-58 -114h108zM518 78h-68v-158h-160v158h-270v120l216 382h214v-372h68v-130z" />
    <glyph glyph-name="five.tnum" horiz-adv-x="540" 
d="M98 106q29 -26 61 -43t67 -17q45 0 69.5 22.5t24.5 67.5q0 42 -24 65t-62 23q-13 0 -23 -1.5t-19.5 -4.5t-20.5 -9t-25 -15l-74 48l16 338h376v-144h-228l-8 -104q17 6 30.5 8t29.5 2q41 0 78 -12.5t65 -37.5t44.5 -63t16.5 -89q0 -56 -19.5 -99t-52.5 -72.5t-76.5 -45
t-91.5 -15.5q-78 0 -134.5 26.5t-95.5 65.5z" />
    <glyph glyph-name="six.tnum" horiz-adv-x="540" 
d="M282 116q27 0 47.5 19t20.5 69q0 23 -6 37.5t-15.5 23t-22.5 12t-26 3.5q-22 0 -43 -12.5t-38 -41.5q5 -33 14.5 -54.5t20.5 -34t23.5 -17t24.5 -4.5zM408 464q-15 17 -42 30.5t-54 13.5q-23 0 -43.5 -8.5t-36 -29t-25.5 -53t-12 -80.5q12 15 27 27t31.5 20t32 12t28.5 4
q40 0 75.5 -11.5t61 -35.5t40.5 -61t15 -88t-17.5 -91t-47.5 -68t-70 -42.5t-85 -14.5q-46 0 -90.5 17.5t-79.5 55.5t-56.5 98.5t-21.5 146.5t22 150t58 106t83.5 63t98.5 21q68 0 117 -24t81 -56z" />
    <glyph glyph-name="seven.tnum" horiz-adv-x="540" 
d="M152 -80q4 76 14 143t28.5 129t48 122t73.5 122h-272v144h454v-106q-55 -65 -87 -124.5t-50 -123.5t-25.5 -138t-11.5 -168h-172v0z" />
    <glyph glyph-name="eight.tnum" horiz-adv-x="540" 
d="M189 182q0 -38 25 -57t58 -19q29 0 49 15t20 51q0 17 -8 30t-23.5 23.5t-37.5 20.5t-50 22q-14 -17 -23.5 -39.5t-9.5 -46.5zM306 378q28 40 28 80q0 33 -17 51.5t-47 18.5q-23 0 -40.5 -14.5t-17.5 -47.5q0 -32 24.5 -51t69.5 -37zM42 162q0 56 29.5 91t74.5 59v4
q-38 29 -61 64.5t-23 85.5q0 42 15.5 75.5t44 56.5t67 35.5t85.5 12.5q44 0 80.5 -12.5t62.5 -35t40.5 -55.5t14.5 -73q0 -44 -23.5 -77.5t-57.5 -55.5v-4q47 -25 78 -64.5t31 -102.5q0 -38 -16.5 -70.5t-47 -56.5t-73.5 -37.5t-95 -13.5q-48 0 -89.5 12.5t-72 35.5
t-47.5 55t-17 71z" />
    <glyph glyph-name="nine.tnum" horiz-adv-x="540" 
d="M250 276q25 0 48.5 12.5t43.5 44.5q-5 42 -15 67.5t-23 39.5t-27.5 19t-28.5 5q-27 0 -47.5 -21t-20.5 -71q0 -29 6 -47.5t15.5 -29t22 -15t26.5 -4.5zM108 78q24 -15 47 -23.5t53 -8.5q31 0 55 8.5t41 29t27.5 53.5t13.5 82q-26 -31 -63.5 -47t-65.5 -16
q-89 0 -140.5 56t-51.5 160q0 51 17.5 91.5t47.5 69t70 44t85 15.5q60 0 108.5 -23.5t82.5 -67t52.5 -104.5t18.5 -137q0 -74 -17 -138t-51.5 -111.5t-88.5 -75t-127 -27.5q-27 0 -49.5 3t-43 9t-40 16t-41.5 24z" />
    <glyph glyph-name="zero.onum" horiz-adv-x="556" 
d="M278 -12q-52 0 -95 20t-74.5 59t-49 95t-17.5 128t17.5 128t49 95t74.5 59t95 20t95 -20t74.5 -59t49 -95t17.5 -128t-17.5 -128t-49 -95t-74.5 -59t-95 -20zM278 120q39 0 56.5 47.5t17.5 122.5t-17.5 122.5t-56.5 47.5t-56.5 -47.5t-17.5 -122.5t17.5 -122.5
t56.5 -47.5z" />
    <glyph glyph-name="one.onum" horiz-adv-x="426" 
d="M154 412h-120v106q54 11 92 25t74 37h126v-580h-172v412z" />
    <glyph glyph-name="two.onum" horiz-adv-x="526" 
d="M44 98q113 86 178.5 155.5t65.5 128.5q0 37 -18 56.5t-50 19.5q-33 0 -55 -18.5t-45 -41.5l-92 92q25 26 48 45.5t48.5 32t54 18.5t63.5 6q46 0 85 -14.5t66.5 -41.5t43 -64t15.5 -82q0 -68 -41 -127t-113 -127q24 3 54.5 5.5t51.5 2.5h72v-144h-432v98z" />
    <glyph glyph-name="three.onum" horiz-adv-x="540" 
d="M98 106q29 -27 62.5 -43.5t67.5 -16.5q42 0 67 19t25 49q0 18 -6 33t-23 26t-48 17t-81 6v120q40 0 66.5 6.5t42.5 17t22.5 25t6.5 31.5q0 29 -17 45.5t-49 16.5t-57 -13t-55 -39l-86 104q47 39 97 60.5t109 21.5q52 0 94.5 -12.5t72.5 -36t46.5 -57.5t16.5 -77
q0 -46 -25.5 -84t-76.5 -61v-4q54 -17 88 -56.5t34 -101.5q0 -45 -20 -81t-53.5 -61t-78.5 -38.5t-94 -13.5q-78 0 -134 24t-92 66z" />
    <glyph glyph-name="four.onum" horiz-adv-x="556" 
d="M298 208v82q0 16 0.5 35.5t1.5 39.5t2 39.5t2 35.5h-4q-12 -29 -25 -59t-27 -59l-58 -114h108zM526 78h-68v-158h-160v158h-270v120l216 382h214v-372h68v-130z" />
    <glyph glyph-name="five.onum" horiz-adv-x="540" 
d="M98 106q29 -26 61 -43t67 -17q45 0 69.5 22.5t24.5 67.5q0 42 -24 65t-62 23q-13 0 -23 -1.5t-19.5 -4.5t-20.5 -9t-25 -15l-74 48l16 338h376v-144h-228l-8 -104q17 6 30.5 8t29.5 2q41 0 78 -12.5t65 -37.5t44.5 -63t16.5 -89q0 -56 -19.5 -99t-52.5 -72.5t-76.5 -45
t-91.5 -15.5q-78 0 -134.5 26.5t-95.5 65.5z" />
    <glyph glyph-name="six.onum" horiz-adv-x="556" 
d="M290 116q27 0 47.5 19t20.5 69q0 23 -6 37.5t-15.5 23t-22.5 12t-26 3.5q-22 0 -43 -12.5t-38 -41.5q5 -33 14.5 -54.5t20.5 -34t23.5 -17t24.5 -4.5zM416 464q-15 17 -42 30.5t-54 13.5q-23 0 -43.5 -8.5t-36 -29t-25.5 -53t-12 -80.5q12 15 27 27t31.5 20t32 12t28.5 4
q40 0 75.5 -11.5t61 -35.5t40.5 -61t15 -88t-17.5 -91t-47.5 -68t-70 -42.5t-85 -14.5q-46 0 -90.5 17.5t-79.5 55.5t-56.5 98.5t-21.5 146.5t22 150t58 106t83.5 63t98.5 21q68 0 117 -24t81 -56z" />
    <glyph glyph-name="seven.onum" horiz-adv-x="526" 
d="M136 -80q4 78 14.5 144.5t29.5 128t48.5 121t73.5 122.5h-258v144h440v-106q-54 -66 -86.5 -124.5t-51 -122t-26.5 -137.5t-12 -170h-172v0z" />
    <glyph glyph-name="eight.onum" horiz-adv-x="558" 
d="M197 182q0 -38 25 -57t58 -19q29 0 49 15t20 51q0 17 -8 30t-23.5 23.5t-37.5 20.5t-50 22q-14 -17 -23.5 -39.5t-9.5 -46.5zM314 378q28 40 28 80q0 33 -17 51.5t-47 18.5q-23 0 -40.5 -14.5t-17.5 -47.5q0 -32 24.5 -51t69.5 -37zM50 162q0 56 29.5 91t74.5 59v4
q-38 29 -61 64.5t-23 85.5q0 42 15.5 75.5t44 56.5t67 35.5t85.5 12.5q44 0 80.5 -12.5t62.5 -35t40.5 -55.5t14.5 -73q0 -44 -23.5 -77.5t-57.5 -55.5v-4q47 -25 78 -64.5t31 -102.5q0 -38 -16.5 -70.5t-47 -56.5t-73.5 -37.5t-95 -13.5q-48 0 -89.5 12.5t-72 35.5
t-47.5 55t-17 71z" />
    <glyph glyph-name="nine.onum" horiz-adv-x="556" 
d="M258 276q25 0 48.5 12.5t43.5 44.5q-5 42 -15 67.5t-23 39.5t-27.5 19t-28.5 5q-27 0 -47.5 -21t-20.5 -71q0 -29 6 -47.5t15.5 -29t22 -15t26.5 -4.5zM116 78q24 -15 47 -23.5t53 -8.5q31 0 55 8.5t41 29t27.5 53.5t13.5 82q-26 -31 -63.5 -47t-65.5 -16
q-89 0 -140.5 56t-51.5 160q0 51 17.5 91.5t47.5 69t70 44t85 15.5q60 0 108.5 -23.5t82.5 -67t52.5 -104.5t18.5 -137q0 -74 -17 -138t-51.5 -111.5t-88.5 -75t-127 -27.5q-27 0 -49.5 3t-43 9t-40 16t-41.5 24z" />
    <glyph glyph-name="period" unicode="." horiz-adv-x="320" 
d="M60 92q0 44 28 74t72 30t72 -30t28 -74t-28 -74t-72 -30t-72 30t-28 74z" />
    <glyph glyph-name="comma" unicode="," horiz-adv-x="320" 
d="M46 -114q60 20 90.5 52.5t30.5 69.5h-7q-39 0 -69.5 24.5t-30.5 69.5q0 42 30 68t74 26q56 0 85 -41t29 -115q0 -89 -50 -153t-148 -91z" />
    <glyph glyph-name="colon" unicode=":" horiz-adv-x="320" 
d="M60 402q0 44 28 74t72 30t72 -30t28 -74t-28 -74t-72 -30t-72 30t-28 74zM60 92q0 44 28 74t72 30t72 -30t28 -74t-28 -74t-72 -30t-72 30t-28 74z" />
    <glyph glyph-name="semicolon" unicode=";" horiz-adv-x="320" 
d="M60 402q0 44 28 74t72 30t72 -30t28 -74t-28 -74t-72 -30t-72 30t-28 74zM46 -114q60 20 90.5 52.5t30.5 69.5h-7q-39 0 -69.5 24.5t-30.5 69.5q0 42 30 68t74 26q56 0 85 -41t29 -115q0 -89 -50 -153t-148 -91z" />
    <glyph glyph-name="ellipsis" unicode="&#x2026;" horiz-adv-x="990" 
d="M70 92q0 44 28 74t72 30t72 -30t28 -74t-28 -74t-72 -30t-72 30t-28 74zM400 92q0 44 28 74t72 30t72 -30t28 -74t-28 -74t-72 -30t-72 30t-28 74zM730 92q0 44 28 74t72 30t72 -30t28 -74t-28 -74t-72 -30t-72 30t-28 74z" />
    <glyph glyph-name="exclam" unicode="!" horiz-adv-x="360" 
d="M100 522l-6 148h172l-6 -148l-24 -278h-112zM80 92q0 44 28 74t72 30t72 -30t28 -74t-28 -74t-72 -30t-72 30t-28 74z" />
    <glyph glyph-name="exclamdown" unicode="&#xa1;" horiz-adv-x="360" 
d="M260 -22l6 -148h-172l6 148l24 278h112zM280 408q0 -44 -28 -74t-72 -30t-72 30t-28 74t28 74t72 30t72 -30t28 -74z" />
    <glyph glyph-name="question" unicode="?" horiz-adv-x="478" 
d="M152 244q-5 32 2 59t20.5 49.5t31 41.5t32.5 36t25.5 32.5t10.5 31.5q0 27 -16.5 38.5t-39.5 11.5q-26 0 -44 -12t-38 -30l-94 86q35 42 83 68t105 26q43 0 81 -10t66.5 -31t44.5 -54.5t16 -80.5q0 -30 -11 -53.5t-26.5 -43.5t-34 -38t-33.5 -37t-24.5 -41t-6.5 -49h-150
zM126 92q0 44 28 74t72 30t72 -30t28 -74t-28 -74t-72 -30t-72 30t-28 74z" />
    <glyph glyph-name="questiondown" unicode="&#xbf;" horiz-adv-x="478" 
d="M326 256q5 -32 -2 -59t-20.5 -49.5t-31 -41.5t-32.5 -36t-25.5 -32.5t-10.5 -31.5q0 -27 16.5 -38.5t39.5 -11.5q26 0 44 12t38 30l94 -86q-35 -42 -83 -68t-105 -26q-44 0 -81.5 10t-66 31t-44.5 54.5t-16 80.5q0 30 11 53.5t26.5 43.5t34 38t33.5 37t24 40.5t7 49.5
h150zM352 408q0 -44 -28 -74t-72 -30t-72 30t-28 74t28 74t72 30t72 -30t28 -74z" />
    <glyph glyph-name="quotesingle" unicode="'" horiz-adv-x="320" 
d="M80 536l-6 148h172l-6 -148l-34 -212h-92z" />
    <glyph glyph-name="quotedbl" unicode="&#x22;" horiz-adv-x="580" 
d="M80 536l-6 148h172l-6 -148l-34 -212h-92zM340 536l-6 148h172l-6 -148l-34 -212h-92z" />
    <glyph glyph-name="quoteleft" unicode="&#x2018;" horiz-adv-x="320" 
d="M246 604q-48 -21 -72 -51.5t-24 -75.5q3 1 10 1q36 0 61 -22t25 -60q0 -42 -24 -67t-62 -25q-53 0 -79.5 38.5t-26.5 107.5q0 75 38 132.5t118 95.5z" />
    <glyph glyph-name="quoteright" unicode="&#x2019;" horiz-adv-x="320" 
d="M74 396q48 21 72 51.5t24 75.5q-3 -1 -10 -1q-36 0 -61 22t-25 60q0 42 24 67t62 25q53 0 79.5 -38.5t26.5 -107.5q0 -75 -38 -132.5t-118 -95.5z" />
    <glyph glyph-name="quotedblleft" unicode="&#x201c;" horiz-adv-x="580" 
d="M246 604q-48 -21 -72 -51.5t-24 -75.5q3 1 10 1q36 0 61 -22t25 -60q0 -42 -24 -67t-62 -25q-53 0 -79.5 38.5t-26.5 107.5q0 75 38 132.5t118 95.5zM506 604q-48 -21 -72 -51.5t-24 -75.5q3 1 10 1q36 0 61 -22t25 -60q0 -42 -24 -67t-62 -25q-53 0 -79.5 38.5
t-26.5 107.5q0 75 38 132.5t118 95.5z" />
    <glyph glyph-name="quotedblright" unicode="&#x201d;" horiz-adv-x="580" 
d="M74 396q48 21 72 51.5t24 75.5q-3 -1 -10 -1q-36 0 -61 22t-25 60q0 42 24 67t62 25q53 0 79.5 -38.5t26.5 -107.5q0 -75 -38 -132.5t-118 -95.5zM334 396q48 21 72 51.5t24 75.5q-3 -1 -10 -1q-36 0 -61 22t-25 60q0 42 24 67t62 25q53 0 79.5 -38.5t26.5 -107.5
q0 -75 -38 -132.5t-118 -95.5z" />
    <glyph glyph-name="quotesinglbase" unicode="&#x201a;" horiz-adv-x="320" 
d="M74 -103q48 21 72 51.5t24 75.5q-3 -1 -10 -1q-36 0 -61 22t-25 60q0 42 24 67t62 25q53 0 79.5 -38.5t26.5 -107.5q0 -75 -38 -132.5t-118 -95.5z" />
    <glyph glyph-name="quotedblbase" unicode="&#x201e;" horiz-adv-x="580" 
d="M74 -103q48 21 72 51.5t24 75.5q-3 -1 -10 -1q-36 0 -61 22t-25 60q0 42 24 67t62 25q53 0 79.5 -38.5t26.5 -107.5q0 -75 -38 -132.5t-118 -95.5zM334 -103q48 21 72 51.5t24 75.5q-3 -1 -10 -1q-36 0 -61 22t-25 60q0 42 24 67t62 25q53 0 79.5 -38.5t26.5 -107.5
q0 -75 -38 -132.5t-118 -95.5z" />
    <glyph glyph-name="guilsinglleft" unicode="&#x2039;" horiz-adv-x="300" 
d="M50 192v120l134 140l62 -50l-108 -150l108 -150l-62 -50z" />
    <glyph glyph-name="guilsinglright" unicode="&#x203a;" horiz-adv-x="300" 
d="M162 252l-108 150l62 50l134 -140v-120l-134 -140l-62 50z" />
    <glyph glyph-name="guillemotleft" unicode="&#xab;" horiz-adv-x="500" 
d="M50 192v120l134 140l62 -50l-108 -150l108 -150l-62 -50zM250 192v120l134 140l62 -50l-108 -150l108 -150l-62 -50z" />
    <glyph glyph-name="guillemotright" unicode="&#xbb;" horiz-adv-x="500" 
d="M162 252l-108 150l62 50l134 -140v-120l-134 -140l-62 50zM362 252l-108 150l62 50l134 -140v-120l-134 -140l-62 50z" />
    <glyph glyph-name="hyphen" unicode="-" horiz-adv-x="340" 
d="M44 314h252v-120h-252v120z" />
    <glyph glyph-name="uni00AD" unicode="&#xad;" horiz-adv-x="340" 
d="M44 314h252v-120h-252v120z" />
    <glyph glyph-name="endash" unicode="&#x2013;" horiz-adv-x="480" 
d="M44 308h392v-108h-392v108z" />
    <glyph glyph-name="emdash" unicode="&#x2014;" horiz-adv-x="800" 
d="M44 308h712v-108h-712v108z" />
    <glyph glyph-name="figuredash" unicode="&#x2012;" horiz-adv-x="540" 
d="M44 308h452v-108h-452v108z" />
    <glyph glyph-name="uni2015" unicode="&#x2015;" horiz-adv-x="800" 
d="M44 308h712v-108h-712v108z" />
    <glyph glyph-name="periodcentered" unicode="&#xb7;" horiz-adv-x="320" 
d="M60 320q0 44 28 74t72 30t72 -30t28 -74t-28 -74t-72 -30t-72 30t-28 74z" />
    <glyph glyph-name="bullet" unicode="&#x2022;" horiz-adv-x="360" 
d="M180 116q-30 0 -55.5 11.5t-44.5 31t-29.5 46t-10.5 57.5t10.5 57.5t29.5 46t44.5 31t55.5 11.5t55.5 -11.5t44.5 -31t29.5 -46t10.5 -57.5t-10.5 -57.5t-29.5 -46t-44.5 -31t-55.5 -11.5z" />
    <glyph glyph-name="underscore" unicode="_" horiz-adv-x="500" 
d="M488 -52v-94h-476v94h476z" />
    <glyph glyph-name="parenleft" unicode="(" horiz-adv-x="360" 
d="M200 -180q-63 103 -97.5 214.5t-34.5 243.5t34.5 243t97.5 215l108 -44q-54 -98 -78 -204t-24 -210t24 -210t78 -204l-108 -44v0z" />
    <glyph glyph-name="parenright" unicode=")" horiz-adv-x="360" 
d="M52 -136q54 98 78 204t24 210t-24 210t-78 204l108 44q63 -104 97.5 -215t34.5 -243t-34.5 -243.5t-97.5 -214.5l-108 44v0z" />
    <glyph glyph-name="bracketleft" unicode="[" horiz-adv-x="360" 
d="M84 708h224v-90h-96v-680h96v-90h-224v860z" />
    <glyph glyph-name="bracketright" unicode="]" horiz-adv-x="360" 
d="M148 -62v680h-96v90h224v-860h-224v90h96z" />
    <glyph glyph-name="braceleft" unicode="{" horiz-adv-x="360" 
d="M308 -62v-90h-70q-35 0 -59.5 7.5t-41 24.5t-24 45t-7.5 69q0 26 1.5 46t3.5 38t3.5 36.5t1.5 41.5q0 26 -19 48t-67 24v100q48 2 67 24t19 48q0 23 -1.5 41.5t-3.5 36.5t-3.5 38t-1.5 46q0 82 31.5 114t100.5 32h70v-90h-16q-28 0 -38 -11.5t-10 -50.5q0 -38 2 -75
t2 -81q0 -60 -20 -85.5t-60 -34.5v-4q40 -9 60 -34.5t20 -85.5q0 -44 -2 -81t-2 -75q0 -39 10 -50.5t38 -11.5h16z" />
    <glyph glyph-name="braceright" unicode="}" horiz-adv-x="360" 
d="M68 -62q28 0 38 11.5t10 50.5q0 38 -2 75t-2 81q0 60 20 85.5t60 34.5v4q-40 9 -60 34.5t-20 85.5q0 44 2 81t2 75q0 39 -10 50.5t-38 11.5h-16v90h70q69 0 100.5 -32t31.5 -114q0 -26 -1.5 -46t-3.5 -38t-3.5 -36.5t-1.5 -41.5q0 -26 19 -48t67 -24v-100q-48 -2 -67 -24
t-19 -48q0 -23 1.5 -41.5t3.5 -36.5t3.5 -38t1.5 -46q0 -41 -7.5 -69t-24 -45t-41.5 -24.5t-59 -7.5h-70v90h16z" />
    <glyph glyph-name="slash" unicode="/" horiz-adv-x="334" 
d="M190 710h110l-176 -870h-110z" />
    <glyph glyph-name="bar" unicode="|" horiz-adv-x="278" 
d="M84 750h110v-1000h-110v1000z" />
    <glyph glyph-name="backslash" unicode="\" horiz-adv-x="334" 
d="M34 710h110l176 -870h-110z" />
    <glyph glyph-name="brokenbar" unicode="&#xa6;" horiz-adv-x="278" 
d="M84 750h110v-430h-110v430zM194 200v-450h-110v450h110z" />
    <glyph glyph-name="asterisk" unicode="*" horiz-adv-x="472" 
d="M82 372l60 107l-112 52l27 83l121 -24l14 122h88l14 -123l121 25l27 -83l-113 -52l61 -107l-70 -51l-84 91l-84 -91z" />
    <glyph glyph-name="dagger" unicode="&#x2020;" horiz-adv-x="532" 
d="M208 418l-168 -10v136l168 -10l-10 178h136l-10 -178l168 10v-136l-168 10l10 -498h-136z" />
    <glyph glyph-name="daggerdbl" unicode="&#x2021;" horiz-adv-x="532" 
d="M40 224l168 -14l-10 106l10 106l-168 -14v136l168 -10l-10 178h136l-10 -178l168 10v-136l-168 14l10 -106l-10 -106l168 14v-136l-168 10l10 -178h-136l10 178l-168 -10v136z" />
    <glyph glyph-name="section" unicode="&#xa7;" horiz-adv-x="540" 
d="M178 332q0 -20 14.5 -34.5t37.5 -26.5t51 -24t56 -26q25 19 25 49q0 20 -14 35t-37 27t-51.5 23t-56.5 25q-25 -19 -25 -48zM384 518q-23 20 -51 34t-51 14q-22 0 -33 -6.5t-11 -23.5q0 -14 20 -25.5t49.5 -24.5t64.5 -29.5t64.5 -39.5t49.5 -55.5t20 -77.5
q0 -83 -81 -135q21 -32 21 -75q0 -35 -12.5 -65.5t-38 -53t-64 -35t-89.5 -12.5q-56 0 -111.5 21.5t-90.5 68.5l98 86q24 -26 51 -38t53 -12q27 0 38.5 8.5t11.5 23.5q0 16 -19 28t-48 24t-62 27.5t-62 38.5t-48 55.5t-19 80.5q0 35 20.5 69.5t56.5 57.5q-13 17 -20 37
t-7 46q0 74 50 118t138 44q62 0 110 -21.5t80 -46.5z" />
    <glyph glyph-name="paragraph" unicode="&#xb6;" horiz-adv-x="666" 
d="M398 650h172v-730h-172v730zM298 186q-53 0 -100 15.5t-82.5 45.5t-56.5 74.5t-21 102.5q0 64 21 107.5t56.5 70t82.5 37.5t100 11h44v-464h-44z" />
    <glyph glyph-name="copyright" unicode="&#xa9;" horiz-adv-x="752" 
d="M44 326q0 78 27 139.5t72.5 103.5t105.5 64.5t127 22.5t127 -22.5t105.5 -65t72.5 -103.5t27 -139t-27 -140t-72.5 -105t-105.5 -66t-127 -23t-127 23t-105.5 66t-72.5 105t-27 140zM120 326q0 -60 19.5 -109t54 -84t81 -54t101.5 -19t101.5 19t81 54t54 84t19.5 109
t-19.5 108.5t-54 82.5t-81 52.5t-101.5 18.5t-101.5 -18.5t-81 -52.5t-54 -82.5t-19.5 -108.5zM192 324q0 44 16.5 80t43.5 61.5t62.5 39t73.5 13.5q48 0 80 -18t56 -42l-63 -70q-14 15 -28.5 23.5t-32.5 8.5q-45 0 -66 -28.5t-21 -67.5q0 -45 21.5 -71.5t59.5 -26.5
q23 0 38.5 8t33.5 22l54 -78q-29 -23 -61 -36.5t-69 -13.5q-44 0 -80 13.5t-62.5 39t-41 62t-14.5 81.5z" />
    <glyph glyph-name="uni2117" unicode="&#x2117;" horiz-adv-x="752" 
d="M234 506h148q37 0 70 -7t57.5 -23t38.5 -42t14 -64q0 -39 -14.5 -67t-39.5 -46t-57.5 -26.5t-68.5 -8.5h-26v-82h-122v366zM374 308q70 0 70 58q0 27 -17.5 38.5t-52.5 11.5h-18v-108h18zM44 326q0 78 27 139.5t72.5 103.5t105.5 64.5t127 22.5t127 -22.5t105.5 -65
t72.5 -103.5t27 -139t-27 -140t-72.5 -105t-105.5 -66t-127 -23t-127 23t-105.5 66t-72.5 105t-27 140zM120 326q0 -60 19.5 -109t54 -84t81 -54t101.5 -19t101.5 19t81 54t54 84t19.5 109t-19.5 108.5t-54 82.5t-81 52.5t-101.5 18.5t-101.5 -18.5t-81 -52.5t-54 -82.5
t-19.5 -108.5z" />
    <glyph glyph-name="registered" unicode="&#xae;" horiz-adv-x="477" 
d="M238 308q-42 0 -79 15.5t-64 42.5t-43 64.5t-16 81.5t16 81.5t43 64.5t64 42.5t79 15.5t79 -15.5t64 -42.5t43 -64.5t16 -81.5t-16 -81.5t-43 -64.5t-64 -42.5t-79 -15.5zM238 362q63 0 102.5 40.5t39.5 109.5t-39.5 109.5t-102.5 40.5t-102.5 -40.5t-39.5 -109.5
t39.5 -109.5t102.5 -40.5zM154 610h94q36 0 59 -16.5t23 -49.5q0 -17 -8 -31t-26 -23l40 -74h-66l-28 56h-24v-56h-64v194zM236 515q14 0 20 8t6 17q0 10 -7 16.5t-19 6.5h-18v-48h18z" />
    <glyph glyph-name="trademark" unicode="&#x2122;" horiz-adv-x="700" 
d="M318 676h126l34 -82l18 -62h4l18 62l34 82h126v-316h-106v80l12 120h-4l-46 -154h-72l-46 154h-4l12 -120v-80h-106v316zM86 576h-82v100h274v-100h-82v-216h-110v216z" />
    <glyph glyph-name="uni2120" unicode="&#x2120;" horiz-adv-x="700" 
d="M140 348q-67 0 -126 50l56 68q17 -15 37.5 -25.5t40.5 -10.5q22 0 22 14q0 9 -9.5 14t-25.5 12l-41 18q-27 12 -45.5 34t-18.5 62q0 21 8.5 39.5t25 33t40 23t52.5 8.5q33 0 62 -11.5t52 -28.5l-50 -70q-17 11 -35 19.5t-35 8.5q-12 0 -17 -5t-5 -11q0 -8 9.5 -12.5
t26.5 -11.5l40 -16q31 -12 48.5 -34t17.5 -60q0 -21 -9 -40.5t-26 -34.5t-41 -24t-54 -9zM318 676h126l34 -82l18 -62h4l18 62l34 82h126v-316h-106v80l12 120h-4l-46 -154h-72l-46 154h-4l12 -120v-80h-106v316z" />
    <glyph glyph-name="at" unicode="@" horiz-adv-x="924" 
d="M48 206q0 106 37 193.5t100 149t147.5 95.5t179.5 34q83 0 150.5 -27t115 -75.5t73 -116t25.5 -147.5q0 -70 -21.5 -122t-56 -86.5t-77 -52t-83.5 -17.5q-45 0 -78 20t-42 56h-2q-10 -15 -24 -27t-30.5 -21t-33.5 -13.5t-32 -4.5q-62 0 -99 42.5t-37 111.5q0 48 16 93
t44 80t65.5 56t80.5 21q24 0 43 -11.5t31 -38.5h2l16 42h104l-48 -228q-18 -74 42 -74q22 0 43 12t36.5 34.5t25 54t9.5 69.5q0 51 -14 99t-46 85.5t-84 60.5t-128 23q-63 0 -123.5 -26t-107.5 -74t-76 -115.5t-29 -150.5q0 -74 24 -128t64.5 -89t93 -52t108.5 -17
q36 0 77 10.5t71 25.5l36 -92q-47 -24 -95.5 -35t-102.5 -11q-76 0 -146.5 23t-124.5 70t-86.5 119.5t-32.5 171.5zM388 208q0 -58 46 -58q14 0 26.5 8.5t29.5 31.5l22 126q-5 11 -15.5 17.5t-24.5 6.5q-20 0 -35.5 -13t-26 -32.5t-16.5 -43t-6 -43.5z" />
    <glyph glyph-name="at.case" horiz-adv-x="848" 
d="M48 294q0 94 32.5 170.5t89 130t132.5 82.5t162 29q77 0 139.5 -23t106 -64t67 -97.5t23.5 -123.5q0 -65 -18 -114t-48 -82.5t-69.5 -50.5t-82.5 -17q-42 0 -69.5 21.5t-36.5 56.5h-2q-9 -15 -23.5 -27t-31 -21t-33.5 -13.5t-32 -4.5q-52 0 -84 39t-32 99q0 46 14.5 87
t40 72.5t59.5 50t72 18.5q24 0 42 -11.5t30 -38.5h2l17 42h103l-48 -200q-8 -32 0 -49t28 -17q16 0 33.5 9.5t31 29t22.5 48.5t9 67q0 42 -12.5 81.5t-41 69.5t-75 48.5t-113.5 18.5q-56 0 -108.5 -22t-94 -62.5t-66.5 -98.5t-25 -129q0 -67 21.5 -112.5t56 -74t77.5 -41
t87 -12.5q30 0 64 7t60 19l38 -86q-45 -20 -85.5 -28t-90.5 -8q-62 0 -122.5 18.5t-108.5 58.5t-77.5 103t-29.5 152zM394 250q12 0 23.5 8t26.5 28l20 100q-9 22 -34 22q-15 0 -26.5 -11.5t-20 -29t-13 -38t-4.5 -37.5q0 -20 6.5 -31t21.5 -11z" />
    <glyph glyph-name="numbersign" unicode="#" horiz-adv-x="540" 
d="M106 180h-72v108h84l12 96h-76v108h90l20 158h96l-18 -158h92l20 158h96l-18 -158h78v-108h-92l-12 -96h84v-108h-96l-22 -180h-98l22 180h-92l-22 -180h-98zM308 288l12 96h-92l-12 -96h92z" />
    <glyph glyph-name="zero.sups" unicode="&#x2070;" horiz-adv-x="380" 
d="M190 428q-36 0 -67 14t-53.5 41t-35 65.5t-12.5 87.5t12.5 87t35 64.5t53.5 40.5t67 14t66.5 -14t53 -40.5t35.5 -64.5t13 -87t-13 -87.5t-35.5 -65.5t-53 -41t-66.5 -14zM190 522q20 0 35 24t15 90q0 33 -4 54.5t-11 34.5t-16 18t-19 5t-19 -5t-16 -18t-11 -34.5
t-4 -54.5q0 -66 15 -90t35 -24z" />
    </font>
</defs>
</svg>
